%TF.GenerationSoftware,KiCad,Pcbnew,7.0.10*%
%TF.CreationDate,2025-01-21T12:55:57-05:00*%
%TF.ProjectId,PostAlertMailBoxV6,506f7374-416c-4657-9274-4d61696c426f,V4.0*%
%TF.SameCoordinates,Original*%
%TF.FileFunction,Soldermask,Top*%
%TF.FilePolarity,Negative*%
%FSLAX46Y46*%
G04 Gerber Fmt 4.6, Leading zero omitted, Abs format (unit mm)*
G04 Created by KiCad (PCBNEW 7.0.10) date 2025-01-21 12:55:57*
%MOMM*%
%LPD*%
G01*
G04 APERTURE LIST*
G04 Aperture macros list*
%AMRoundRect*
0 Rectangle with rounded corners*
0 $1 Rounding radius*
0 $2 $3 $4 $5 $6 $7 $8 $9 X,Y pos of 4 corners*
0 Add a 4 corners polygon primitive as box body*
4,1,4,$2,$3,$4,$5,$6,$7,$8,$9,$2,$3,0*
0 Add four circle primitives for the rounded corners*
1,1,$1+$1,$2,$3*
1,1,$1+$1,$4,$5*
1,1,$1+$1,$6,$7*
1,1,$1+$1,$8,$9*
0 Add four rect primitives between the rounded corners*
20,1,$1+$1,$2,$3,$4,$5,0*
20,1,$1+$1,$4,$5,$6,$7,0*
20,1,$1+$1,$6,$7,$8,$9,0*
20,1,$1+$1,$8,$9,$2,$3,0*%
G04 Aperture macros list end*
%ADD10C,1.000000*%
%ADD11RoundRect,0.225000X-0.225000X-0.250000X0.225000X-0.250000X0.225000X0.250000X-0.225000X0.250000X0*%
%ADD12R,1.550000X1.300000*%
%ADD13RoundRect,0.150000X0.150000X-0.512500X0.150000X0.512500X-0.150000X0.512500X-0.150000X-0.512500X0*%
%ADD14RoundRect,0.200000X-0.275000X0.200000X-0.275000X-0.200000X0.275000X-0.200000X0.275000X0.200000X0*%
%ADD15C,3.200000*%
%ADD16RoundRect,0.225000X0.250000X-0.225000X0.250000X0.225000X-0.250000X0.225000X-0.250000X-0.225000X0*%
%ADD17RoundRect,0.317500X1.157500X0.317500X-1.157500X0.317500X-1.157500X-0.317500X1.157500X-0.317500X0*%
%ADD18RoundRect,0.150000X-0.587500X-0.150000X0.587500X-0.150000X0.587500X0.150000X-0.587500X0.150000X0*%
%ADD19RoundRect,0.225000X-0.250000X0.225000X-0.250000X-0.225000X0.250000X-0.225000X0.250000X0.225000X0*%
%ADD20RoundRect,0.200000X-0.200000X-0.275000X0.200000X-0.275000X0.200000X0.275000X-0.200000X0.275000X0*%
%ADD21R,1.700000X1.700000*%
%ADD22O,1.700000X1.700000*%
%ADD23RoundRect,0.225000X-0.375000X0.225000X-0.375000X-0.225000X0.375000X-0.225000X0.375000X0.225000X0*%
%ADD24C,2.600000*%
%ADD25RoundRect,0.100000X0.637500X0.100000X-0.637500X0.100000X-0.637500X-0.100000X0.637500X-0.100000X0*%
%ADD26RoundRect,0.225000X0.375000X-0.225000X0.375000X0.225000X-0.375000X0.225000X-0.375000X-0.225000X0*%
%ADD27RoundRect,0.218750X0.256250X-0.218750X0.256250X0.218750X-0.256250X0.218750X-0.256250X-0.218750X0*%
%ADD28RoundRect,0.200000X0.275000X-0.200000X0.275000X0.200000X-0.275000X0.200000X-0.275000X-0.200000X0*%
%ADD29C,3.400000*%
G04 APERTURE END LIST*
D10*
%TO.C,TP4*%
X165735000Y-83312000D03*
%TD*%
D11*
%TO.C,C3*%
X154800000Y-100457000D03*
X156350000Y-100457000D03*
%TD*%
D12*
%TO.C,SW2*%
X160109000Y-92619000D03*
X168059000Y-92619000D03*
X160109000Y-97119000D03*
X168059000Y-97119000D03*
%TD*%
D13*
%TO.C,U1*%
X149037000Y-109468500D03*
X149987000Y-109468500D03*
X150937000Y-109468500D03*
X150937000Y-107193500D03*
X149037000Y-107193500D03*
%TD*%
D14*
%TO.C,R7*%
X172974000Y-90234000D03*
X172974000Y-91884000D03*
%TD*%
D10*
%TO.C,TP3*%
X154686000Y-79883000D03*
%TD*%
D15*
%TO.C,REF\u002A\u002A*%
X163540000Y-108530000D03*
%TD*%
D16*
%TO.C,C7*%
X127508000Y-94120000D03*
X127508000Y-92570000D03*
%TD*%
D17*
%TO.C,U2*%
X145955000Y-100091000D03*
X145955000Y-98091000D03*
X145955000Y-96091000D03*
X145955000Y-94091000D03*
X145955000Y-92091000D03*
X145955000Y-90091000D03*
X145955000Y-88091000D03*
X145955000Y-86091000D03*
X130905000Y-86091000D03*
X130905000Y-88091000D03*
X130905000Y-90091000D03*
X130905000Y-92091000D03*
X130905000Y-94091000D03*
X130905000Y-96091000D03*
X130905000Y-98091000D03*
X130905000Y-100091000D03*
%TD*%
D16*
%TO.C,C6*%
X125476000Y-94120000D03*
X125476000Y-92570000D03*
%TD*%
D18*
%TO.C,Q1*%
X171020500Y-93792000D03*
X171020500Y-95692000D03*
X172895500Y-94742000D03*
%TD*%
D19*
%TO.C,C8*%
X170561000Y-83172000D03*
X170561000Y-84722000D03*
%TD*%
D20*
%TO.C,R4*%
X165799000Y-90424000D03*
X167449000Y-90424000D03*
%TD*%
D14*
%TO.C,R8*%
X175768000Y-90234000D03*
X175768000Y-91884000D03*
%TD*%
D21*
%TO.C,J1*%
X175514000Y-74422000D03*
D22*
X175514000Y-76962000D03*
X175514000Y-79502000D03*
X175514000Y-82042000D03*
X175514000Y-84582000D03*
%TD*%
D23*
%TO.C,D3*%
X167640000Y-85345000D03*
X167640000Y-88645000D03*
%TD*%
D24*
%TO.C,J2*%
X172700000Y-116500000D03*
X165700000Y-116500000D03*
%TD*%
D21*
%TO.C,SW1*%
X153665000Y-92202000D03*
D22*
X156205000Y-92202000D03*
%TD*%
D10*
%TO.C,TP2*%
X162814000Y-74041000D03*
%TD*%
D11*
%TO.C,C2*%
X124828000Y-79248000D03*
X126378000Y-79248000D03*
%TD*%
D25*
%TO.C,U3*%
X162882500Y-81792000D03*
X162882500Y-81142000D03*
X162882500Y-80492000D03*
X162882500Y-79842000D03*
X162882500Y-79192000D03*
X162882500Y-78542000D03*
X162882500Y-77892000D03*
X162882500Y-77242000D03*
X162882500Y-76592000D03*
X162882500Y-75942000D03*
X157157500Y-75942000D03*
X157157500Y-76592000D03*
X157157500Y-77242000D03*
X157157500Y-77892000D03*
X157157500Y-78542000D03*
X157157500Y-79192000D03*
X157157500Y-79842000D03*
X157157500Y-80492000D03*
X157157500Y-81142000D03*
X157157500Y-81792000D03*
%TD*%
D15*
%TO.C,REF\u002A\u002A*%
X135540000Y-108530000D03*
%TD*%
D26*
%TO.C,D2*%
X175768000Y-97154000D03*
X175768000Y-93854000D03*
%TD*%
D20*
%TO.C,R3*%
X162878000Y-102743000D03*
X164528000Y-102743000D03*
%TD*%
D16*
%TO.C,C9*%
X173609000Y-88659000D03*
X173609000Y-87109000D03*
%TD*%
%TO.C,C5*%
X165481000Y-80277000D03*
X165481000Y-78727000D03*
%TD*%
D27*
%TO.C,L1*%
X124841000Y-82448500D03*
X124841000Y-80873500D03*
%TD*%
D11*
%TO.C,C13*%
X154038000Y-108712000D03*
X155588000Y-108712000D03*
%TD*%
D23*
%TO.C,D1*%
X168402000Y-100077000D03*
X168402000Y-103377000D03*
%TD*%
D20*
%TO.C,R1*%
X159449000Y-102743000D03*
X161099000Y-102743000D03*
%TD*%
D23*
%TO.C,D4*%
X164084000Y-85345000D03*
X164084000Y-88645000D03*
%TD*%
D10*
%TO.C,TP6*%
X157099000Y-83820000D03*
%TD*%
D24*
%TO.C,J3*%
X125800000Y-116500000D03*
X132800000Y-116500000D03*
%TD*%
D28*
%TO.C,R6*%
X175641000Y-88709000D03*
X175641000Y-87059000D03*
%TD*%
D19*
%TO.C,C10*%
X172466000Y-83172000D03*
X172466000Y-84722000D03*
%TD*%
D10*
%TO.C,TP5*%
X168021000Y-83312000D03*
%TD*%
D16*
%TO.C,C4*%
X167640000Y-80277000D03*
X167640000Y-78727000D03*
%TD*%
D28*
%TO.C,R2*%
X172466000Y-81470000D03*
X172466000Y-79820000D03*
%TD*%
D16*
%TO.C,C11*%
X171069000Y-91834000D03*
X171069000Y-90284000D03*
%TD*%
D11*
%TO.C,C1*%
X124828000Y-84074000D03*
X126378000Y-84074000D03*
%TD*%
D29*
%TO.C,TP1*%
X128524000Y-107569000D03*
%TD*%
D13*
%TO.C,U4*%
X154498000Y-105785500D03*
X155448000Y-105785500D03*
X156398000Y-105785500D03*
X156398000Y-103510500D03*
X154498000Y-103510500D03*
%TD*%
M02*
