%TF.GenerationSoftware,KiCad,Pcbnew,7.0.10*%
%TF.CreationDate,2025-01-21T12:55:57-05:00*%
%TF.ProjectId,PostAlertMailBoxV6,506f7374-416c-4657-9274-4d61696c426f,V4.0*%
%TF.SameCoordinates,Original*%
%TF.FileFunction,Copper,L1,Top*%
%TF.FilePolarity,Positive*%
%FSLAX46Y46*%
G04 Gerber Fmt 4.6, Leading zero omitted, Abs format (unit mm)*
G04 Created by KiCad (PCBNEW 7.0.10) date 2025-01-21 12:55:57*
%MOMM*%
%LPD*%
G01*
G04 APERTURE LIST*
G04 Aperture macros list*
%AMRoundRect*
0 Rectangle with rounded corners*
0 $1 Rounding radius*
0 $2 $3 $4 $5 $6 $7 $8 $9 X,Y pos of 4 corners*
0 Add a 4 corners polygon primitive as box body*
4,1,4,$2,$3,$4,$5,$6,$7,$8,$9,$2,$3,0*
0 Add four circle primitives for the rounded corners*
1,1,$1+$1,$2,$3*
1,1,$1+$1,$4,$5*
1,1,$1+$1,$6,$7*
1,1,$1+$1,$8,$9*
0 Add four rect primitives between the rounded corners*
20,1,$1+$1,$2,$3,$4,$5,0*
20,1,$1+$1,$4,$5,$6,$7,0*
20,1,$1+$1,$6,$7,$8,$9,0*
20,1,$1+$1,$8,$9,$2,$3,0*%
%AMOutline4P*
0 Free polygon, 4 corners , with rotation*
0 The origin of the aperture is its center*
0 number of corners: always 4*
0 $1 to $8 corner X, Y*
0 $9 Rotation angle, in degrees counterclockwise*
0 create outline with 4 corners*
4,1,4,$1,$2,$3,$4,$5,$6,$7,$8,$1,$2,$9*%
G04 Aperture macros list end*
%ADD10C,0.150000*%
%TA.AperFunction,NonConductor*%
%ADD11C,0.150000*%
%TD*%
%TA.AperFunction,EtchedComponent*%
%ADD12C,1.000000*%
%TD*%
%TA.AperFunction,SMDPad,CuDef*%
%ADD13C,1.000000*%
%TD*%
%TA.AperFunction,SMDPad,CuDef*%
%ADD14RoundRect,0.225000X-0.225000X-0.250000X0.225000X-0.250000X0.225000X0.250000X-0.225000X0.250000X0*%
%TD*%
%TA.AperFunction,SMDPad,CuDef*%
%ADD15R,1.550000X1.300000*%
%TD*%
%TA.AperFunction,SMDPad,CuDef*%
%ADD16RoundRect,0.150000X0.150000X-0.512500X0.150000X0.512500X-0.150000X0.512500X-0.150000X-0.512500X0*%
%TD*%
%TA.AperFunction,SMDPad,CuDef*%
%ADD17RoundRect,0.200000X-0.275000X0.200000X-0.275000X-0.200000X0.275000X-0.200000X0.275000X0.200000X0*%
%TD*%
%TA.AperFunction,SMDPad,CuDef*%
%ADD18RoundRect,0.225000X0.250000X-0.225000X0.250000X0.225000X-0.250000X0.225000X-0.250000X-0.225000X0*%
%TD*%
%TA.AperFunction,SMDPad,CuDef*%
%ADD19RoundRect,0.317500X1.157500X0.317500X-1.157500X0.317500X-1.157500X-0.317500X1.157500X-0.317500X0*%
%TD*%
%TA.AperFunction,SMDPad,CuDef*%
%ADD20RoundRect,0.150000X-0.587500X-0.150000X0.587500X-0.150000X0.587500X0.150000X-0.587500X0.150000X0*%
%TD*%
%TA.AperFunction,SMDPad,CuDef*%
%ADD21RoundRect,0.225000X-0.250000X0.225000X-0.250000X-0.225000X0.250000X-0.225000X0.250000X0.225000X0*%
%TD*%
%TA.AperFunction,SMDPad,CuDef*%
%ADD22RoundRect,0.200000X-0.200000X-0.275000X0.200000X-0.275000X0.200000X0.275000X-0.200000X0.275000X0*%
%TD*%
%TA.AperFunction,ComponentPad*%
%ADD23R,1.700000X1.700000*%
%TD*%
%TA.AperFunction,ComponentPad*%
%ADD24O,1.700000X1.700000*%
%TD*%
%TA.AperFunction,SMDPad,CuDef*%
%ADD25RoundRect,0.225000X-0.375000X0.225000X-0.375000X-0.225000X0.375000X-0.225000X0.375000X0.225000X0*%
%TD*%
%TA.AperFunction,ComponentPad*%
%ADD26C,2.600000*%
%TD*%
%TA.AperFunction,ComponentPad*%
%ADD27C,1.000000*%
%TD*%
%TA.AperFunction,SMDPad,CuDef*%
%ADD28Outline4P,-0.350000X-0.400000X0.350000X-0.400000X0.050000X0.400000X-0.050000X0.400000X180.000000*%
%TD*%
%TA.AperFunction,SMDPad,CuDef*%
%ADD29RoundRect,0.100000X0.637500X0.100000X-0.637500X0.100000X-0.637500X-0.100000X0.637500X-0.100000X0*%
%TD*%
%TA.AperFunction,SMDPad,CuDef*%
%ADD30RoundRect,0.225000X0.375000X-0.225000X0.375000X0.225000X-0.375000X0.225000X-0.375000X-0.225000X0*%
%TD*%
%TA.AperFunction,SMDPad,CuDef*%
%ADD31RoundRect,0.218750X0.256250X-0.218750X0.256250X0.218750X-0.256250X0.218750X-0.256250X-0.218750X0*%
%TD*%
%TA.AperFunction,SMDPad,CuDef*%
%ADD32RoundRect,0.200000X0.275000X-0.200000X0.275000X0.200000X-0.275000X0.200000X-0.275000X-0.200000X0*%
%TD*%
%TA.AperFunction,ComponentPad*%
%ADD33C,3.400000*%
%TD*%
%TA.AperFunction,ViaPad*%
%ADD34C,0.800000*%
%TD*%
%TA.AperFunction,Conductor*%
%ADD35C,0.250000*%
%TD*%
%TA.AperFunction,Conductor*%
%ADD36C,0.500000*%
%TD*%
%TA.AperFunction,Conductor*%
%ADD37C,0.850000*%
%TD*%
%TA.AperFunction,Conductor*%
%ADD38C,0.700000*%
%TD*%
%ADD39C,0.350000*%
G04 APERTURE END LIST*
D10*
D11*
X155530779Y-69592819D02*
X155530779Y-68592819D01*
X155530779Y-68592819D02*
X155911731Y-68592819D01*
X155911731Y-68592819D02*
X156006969Y-68640438D01*
X156006969Y-68640438D02*
X156054588Y-68688057D01*
X156054588Y-68688057D02*
X156102207Y-68783295D01*
X156102207Y-68783295D02*
X156102207Y-68926152D01*
X156102207Y-68926152D02*
X156054588Y-69021390D01*
X156054588Y-69021390D02*
X156006969Y-69069009D01*
X156006969Y-69069009D02*
X155911731Y-69116628D01*
X155911731Y-69116628D02*
X155530779Y-69116628D01*
X157102207Y-69497580D02*
X157054588Y-69545200D01*
X157054588Y-69545200D02*
X156911731Y-69592819D01*
X156911731Y-69592819D02*
X156816493Y-69592819D01*
X156816493Y-69592819D02*
X156673636Y-69545200D01*
X156673636Y-69545200D02*
X156578398Y-69449961D01*
X156578398Y-69449961D02*
X156530779Y-69354723D01*
X156530779Y-69354723D02*
X156483160Y-69164247D01*
X156483160Y-69164247D02*
X156483160Y-69021390D01*
X156483160Y-69021390D02*
X156530779Y-68830914D01*
X156530779Y-68830914D02*
X156578398Y-68735676D01*
X156578398Y-68735676D02*
X156673636Y-68640438D01*
X156673636Y-68640438D02*
X156816493Y-68592819D01*
X156816493Y-68592819D02*
X156911731Y-68592819D01*
X156911731Y-68592819D02*
X157054588Y-68640438D01*
X157054588Y-68640438D02*
X157102207Y-68688057D01*
X157864112Y-69069009D02*
X158006969Y-69116628D01*
X158006969Y-69116628D02*
X158054588Y-69164247D01*
X158054588Y-69164247D02*
X158102207Y-69259485D01*
X158102207Y-69259485D02*
X158102207Y-69402342D01*
X158102207Y-69402342D02*
X158054588Y-69497580D01*
X158054588Y-69497580D02*
X158006969Y-69545200D01*
X158006969Y-69545200D02*
X157911731Y-69592819D01*
X157911731Y-69592819D02*
X157530779Y-69592819D01*
X157530779Y-69592819D02*
X157530779Y-68592819D01*
X157530779Y-68592819D02*
X157864112Y-68592819D01*
X157864112Y-68592819D02*
X157959350Y-68640438D01*
X157959350Y-68640438D02*
X158006969Y-68688057D01*
X158006969Y-68688057D02*
X158054588Y-68783295D01*
X158054588Y-68783295D02*
X158054588Y-68878533D01*
X158054588Y-68878533D02*
X158006969Y-68973771D01*
X158006969Y-68973771D02*
X157959350Y-69021390D01*
X157959350Y-69021390D02*
X157864112Y-69069009D01*
X157864112Y-69069009D02*
X157530779Y-69069009D01*
X158721255Y-68592819D02*
X158816493Y-68592819D01*
X158816493Y-68592819D02*
X158911731Y-68640438D01*
X158911731Y-68640438D02*
X158959350Y-68688057D01*
X158959350Y-68688057D02*
X159006969Y-68783295D01*
X159006969Y-68783295D02*
X159054588Y-68973771D01*
X159054588Y-68973771D02*
X159054588Y-69211866D01*
X159054588Y-69211866D02*
X159006969Y-69402342D01*
X159006969Y-69402342D02*
X158959350Y-69497580D01*
X158959350Y-69497580D02*
X158911731Y-69545200D01*
X158911731Y-69545200D02*
X158816493Y-69592819D01*
X158816493Y-69592819D02*
X158721255Y-69592819D01*
X158721255Y-69592819D02*
X158626017Y-69545200D01*
X158626017Y-69545200D02*
X158578398Y-69497580D01*
X158578398Y-69497580D02*
X158530779Y-69402342D01*
X158530779Y-69402342D02*
X158483160Y-69211866D01*
X158483160Y-69211866D02*
X158483160Y-68973771D01*
X158483160Y-68973771D02*
X158530779Y-68783295D01*
X158530779Y-68783295D02*
X158578398Y-68688057D01*
X158578398Y-68688057D02*
X158626017Y-68640438D01*
X158626017Y-68640438D02*
X158721255Y-68592819D01*
X159911731Y-68926152D02*
X159911731Y-69592819D01*
X159673636Y-68545200D02*
X159435541Y-69259485D01*
X159435541Y-69259485D02*
X160054588Y-69259485D01*
X160387922Y-68688057D02*
X160435541Y-68640438D01*
X160435541Y-68640438D02*
X160530779Y-68592819D01*
X160530779Y-68592819D02*
X160768874Y-68592819D01*
X160768874Y-68592819D02*
X160864112Y-68640438D01*
X160864112Y-68640438D02*
X160911731Y-68688057D01*
X160911731Y-68688057D02*
X160959350Y-68783295D01*
X160959350Y-68783295D02*
X160959350Y-68878533D01*
X160959350Y-68878533D02*
X160911731Y-69021390D01*
X160911731Y-69021390D02*
X160340303Y-69592819D01*
X160340303Y-69592819D02*
X160959350Y-69592819D01*
X161578398Y-68592819D02*
X161673636Y-68592819D01*
X161673636Y-68592819D02*
X161768874Y-68640438D01*
X161768874Y-68640438D02*
X161816493Y-68688057D01*
X161816493Y-68688057D02*
X161864112Y-68783295D01*
X161864112Y-68783295D02*
X161911731Y-68973771D01*
X161911731Y-68973771D02*
X161911731Y-69211866D01*
X161911731Y-69211866D02*
X161864112Y-69402342D01*
X161864112Y-69402342D02*
X161816493Y-69497580D01*
X161816493Y-69497580D02*
X161768874Y-69545200D01*
X161768874Y-69545200D02*
X161673636Y-69592819D01*
X161673636Y-69592819D02*
X161578398Y-69592819D01*
X161578398Y-69592819D02*
X161483160Y-69545200D01*
X161483160Y-69545200D02*
X161435541Y-69497580D01*
X161435541Y-69497580D02*
X161387922Y-69402342D01*
X161387922Y-69402342D02*
X161340303Y-69211866D01*
X161340303Y-69211866D02*
X161340303Y-68973771D01*
X161340303Y-68973771D02*
X161387922Y-68783295D01*
X161387922Y-68783295D02*
X161435541Y-68688057D01*
X161435541Y-68688057D02*
X161483160Y-68640438D01*
X161483160Y-68640438D02*
X161578398Y-68592819D01*
X162292684Y-68688057D02*
X162340303Y-68640438D01*
X162340303Y-68640438D02*
X162435541Y-68592819D01*
X162435541Y-68592819D02*
X162673636Y-68592819D01*
X162673636Y-68592819D02*
X162768874Y-68640438D01*
X162768874Y-68640438D02*
X162816493Y-68688057D01*
X162816493Y-68688057D02*
X162864112Y-68783295D01*
X162864112Y-68783295D02*
X162864112Y-68878533D01*
X162864112Y-68878533D02*
X162816493Y-69021390D01*
X162816493Y-69021390D02*
X162245065Y-69592819D01*
X162245065Y-69592819D02*
X162864112Y-69592819D01*
X163721255Y-68926152D02*
X163721255Y-69592819D01*
X163483160Y-68545200D02*
X163245065Y-69259485D01*
X163245065Y-69259485D02*
X163864112Y-69259485D01*
X164102208Y-68592819D02*
X164673636Y-68592819D01*
X164387922Y-69592819D02*
X164387922Y-68592819D01*
D12*
%TO.C,AE1*%
X124858000Y-77040500D02*
X124858000Y-66040500D01*
X126858000Y-66040500D02*
X126858000Y-71040500D01*
X128858000Y-66040500D02*
X128858000Y-71040500D01*
X130858000Y-66040500D02*
X130858000Y-71040500D01*
X132858000Y-66040500D02*
X132858000Y-71040500D01*
X134858000Y-66040500D02*
X134858000Y-71040500D01*
X136858000Y-66040500D02*
X136858000Y-71040500D01*
X138858000Y-66040500D02*
X138858000Y-71040500D01*
X140858000Y-66040500D02*
X140858000Y-71040500D01*
X142858000Y-66040500D02*
X142858000Y-71040500D01*
%TD*%
D13*
%TO.P,TP4,1,1*%
%TO.N,Net-(U3-PC14)*%
X165735000Y-83312000D03*
%TD*%
D14*
%TO.P,C3,1*%
%TO.N,+3.3V*%
X154800000Y-100457000D03*
%TO.P,C3,2*%
%TO.N,GND*%
X156350000Y-100457000D03*
%TD*%
D15*
%TO.P,SW2,1,1*%
%TO.N,/Pair*%
X160109000Y-92619000D03*
X168059000Y-92619000D03*
%TO.P,SW2,2,2*%
%TO.N,Net-(D1-K)*%
X160109000Y-97119000D03*
X168059000Y-97119000D03*
%TD*%
D16*
%TO.P,U1,1,VDD*%
%TO.N,/B+*%
X149037000Y-109468500D03*
%TO.P,U1,2,GND*%
%TO.N,GND*%
X149987000Y-109468500D03*
%TO.P,U1,3,EN*%
%TO.N,/PWR_EN*%
X150937000Y-109468500D03*
%TO.P,U1,4,NC*%
%TO.N,unconnected-(U1-NC-Pad4)*%
X150937000Y-107193500D03*
%TO.P,U1,5,OUT*%
%TO.N,Net-(U1-OUT)*%
X149037000Y-107193500D03*
%TD*%
D17*
%TO.P,R7,1*%
%TO.N,/Tilt*%
X172974000Y-90234000D03*
%TO.P,R7,2*%
%TO.N,Net-(Q1-B)*%
X172974000Y-91884000D03*
%TD*%
D13*
%TO.P,TP3,1,1*%
%TO.N,/TXD*%
X154686000Y-79883000D03*
%TD*%
D18*
%TO.P,C7,1*%
%TO.N,+3.3V*%
X127508000Y-94120000D03*
%TO.P,C7,2*%
%TO.N,GND*%
X127508000Y-92570000D03*
%TD*%
D19*
%TO.P,U2,1,GND*%
%TO.N,GND*%
X145955000Y-100091000D03*
%TO.P,U2,2,MISO*%
%TO.N,/MISO*%
X145955000Y-98091000D03*
%TO.P,U2,3,MOSI*%
%TO.N,/MOSI*%
X145955000Y-96091000D03*
%TO.P,U2,4,SCK*%
%TO.N,/SCK*%
X145955000Y-94091000D03*
%TO.P,U2,5,NSS*%
%TO.N,/NSS*%
X145955000Y-92091000D03*
%TO.P,U2,6,RESET*%
%TO.N,/RST*%
X145955000Y-90091000D03*
%TO.P,U2,7,DIO5*%
%TO.N,unconnected-(U2-DIO5-Pad7)*%
X145955000Y-88091000D03*
%TO.P,U2,8,GND*%
%TO.N,GND*%
X145955000Y-86091000D03*
%TO.P,U2,9,ANT*%
%TO.N,Net-(U2-ANT)*%
X130905000Y-86091000D03*
%TO.P,U2,10,GND*%
%TO.N,GND*%
X130905000Y-88091000D03*
%TO.P,U2,11,DIO3*%
%TO.N,unconnected-(U2-DIO3-Pad11)*%
X130905000Y-90091000D03*
%TO.P,U2,12,DIO4*%
%TO.N,unconnected-(U2-DIO4-Pad12)*%
X130905000Y-92091000D03*
%TO.P,U2,13,3.3V*%
%TO.N,+3.3V*%
X130905000Y-94091000D03*
%TO.P,U2,14,DIO0*%
%TO.N,/LoRaIRQ*%
X130905000Y-96091000D03*
%TO.P,U2,15,DIO1*%
%TO.N,unconnected-(U2-DIO1-Pad15)*%
X130905000Y-98091000D03*
%TO.P,U2,16,DIO2*%
%TO.N,unconnected-(U2-DIO2-Pad16)*%
X130905000Y-100091000D03*
%TD*%
D18*
%TO.P,C6,1*%
%TO.N,+3.3V*%
X125476000Y-94120000D03*
%TO.P,C6,2*%
%TO.N,GND*%
X125476000Y-92570000D03*
%TD*%
D20*
%TO.P,Q1,1,B*%
%TO.N,Net-(Q1-B)*%
X171020500Y-93792000D03*
%TO.P,Q1,2,E*%
%TO.N,GND*%
X171020500Y-95692000D03*
%TO.P,Q1,3,C*%
%TO.N,Net-(D2-A)*%
X172895500Y-94742000D03*
%TD*%
D21*
%TO.P,C8,1*%
%TO.N,/NRST*%
X170561000Y-83172000D03*
%TO.P,C8,2*%
%TO.N,GND*%
X170561000Y-84722000D03*
%TD*%
D22*
%TO.P,R4,1*%
%TO.N,/Pair*%
X165799000Y-90424000D03*
%TO.P,R4,2*%
%TO.N,GND*%
X167449000Y-90424000D03*
%TD*%
D17*
%TO.P,R8,1*%
%TO.N,/Tilt*%
X175768000Y-90234000D03*
%TO.P,R8,2*%
%TO.N,Net-(D2-A)*%
X175768000Y-91884000D03*
%TD*%
D23*
%TO.P,J1,1,Pin_1*%
%TO.N,/SWCLK*%
X175514000Y-74422000D03*
D24*
%TO.P,J1,2,Pin_2*%
%TO.N,/SWDIO*%
X175514000Y-76962000D03*
%TO.P,J1,3,Pin_3*%
%TO.N,/NRST*%
X175514000Y-79502000D03*
%TO.P,J1,4,Pin_4*%
%TO.N,+3.3V*%
X175514000Y-82042000D03*
%TO.P,J1,5,Pin_5*%
%TO.N,GND*%
X175514000Y-84582000D03*
%TD*%
D25*
%TO.P,D3,1,K*%
%TO.N,/PWR_EN*%
X167640000Y-85345000D03*
%TO.P,D3,2,A*%
%TO.N,/Pair*%
X167640000Y-88645000D03*
%TD*%
D26*
%TO.P,J2,1,Pin_1*%
%TO.N,/B+*%
X172700000Y-116500000D03*
X165700000Y-116500000D03*
%TD*%
D23*
%TO.P,SW1,1,1*%
%TO.N,Net-(D1-K)*%
X153665000Y-92202000D03*
D24*
%TO.P,SW1,2,2*%
%TO.N,/Tilt*%
X156205000Y-92202000D03*
%TD*%
D27*
%TO.P,AE1,*%
%TO.N,*%
X124858000Y-66040500D03*
X126858000Y-66040500D03*
X126858000Y-71040500D03*
X128858000Y-66040500D03*
X128858000Y-71040500D03*
X130858000Y-66040500D03*
X130858000Y-71040500D03*
X132858000Y-66040500D03*
X132858000Y-71040500D03*
X134858000Y-66040500D03*
X134858000Y-71040500D03*
X136858000Y-66040500D03*
X136858000Y-71040500D03*
X138858000Y-66040500D03*
X138858000Y-71040500D03*
X140858000Y-66040500D03*
X140858000Y-71040500D03*
X142858000Y-66040500D03*
X142858000Y-71040500D03*
D28*
%TO.P,AE1,1,A*%
%TO.N,Net-(AE1-A)*%
X124858000Y-77740500D03*
%TD*%
D13*
%TO.P,TP2,1,1*%
%TO.N,/RXD*%
X162814000Y-74041000D03*
%TD*%
D14*
%TO.P,C2,1*%
%TO.N,Net-(AE1-A)*%
X124828000Y-79248000D03*
%TO.P,C2,2*%
%TO.N,GND*%
X126378000Y-79248000D03*
%TD*%
D29*
%TO.P,U3,1,PB7*%
%TO.N,/PWR_HOLD*%
X162882500Y-81792000D03*
%TO.P,U3,2,PC14*%
%TO.N,Net-(U3-PC14)*%
X162882500Y-81142000D03*
%TO.P,U3,3,PC15*%
%TO.N,Net-(U3-PC15)*%
X162882500Y-80492000D03*
%TO.P,U3,4,VDD*%
%TO.N,+3.3V*%
X162882500Y-79842000D03*
%TO.P,U3,5,VSS*%
%TO.N,GND*%
X162882500Y-79192000D03*
%TO.P,U3,6,PF2*%
%TO.N,/NRST*%
X162882500Y-78542000D03*
%TO.P,U3,7,PA0*%
%TO.N,/RST*%
X162882500Y-77892000D03*
%TO.P,U3,8,PA1*%
%TO.N,/LoRaIRQ*%
X162882500Y-77242000D03*
%TO.P,U3,9,PA2*%
%TO.N,/BatV*%
X162882500Y-76592000D03*
%TO.P,U3,10,PA3*%
%TO.N,/RXD*%
X162882500Y-75942000D03*
%TO.P,U3,11,PA4*%
%TO.N,/NSS*%
X157157500Y-75942000D03*
%TO.P,U3,12,PA5*%
%TO.N,/SCK*%
X157157500Y-76592000D03*
%TO.P,U3,13,PA6*%
%TO.N,/MISO*%
X157157500Y-77242000D03*
%TO.P,U3,14,PA7*%
%TO.N,/MOSI*%
X157157500Y-77892000D03*
%TO.P,U3,15,PA8*%
%TO.N,/TXD*%
X157157500Y-78542000D03*
%TO.P,U3,16,PA9/PA11*%
%TO.N,/Pair*%
X157157500Y-79192000D03*
%TO.P,U3,17,PA10/PA12*%
%TO.N,/Tilt*%
X157157500Y-79842000D03*
%TO.P,U3,18,PA13*%
%TO.N,/SWDIO*%
X157157500Y-80492000D03*
%TO.P,U3,19,PA14*%
%TO.N,/SWCLK*%
X157157500Y-81142000D03*
%TO.P,U3,20,PB6*%
%TO.N,Net-(U3-PB6)*%
X157157500Y-81792000D03*
%TD*%
D30*
%TO.P,D2,1,K*%
%TO.N,/PWR_EN*%
X175768000Y-97154000D03*
%TO.P,D2,2,A*%
%TO.N,Net-(D2-A)*%
X175768000Y-93854000D03*
%TD*%
D22*
%TO.P,R3,1*%
%TO.N,/BatV*%
X162878000Y-102743000D03*
%TO.P,R3,2*%
%TO.N,GND*%
X164528000Y-102743000D03*
%TD*%
D18*
%TO.P,C9,1*%
%TO.N,/PWR_EN*%
X173609000Y-88659000D03*
%TO.P,C9,2*%
%TO.N,GND*%
X173609000Y-87109000D03*
%TD*%
%TO.P,C5,1*%
%TO.N,+3.3V*%
X165481000Y-80277000D03*
%TO.P,C5,2*%
%TO.N,GND*%
X165481000Y-78727000D03*
%TD*%
D31*
%TO.P,L1,1,1*%
%TO.N,Net-(U2-ANT)*%
X124841000Y-82448500D03*
%TO.P,L1,2,2*%
%TO.N,Net-(AE1-A)*%
X124841000Y-80873500D03*
%TD*%
D14*
%TO.P,C13,1*%
%TO.N,Net-(U1-OUT)*%
X154038000Y-108712000D03*
%TO.P,C13,2*%
%TO.N,GND*%
X155588000Y-108712000D03*
%TD*%
D25*
%TO.P,D1,1,K*%
%TO.N,Net-(D1-K)*%
X168402000Y-100077000D03*
%TO.P,D1,2,A*%
%TO.N,/B+*%
X168402000Y-103377000D03*
%TD*%
D22*
%TO.P,R1,1*%
%TO.N,Net-(U1-OUT)*%
X159449000Y-102743000D03*
%TO.P,R1,2*%
%TO.N,/BatV*%
X161099000Y-102743000D03*
%TD*%
D25*
%TO.P,D4,1,K*%
%TO.N,/PWR_EN*%
X164084000Y-85345000D03*
%TO.P,D4,2,A*%
%TO.N,/PWR_HOLD*%
X164084000Y-88645000D03*
%TD*%
D13*
%TO.P,TP6,1,1*%
%TO.N,Net-(U3-PB6)*%
X157099000Y-83820000D03*
%TD*%
D26*
%TO.P,J3,1,Pin_1*%
%TO.N,GND*%
X125800000Y-116500000D03*
X132800000Y-116500000D03*
%TD*%
D32*
%TO.P,R6,1*%
%TO.N,/PWR_EN*%
X175641000Y-88709000D03*
%TO.P,R6,2*%
%TO.N,GND*%
X175641000Y-87059000D03*
%TD*%
D21*
%TO.P,C10,1*%
%TO.N,+3.3V*%
X172466000Y-83172000D03*
%TO.P,C10,2*%
%TO.N,GND*%
X172466000Y-84722000D03*
%TD*%
D13*
%TO.P,TP5,1,1*%
%TO.N,Net-(U3-PC15)*%
X168021000Y-83312000D03*
%TD*%
D18*
%TO.P,C4,1*%
%TO.N,+3.3V*%
X167640000Y-80277000D03*
%TO.P,C4,2*%
%TO.N,GND*%
X167640000Y-78727000D03*
%TD*%
D32*
%TO.P,R2,1*%
%TO.N,+3.3V*%
X172466000Y-81470000D03*
%TO.P,R2,2*%
%TO.N,/NRST*%
X172466000Y-79820000D03*
%TD*%
D18*
%TO.P,C11,1*%
%TO.N,Net-(Q1-B)*%
X171069000Y-91834000D03*
%TO.P,C11,2*%
%TO.N,GND*%
X171069000Y-90284000D03*
%TD*%
D14*
%TO.P,C1,1*%
%TO.N,Net-(U2-ANT)*%
X124828000Y-84074000D03*
%TO.P,C1,2*%
%TO.N,GND*%
X126378000Y-84074000D03*
%TD*%
D33*
%TO.P,TP1,1,1*%
%TO.N,GND*%
X128524000Y-107569000D03*
%TD*%
D16*
%TO.P,U4,1,VIN*%
%TO.N,Net-(U1-OUT)*%
X154498000Y-105785500D03*
%TO.P,U4,2,GND*%
%TO.N,GND*%
X155448000Y-105785500D03*
%TO.P,U4,3,CE*%
%TO.N,/PWR_EN*%
X156398000Y-105785500D03*
%TO.P,U4,4,NC*%
%TO.N,unconnected-(U4-NC-Pad4)*%
X156398000Y-103510500D03*
%TO.P,U4,5,VOUT*%
%TO.N,+3.3V*%
X154498000Y-103510500D03*
%TD*%
D34*
%TO.N,GND*%
X168808880Y-90283765D03*
X123317000Y-81788000D03*
X126365000Y-81788000D03*
X128143000Y-79248000D03*
X133477000Y-79121000D03*
X127889000Y-84074000D03*
X133604000Y-88138000D03*
X166624000Y-78740000D03*
X123317000Y-79248000D03*
X149987000Y-110871000D03*
X165608000Y-102743000D03*
X143764000Y-79121000D03*
X148463000Y-86106000D03*
X123063000Y-86106000D03*
X128143000Y-88011000D03*
X139192000Y-79121000D03*
X143383000Y-86106000D03*
X148590000Y-100071347D03*
X147447000Y-78994000D03*
X145923000Y-84328000D03*
X127508000Y-90932000D03*
X125476000Y-90932000D03*
X168148000Y-95631000D03*
X143129000Y-100076000D03*
X156464000Y-101854000D03*
X155448000Y-107315000D03*
%TO.N,+3.3V*%
X168897000Y-80277000D03*
X170815000Y-98298000D03*
%TO.N,/Tilt*%
X161036000Y-90170000D03*
%TO.N,/PWR_EN*%
X157099000Y-107823000D03*
X157099000Y-110871000D03*
%TO.N,/MOSI*%
X151130000Y-96012000D03*
X148209000Y-96012000D03*
%TO.N,/SWDIO*%
X158877000Y-73660000D03*
X158877000Y-80010000D03*
%TO.N,/SWCLK*%
X159893000Y-72771000D03*
X159270920Y-80929147D03*
%TO.N,Net-(D1-K)*%
X169455000Y-97192000D03*
X169545000Y-99568000D03*
%TD*%
D35*
%TO.N,GND*%
X166624000Y-78740000D02*
X166637000Y-78727000D01*
X175120000Y-84976000D02*
X175514000Y-84582000D01*
X175591000Y-87109000D02*
X175641000Y-87059000D01*
X155448000Y-105785500D02*
X155321000Y-105658500D01*
X165481000Y-78727000D02*
X166611000Y-78727000D01*
X170561000Y-84722000D02*
X172466000Y-84722000D01*
X155448000Y-108572000D02*
X155588000Y-108712000D01*
X165016000Y-79192000D02*
X165481000Y-78727000D01*
X172466000Y-84722000D02*
X175374000Y-84722000D01*
X175641000Y-87059000D02*
X175641000Y-84709000D01*
X164528000Y-102743000D02*
X165608000Y-102743000D01*
X166611000Y-78727000D02*
X166624000Y-78740000D01*
X155321000Y-102997000D02*
X156464000Y-101854000D01*
X156464000Y-101854000D02*
X156350000Y-101740000D01*
X173609000Y-87109000D02*
X175591000Y-87109000D01*
X168668645Y-90424000D02*
X168808880Y-90283765D01*
X162882500Y-79192000D02*
X165016000Y-79192000D01*
X155321000Y-105658500D02*
X155321000Y-102997000D01*
X175641000Y-84709000D02*
X175514000Y-84582000D01*
X155448000Y-107315000D02*
X155448000Y-108572000D01*
X156350000Y-101740000D02*
X156350000Y-100457000D01*
X170959500Y-95631000D02*
X168148000Y-95631000D01*
X171020500Y-95692000D02*
X170959500Y-95631000D01*
X167449000Y-90424000D02*
X168668645Y-90424000D01*
X171069000Y-90284000D02*
X171068765Y-90283765D01*
X166637000Y-78727000D02*
X167640000Y-78727000D01*
X171068765Y-90283765D02*
X168808880Y-90283765D01*
X149987000Y-109468500D02*
X149987000Y-110871000D01*
X155448000Y-107315000D02*
X155448000Y-105785500D01*
X175374000Y-84722000D02*
X175514000Y-84582000D01*
%TO.N,/Pair*%
X160528000Y-83566000D02*
X160109000Y-83985000D01*
X167994000Y-92619000D02*
X168059000Y-92619000D01*
X167640000Y-88645000D02*
X167578000Y-88645000D01*
X159964000Y-79192000D02*
X160528000Y-79756000D01*
X165799000Y-90424000D02*
X167994000Y-92619000D01*
X157157500Y-79192000D02*
X159964000Y-79192000D01*
X160528000Y-79756000D02*
X160528000Y-83566000D01*
X168059000Y-92619000D02*
X168023000Y-92583000D01*
X160145000Y-92583000D02*
X160109000Y-92619000D01*
X167578000Y-88645000D02*
X165799000Y-90424000D01*
X160109000Y-83985000D02*
X160109000Y-92619000D01*
X168023000Y-92583000D02*
X160145000Y-92583000D01*
D36*
%TO.N,+3.3V*%
X127508000Y-99441000D02*
X131064000Y-102997000D01*
X131064000Y-102997000D02*
X152260000Y-102997000D01*
D35*
X165046000Y-79842000D02*
X165481000Y-80277000D01*
X127508000Y-94120000D02*
X130876000Y-94120000D01*
X172466000Y-83172000D02*
X172466000Y-81470000D01*
X167640000Y-80277000D02*
X168897000Y-80277000D01*
X174942000Y-81470000D02*
X175514000Y-82042000D01*
D36*
X155448000Y-98679000D02*
X154800000Y-99327000D01*
X170434000Y-98679000D02*
X155448000Y-98679000D01*
D35*
X165481000Y-80277000D02*
X167640000Y-80277000D01*
D36*
X154292000Y-100965000D02*
X154800000Y-100457000D01*
D35*
X172466000Y-81470000D02*
X174942000Y-81470000D01*
X125476000Y-94120000D02*
X127508000Y-94120000D01*
D36*
X154292000Y-103304500D02*
X154292000Y-100965000D01*
X170815000Y-98298000D02*
X170434000Y-98679000D01*
X152260000Y-102997000D02*
X154800000Y-100457000D01*
D35*
X162882500Y-79842000D02*
X165046000Y-79842000D01*
D36*
X154800000Y-99327000D02*
X154800000Y-100457000D01*
X154498000Y-103510500D02*
X154292000Y-103304500D01*
X127508000Y-94120000D02*
X127508000Y-99441000D01*
D35*
X130876000Y-94120000D02*
X130905000Y-94091000D01*
%TO.N,/Tilt*%
X157157500Y-79842000D02*
X156420001Y-79842000D01*
X156420001Y-79842000D02*
X154940000Y-81322001D01*
X154940000Y-90937000D02*
X156205000Y-92202000D01*
X166116000Y-87503000D02*
X165862000Y-87757000D01*
X175768000Y-90234000D02*
X172974000Y-90234000D01*
X154940000Y-81322001D02*
X154940000Y-90937000D01*
X172974000Y-90234000D02*
X170243000Y-87503000D01*
X170243000Y-87503000D02*
X166116000Y-87503000D01*
X164719000Y-90170000D02*
X161036000Y-90170000D01*
X165862000Y-87757000D02*
X165862000Y-89027000D01*
X165862000Y-89027000D02*
X164719000Y-90170000D01*
D36*
%TO.N,/B+*%
X165700000Y-116500000D02*
X161976000Y-112776000D01*
X172614000Y-116586000D02*
X172700000Y-116500000D01*
X165786000Y-116586000D02*
X172614000Y-116586000D01*
X149037000Y-111318000D02*
X149037000Y-109468500D01*
D35*
X172700000Y-112883000D02*
X168402000Y-108585000D01*
X172700000Y-116500000D02*
X172700000Y-112883000D01*
D36*
X150495000Y-112776000D02*
X149037000Y-111318000D01*
D35*
X168402000Y-108585000D02*
X168402000Y-103377000D01*
D36*
X161976000Y-112776000D02*
X150495000Y-112776000D01*
X165700000Y-116500000D02*
X165786000Y-116586000D01*
D35*
X165614000Y-116586000D02*
X165700000Y-116500000D01*
%TO.N,/PWR_EN*%
X173609000Y-88659000D02*
X172479000Y-88659000D01*
X151638000Y-110871000D02*
X150937000Y-110170000D01*
X150937000Y-110170000D02*
X150937000Y-109468500D01*
X164084000Y-85345000D02*
X167640000Y-85345000D01*
X157099000Y-107823000D02*
X157099000Y-107315000D01*
X175641000Y-88709000D02*
X176720000Y-88709000D01*
X173659000Y-88709000D02*
X173609000Y-88659000D01*
X156398000Y-106614000D02*
X156398000Y-105785500D01*
X157480000Y-101727000D02*
X157480000Y-104703500D01*
X175641000Y-88709000D02*
X173659000Y-88709000D01*
X172479000Y-88659000D02*
X170180000Y-86360000D01*
X157099000Y-110871000D02*
X151638000Y-110871000D01*
X176720000Y-88709000D02*
X177673000Y-89662000D01*
X173481604Y-97154000D02*
X169289604Y-101346000D01*
X177673000Y-89662000D02*
X177673000Y-96393000D01*
X177673000Y-96393000D02*
X176912000Y-97154000D01*
X169165000Y-85345000D02*
X170180000Y-86360000D01*
X167640000Y-85345000D02*
X169165000Y-85345000D01*
X176912000Y-97154000D02*
X175768000Y-97154000D01*
X169289604Y-101346000D02*
X157861000Y-101346000D01*
X175768000Y-97154000D02*
X173481604Y-97154000D01*
X157099000Y-107315000D02*
X156398000Y-106614000D01*
X157480000Y-104703500D02*
X156398000Y-105785500D01*
X157861000Y-101346000D02*
X157480000Y-101727000D01*
%TO.N,/PWR_HOLD*%
X164084000Y-88645000D02*
X162882500Y-87443500D01*
X162882500Y-87443500D02*
X162882500Y-81792000D01*
%TO.N,/RST*%
X160967000Y-77148396D02*
X161710604Y-77892000D01*
X149272000Y-80217000D02*
X154432000Y-75057000D01*
X154432000Y-75057000D02*
X160020000Y-75057000D01*
X161710604Y-77892000D02*
X162882500Y-77892000D01*
X160020000Y-75057000D02*
X160967000Y-76004000D01*
X145955000Y-90091000D02*
X147780000Y-90091000D01*
X147780000Y-90091000D02*
X149272000Y-88599000D01*
X160967000Y-76004000D02*
X160967000Y-77148396D01*
X149272000Y-88599000D02*
X149272000Y-80217000D01*
%TO.N,/BatV*%
X178308000Y-79375000D02*
X178308000Y-97155000D01*
X162882500Y-76592000D02*
X172350000Y-76592000D01*
X177165000Y-78232000D02*
X178308000Y-79375000D01*
X173343000Y-97929000D02*
X169418000Y-101854000D01*
X172350000Y-76592000D02*
X173990000Y-78232000D01*
X177534000Y-97929000D02*
X173343000Y-97929000D01*
X173990000Y-78232000D02*
X177165000Y-78232000D01*
X161099000Y-102743000D02*
X162878000Y-102743000D01*
X178308000Y-97155000D02*
X177534000Y-97929000D01*
X169418000Y-101854000D02*
X163767000Y-101854000D01*
X163767000Y-101854000D02*
X162878000Y-102743000D01*
%TO.N,/MISO*%
X150622000Y-81383273D02*
X150622000Y-95250000D01*
X147781000Y-98091000D02*
X145955000Y-98091000D01*
X157157500Y-77242000D02*
X154763273Y-77242000D01*
X150622000Y-95250000D02*
X147781000Y-98091000D01*
X154763273Y-77242000D02*
X150622000Y-81383273D01*
%TO.N,/SCK*%
X150172000Y-92525000D02*
X148606000Y-94091000D01*
X148606000Y-94091000D02*
X145955000Y-94091000D01*
X154548000Y-76592000D02*
X150172000Y-80968000D01*
X157157500Y-76592000D02*
X154548000Y-76592000D01*
X150172000Y-80968000D02*
X150172000Y-92525000D01*
%TO.N,/MOSI*%
X155129273Y-77892000D02*
X151130000Y-81891273D01*
X151130000Y-81891273D02*
X151130000Y-96012000D01*
X148130000Y-96091000D02*
X148209000Y-96012000D01*
X157157500Y-77892000D02*
X155129273Y-77892000D01*
X145955000Y-96091000D02*
X148130000Y-96091000D01*
%TO.N,/NSS*%
X154436000Y-75942000D02*
X149722000Y-80656000D01*
X157157500Y-75942000D02*
X154436000Y-75942000D01*
X149722000Y-90213000D02*
X147844000Y-92091000D01*
X147844000Y-92091000D02*
X145955000Y-92091000D01*
X149722000Y-80656000D02*
X149722000Y-90213000D01*
%TO.N,/LoRaIRQ*%
X137922000Y-84201000D02*
X134620000Y-87503000D01*
X161697000Y-77242000D02*
X161417000Y-76962000D01*
X144272000Y-84201000D02*
X137922000Y-84201000D01*
X134620000Y-87503000D02*
X134620000Y-94361000D01*
X161417000Y-75692000D02*
X160274000Y-74549000D01*
X132890000Y-96091000D02*
X130905000Y-96091000D01*
X160274000Y-74549000D02*
X153933305Y-74549000D01*
X144408305Y-84074000D02*
X144399000Y-84074000D01*
X153933305Y-74549000D02*
X144408305Y-84074000D01*
X134620000Y-94361000D02*
X132890000Y-96091000D01*
X162882500Y-77242000D02*
X161697000Y-77242000D01*
X144399000Y-84074000D02*
X144272000Y-84201000D01*
X161417000Y-76962000D02*
X161417000Y-75692000D01*
%TO.N,/SWDIO*%
X173736000Y-76962000D02*
X175514000Y-76962000D01*
X157157500Y-80492000D02*
X158395000Y-80492000D01*
X169418000Y-72644000D02*
X173736000Y-76962000D01*
X162052000Y-72644000D02*
X169418000Y-72644000D01*
X158395000Y-80492000D02*
X158877000Y-80010000D01*
X161036000Y-73660000D02*
X162052000Y-72644000D01*
X158877000Y-73660000D02*
X161036000Y-73660000D01*
%TO.N,/SWCLK*%
X159058067Y-81142000D02*
X159270920Y-80929147D01*
X173011000Y-71919000D02*
X175514000Y-74422000D01*
X160745000Y-71919000D02*
X173011000Y-71919000D01*
X157157500Y-81142000D02*
X159058067Y-81142000D01*
X159893000Y-72771000D02*
X160745000Y-71919000D01*
D37*
%TO.N,Net-(U2-ANT)*%
X124841000Y-85344000D02*
X124841000Y-84314000D01*
D38*
X125618000Y-86091000D02*
X125603000Y-86106000D01*
D37*
X124841000Y-83934000D02*
X124841000Y-82601500D01*
X130905000Y-86091000D02*
X125618000Y-86091000D01*
X125603000Y-86106000D02*
X124841000Y-85344000D01*
D38*
%TO.N,Net-(AE1-A)*%
X124714000Y-80873500D02*
X124841000Y-80746500D01*
X124841000Y-79489000D02*
X124714000Y-79362000D01*
D37*
X124841000Y-80746500D02*
X124841000Y-79489000D01*
X124828000Y-79248000D02*
X124828000Y-77000000D01*
D35*
%TO.N,/RXD*%
X162882500Y-75942000D02*
X162882500Y-74109500D01*
X162882500Y-74109500D02*
X162814000Y-74041000D01*
%TO.N,/TXD*%
X155646000Y-78542000D02*
X157157500Y-78542000D01*
X154686000Y-79502000D02*
X155646000Y-78542000D01*
%TO.N,Net-(U3-PC14)*%
X162882500Y-81142000D02*
X163946000Y-81142000D01*
X163946000Y-81142000D02*
X165735000Y-82931000D01*
X165735000Y-82931000D02*
X165735000Y-83312000D01*
%TO.N,Net-(U3-PC15)*%
X164681000Y-80692000D02*
X164681000Y-80736052D01*
X162882500Y-80492000D02*
X164481000Y-80492000D01*
X165862000Y-81153000D02*
X168021000Y-83312000D01*
X164681000Y-80736052D02*
X165097948Y-81153000D01*
X165097948Y-81153000D02*
X165862000Y-81153000D01*
X164481000Y-80492000D02*
X164681000Y-80692000D01*
%TO.N,Net-(U3-PB6)*%
X157157500Y-83761500D02*
X157099000Y-83820000D01*
X157157500Y-81792000D02*
X157157500Y-83761500D01*
%TO.N,/NRST*%
X170561000Y-80772000D02*
X171513000Y-79820000D01*
X170561000Y-83172000D02*
X170561000Y-80772000D01*
X163774000Y-78542000D02*
X164364000Y-77952000D01*
X171513000Y-79820000D02*
X172466000Y-79820000D01*
X164364000Y-77952000D02*
X171805000Y-77952000D01*
X172466000Y-78613000D02*
X172466000Y-79820000D01*
X162882500Y-78542000D02*
X163774000Y-78542000D01*
X171805000Y-77952000D02*
X172466000Y-78613000D01*
X172466000Y-79820000D02*
X175196000Y-79820000D01*
X175196000Y-79820000D02*
X175514000Y-79502000D01*
%TO.N,Net-(D2-A)*%
X173783500Y-93854000D02*
X175768000Y-93854000D01*
X175768000Y-91884000D02*
X175768000Y-93854000D01*
X172895500Y-94742000D02*
X173783500Y-93854000D01*
%TO.N,Net-(Q1-B)*%
X171069000Y-91834000D02*
X172924000Y-91834000D01*
X171020500Y-93792000D02*
X171020500Y-91882500D01*
X171020500Y-91882500D02*
X171069000Y-91834000D01*
X172924000Y-91834000D02*
X172974000Y-91884000D01*
%TO.N,Net-(U1-OUT)*%
X154432000Y-109982000D02*
X157099000Y-109982000D01*
D36*
X154498000Y-105785500D02*
X154498000Y-106741000D01*
X149606000Y-105791000D02*
X154492500Y-105791000D01*
D35*
X154038000Y-109588000D02*
X154432000Y-109982000D01*
X158369000Y-108712000D02*
X158369000Y-103124000D01*
X157099000Y-109982000D02*
X158369000Y-108712000D01*
D36*
X154051000Y-108699000D02*
X154038000Y-108712000D01*
X154051000Y-107188000D02*
X154051000Y-108699000D01*
X154492500Y-105791000D02*
X154498000Y-105785500D01*
X149037000Y-106360000D02*
X149606000Y-105791000D01*
D35*
X154038000Y-108712000D02*
X154038000Y-109588000D01*
D36*
X149037000Y-107193500D02*
X149037000Y-106360000D01*
D35*
X158369000Y-103124000D02*
X158750000Y-102743000D01*
X158750000Y-102743000D02*
X159449000Y-102743000D01*
D36*
X154498000Y-106741000D02*
X154051000Y-107188000D01*
D35*
X154038000Y-108712000D02*
X153784000Y-108966000D01*
%TO.N,Net-(D1-K)*%
X153670000Y-93599000D02*
X153665000Y-93594000D01*
X169382000Y-97119000D02*
X169455000Y-97192000D01*
X168059000Y-97119000D02*
X169382000Y-97119000D01*
X168402000Y-100077000D02*
X169163000Y-100077000D01*
X169545000Y-99831305D02*
X169545000Y-99568000D01*
X153665000Y-93594000D02*
X153665000Y-92202000D01*
X154777000Y-97119000D02*
X153670000Y-96012000D01*
X153456000Y-92411000D02*
X153665000Y-92202000D01*
X168059000Y-97119000D02*
X154777000Y-97119000D01*
X169163000Y-100077000D02*
X169299305Y-100077000D01*
X153670000Y-96012000D02*
X153670000Y-93599000D01*
X169299305Y-100077000D02*
X169545000Y-99831305D01*
%TD*%
%TA.AperFunction,Conductor*%
%TO.N,GND*%
G36*
X148815834Y-80300021D02*
G01*
X148871767Y-80341893D01*
X148896184Y-80407357D01*
X148896500Y-80416203D01*
X148896500Y-88392099D01*
X148876815Y-88459138D01*
X148860181Y-88479780D01*
X147811415Y-89528546D01*
X147750092Y-89562031D01*
X147680400Y-89557047D01*
X147624467Y-89515175D01*
X147609173Y-89488318D01*
X147608857Y-89487558D01*
X147608647Y-89487049D01*
X147517602Y-89368398D01*
X147398951Y-89277353D01*
X147398948Y-89277352D01*
X147398946Y-89277350D01*
X147260781Y-89220121D01*
X147260778Y-89220120D01*
X147213825Y-89213938D01*
X147149929Y-89185670D01*
X147111459Y-89127345D01*
X147110629Y-89057480D01*
X147147703Y-88998257D01*
X147210909Y-88968479D01*
X147213747Y-88968071D01*
X147260778Y-88961880D01*
X147398946Y-88904649D01*
X147398947Y-88904649D01*
X147398947Y-88904648D01*
X147398951Y-88904647D01*
X147517602Y-88813602D01*
X147608647Y-88694951D01*
X147665880Y-88556778D01*
X147680500Y-88445727D01*
X147680499Y-87736274D01*
X147680499Y-87736272D01*
X147680499Y-87736270D01*
X147665882Y-87625230D01*
X147665880Y-87625223D01*
X147665880Y-87625222D01*
X147619527Y-87513316D01*
X147608649Y-87487053D01*
X147608649Y-87487052D01*
X147608647Y-87487049D01*
X147517602Y-87368398D01*
X147517600Y-87368397D01*
X147517600Y-87368396D01*
X147480657Y-87340049D01*
X147439454Y-87283622D01*
X147435299Y-87213876D01*
X147469511Y-87152955D01*
X147490171Y-87136679D01*
X147625428Y-87051691D01*
X147755691Y-86921428D01*
X147853703Y-86765443D01*
X147914547Y-86591559D01*
X147914548Y-86591553D01*
X147929999Y-86454418D01*
X147930000Y-86454414D01*
X147930000Y-86341000D01*
X143980000Y-86341000D01*
X143980000Y-86454418D01*
X143995451Y-86591553D01*
X143995452Y-86591559D01*
X144056296Y-86765443D01*
X144154308Y-86921428D01*
X144284571Y-87051691D01*
X144419828Y-87136679D01*
X144466119Y-87189014D01*
X144476767Y-87258067D01*
X144448392Y-87321916D01*
X144429343Y-87340048D01*
X144392400Y-87368395D01*
X144301350Y-87487052D01*
X144301350Y-87487053D01*
X144244121Y-87625218D01*
X144244119Y-87625223D01*
X144229500Y-87736272D01*
X144229500Y-88445729D01*
X144244117Y-88556769D01*
X144244121Y-88556781D01*
X144301350Y-88694946D01*
X144301350Y-88694947D01*
X144301352Y-88694950D01*
X144301353Y-88694951D01*
X144392398Y-88813602D01*
X144511049Y-88904647D01*
X144511052Y-88904648D01*
X144511053Y-88904649D01*
X144551562Y-88921428D01*
X144649222Y-88961880D01*
X144696157Y-88968059D01*
X144696172Y-88968061D01*
X144760068Y-88996328D01*
X144798539Y-89054652D01*
X144799370Y-89124517D01*
X144762298Y-89183740D01*
X144699092Y-89213519D01*
X144696170Y-89213939D01*
X144649230Y-89220118D01*
X144649218Y-89220121D01*
X144511053Y-89277350D01*
X144511052Y-89277350D01*
X144392398Y-89368398D01*
X144301350Y-89487052D01*
X144301350Y-89487053D01*
X144244121Y-89625218D01*
X144244119Y-89625223D01*
X144229500Y-89736272D01*
X144229500Y-90445729D01*
X144244117Y-90556769D01*
X144244121Y-90556781D01*
X144301350Y-90694946D01*
X144301350Y-90694947D01*
X144301352Y-90694950D01*
X144301353Y-90694951D01*
X144392398Y-90813602D01*
X144511049Y-90904647D01*
X144511052Y-90904648D01*
X144511053Y-90904649D01*
X144580135Y-90933263D01*
X144649222Y-90961880D01*
X144696157Y-90968059D01*
X144696172Y-90968061D01*
X144760068Y-90996328D01*
X144798539Y-91054652D01*
X144799370Y-91124517D01*
X144762298Y-91183740D01*
X144699092Y-91213519D01*
X144696170Y-91213939D01*
X144649230Y-91220118D01*
X144649218Y-91220121D01*
X144511053Y-91277350D01*
X144511052Y-91277350D01*
X144392398Y-91368398D01*
X144301350Y-91487052D01*
X144301350Y-91487053D01*
X144244121Y-91625218D01*
X144244119Y-91625223D01*
X144229500Y-91736272D01*
X144229500Y-92445729D01*
X144244117Y-92556769D01*
X144244121Y-92556781D01*
X144301350Y-92694946D01*
X144301350Y-92694947D01*
X144301352Y-92694950D01*
X144301353Y-92694951D01*
X144392398Y-92813602D01*
X144511049Y-92904647D01*
X144511052Y-92904648D01*
X144511053Y-92904649D01*
X144580135Y-92933263D01*
X144649222Y-92961880D01*
X144696157Y-92968059D01*
X144696172Y-92968061D01*
X144760068Y-92996328D01*
X144798539Y-93054652D01*
X144799370Y-93124517D01*
X144762298Y-93183740D01*
X144699092Y-93213519D01*
X144696170Y-93213939D01*
X144649230Y-93220118D01*
X144649218Y-93220121D01*
X144511053Y-93277350D01*
X144511052Y-93277350D01*
X144392398Y-93368398D01*
X144301350Y-93487052D01*
X144301350Y-93487053D01*
X144244121Y-93625218D01*
X144244119Y-93625223D01*
X144229500Y-93736272D01*
X144229500Y-94445729D01*
X144244117Y-94556769D01*
X144244121Y-94556781D01*
X144301350Y-94694946D01*
X144301350Y-94694947D01*
X144301352Y-94694950D01*
X144301353Y-94694951D01*
X144392398Y-94813602D01*
X144511049Y-94904647D01*
X144511052Y-94904648D01*
X144511053Y-94904649D01*
X144580135Y-94933263D01*
X144649222Y-94961880D01*
X144696157Y-94968059D01*
X144696172Y-94968061D01*
X144760068Y-94996328D01*
X144798539Y-95054652D01*
X144799370Y-95124517D01*
X144762298Y-95183740D01*
X144699092Y-95213519D01*
X144696170Y-95213939D01*
X144649230Y-95220118D01*
X144649218Y-95220121D01*
X144511053Y-95277350D01*
X144511052Y-95277350D01*
X144392398Y-95368398D01*
X144301350Y-95487052D01*
X144301350Y-95487053D01*
X144244121Y-95625218D01*
X144244119Y-95625223D01*
X144229500Y-95736272D01*
X144229500Y-96445729D01*
X144244117Y-96556769D01*
X144244121Y-96556781D01*
X144301350Y-96694946D01*
X144301350Y-96694947D01*
X144301352Y-96694950D01*
X144301353Y-96694951D01*
X144392398Y-96813602D01*
X144511049Y-96904647D01*
X144511052Y-96904648D01*
X144511053Y-96904649D01*
X144580135Y-96933263D01*
X144649222Y-96961880D01*
X144696157Y-96968059D01*
X144696172Y-96968061D01*
X144760068Y-96996328D01*
X144798539Y-97054652D01*
X144799370Y-97124517D01*
X144762298Y-97183740D01*
X144699092Y-97213519D01*
X144696170Y-97213939D01*
X144649230Y-97220118D01*
X144649218Y-97220121D01*
X144511053Y-97277350D01*
X144511052Y-97277350D01*
X144392398Y-97368398D01*
X144301350Y-97487052D01*
X144301350Y-97487053D01*
X144244121Y-97625218D01*
X144244119Y-97625223D01*
X144229500Y-97736272D01*
X144229500Y-98445729D01*
X144244117Y-98556769D01*
X144244121Y-98556781D01*
X144301350Y-98694946D01*
X144301350Y-98694947D01*
X144392399Y-98813603D01*
X144405900Y-98823962D01*
X144429342Y-98841950D01*
X144470545Y-98898377D01*
X144474700Y-98968123D01*
X144440488Y-99029044D01*
X144419829Y-99045319D01*
X144284573Y-99130306D01*
X144154308Y-99260571D01*
X144056296Y-99416556D01*
X143995452Y-99590440D01*
X143995451Y-99590446D01*
X143980000Y-99727581D01*
X143980000Y-99841000D01*
X147930000Y-99841000D01*
X147930000Y-99727585D01*
X147929999Y-99727581D01*
X147914548Y-99590446D01*
X147914547Y-99590440D01*
X147853703Y-99416556D01*
X147755691Y-99260571D01*
X147625428Y-99130308D01*
X147490171Y-99045320D01*
X147443880Y-98992985D01*
X147433232Y-98923931D01*
X147461607Y-98860083D01*
X147480655Y-98841952D01*
X147517602Y-98813602D01*
X147608647Y-98694951D01*
X147665880Y-98556778D01*
X147665879Y-98556778D01*
X147668990Y-98549270D01*
X147671549Y-98550330D01*
X147700869Y-98502213D01*
X147763712Y-98471675D01*
X147768942Y-98470909D01*
X147785935Y-98468790D01*
X147796678Y-98467452D01*
X147812014Y-98466500D01*
X147812112Y-98466500D01*
X147812114Y-98466500D01*
X147832643Y-98463073D01*
X147837673Y-98462341D01*
X147889626Y-98455866D01*
X147889628Y-98455864D01*
X147897141Y-98453628D01*
X147904606Y-98451066D01*
X147904606Y-98451065D01*
X147904610Y-98451065D01*
X147950636Y-98426157D01*
X147955193Y-98423812D01*
X147970102Y-98416522D01*
X148002211Y-98400826D01*
X148002213Y-98400823D01*
X148008594Y-98396268D01*
X148014820Y-98391421D01*
X148014826Y-98391419D01*
X148050293Y-98352890D01*
X148053795Y-98349240D01*
X150286979Y-96116056D01*
X150348300Y-96082573D01*
X150417992Y-96087557D01*
X150473925Y-96129429D01*
X150489540Y-96162397D01*
X150491103Y-96161805D01*
X150509113Y-96209293D01*
X150549780Y-96316523D01*
X150572346Y-96349216D01*
X150639517Y-96446531D01*
X150729305Y-96526074D01*
X150757760Y-96551283D01*
X150757764Y-96551285D01*
X150757767Y-96551287D01*
X150809626Y-96578505D01*
X150859838Y-96627089D01*
X150876000Y-96688301D01*
X150876000Y-102366496D01*
X150856315Y-102433535D01*
X150803511Y-102479290D01*
X150753506Y-102490487D01*
X150259241Y-102496491D01*
X150257735Y-102496500D01*
X131322676Y-102496500D01*
X131255637Y-102476815D01*
X131234995Y-102460181D01*
X129962994Y-101188180D01*
X129929509Y-101126857D01*
X129934493Y-101057165D01*
X129976365Y-101001232D01*
X130041829Y-100976815D01*
X130050675Y-100976499D01*
X132099729Y-100976499D01*
X132210769Y-100961882D01*
X132210773Y-100961880D01*
X132210778Y-100961880D01*
X132348946Y-100904649D01*
X132348947Y-100904649D01*
X132348947Y-100904648D01*
X132348951Y-100904647D01*
X132467602Y-100813602D01*
X132558647Y-100694951D01*
X132615880Y-100556778D01*
X132630500Y-100445727D01*
X132630500Y-100341000D01*
X143980000Y-100341000D01*
X143980000Y-100454418D01*
X143995451Y-100591553D01*
X143995452Y-100591559D01*
X144056296Y-100765443D01*
X144154308Y-100921428D01*
X144284571Y-101051691D01*
X144440556Y-101149703D01*
X144614440Y-101210547D01*
X144614446Y-101210548D01*
X144751581Y-101225999D01*
X144751585Y-101226000D01*
X145705000Y-101226000D01*
X145705000Y-100341000D01*
X146205000Y-100341000D01*
X146205000Y-101226000D01*
X147158415Y-101226000D01*
X147158418Y-101225999D01*
X147295553Y-101210548D01*
X147295559Y-101210547D01*
X147469443Y-101149703D01*
X147625428Y-101051691D01*
X147755691Y-100921428D01*
X147853703Y-100765443D01*
X147914547Y-100591559D01*
X147914548Y-100591553D01*
X147929999Y-100454418D01*
X147930000Y-100454414D01*
X147930000Y-100341000D01*
X146205000Y-100341000D01*
X145705000Y-100341000D01*
X143980000Y-100341000D01*
X132630500Y-100341000D01*
X132630499Y-99736274D01*
X132630499Y-99736273D01*
X132630499Y-99736270D01*
X132615882Y-99625230D01*
X132615880Y-99625223D01*
X132615880Y-99625222D01*
X132578372Y-99534670D01*
X132558649Y-99487053D01*
X132558649Y-99487052D01*
X132558647Y-99487049D01*
X132467602Y-99368398D01*
X132348951Y-99277353D01*
X132348948Y-99277352D01*
X132348946Y-99277350D01*
X132210781Y-99220121D01*
X132210778Y-99220120D01*
X132163825Y-99213938D01*
X132099929Y-99185670D01*
X132061459Y-99127345D01*
X132060629Y-99057480D01*
X132097703Y-98998257D01*
X132160909Y-98968479D01*
X132163747Y-98968071D01*
X132210778Y-98961880D01*
X132348946Y-98904649D01*
X132348947Y-98904649D01*
X132348947Y-98904648D01*
X132348951Y-98904647D01*
X132467602Y-98813602D01*
X132558647Y-98694951D01*
X132615880Y-98556778D01*
X132630500Y-98445727D01*
X132630499Y-97736274D01*
X132630499Y-97736272D01*
X132630499Y-97736270D01*
X132615882Y-97625230D01*
X132615880Y-97625223D01*
X132615880Y-97625222D01*
X132587263Y-97556135D01*
X132558649Y-97487053D01*
X132558649Y-97487052D01*
X132558647Y-97487049D01*
X132467602Y-97368398D01*
X132348951Y-97277353D01*
X132348948Y-97277352D01*
X132348946Y-97277350D01*
X132210781Y-97220121D01*
X132210778Y-97220120D01*
X132163825Y-97213938D01*
X132099929Y-97185670D01*
X132061459Y-97127345D01*
X132060629Y-97057480D01*
X132097703Y-96998257D01*
X132160909Y-96968479D01*
X132163747Y-96968071D01*
X132210778Y-96961880D01*
X132348946Y-96904649D01*
X132348947Y-96904649D01*
X132348947Y-96904648D01*
X132348951Y-96904647D01*
X132467602Y-96813602D01*
X132558647Y-96694951D01*
X132615880Y-96556778D01*
X132615879Y-96556778D01*
X132618990Y-96549270D01*
X132620605Y-96549938D01*
X132651806Y-96498748D01*
X132714652Y-96468217D01*
X132735218Y-96466500D01*
X132838196Y-96466500D01*
X132863641Y-96469139D01*
X132866724Y-96469785D01*
X132874268Y-96471367D01*
X132905676Y-96467451D01*
X132921014Y-96466500D01*
X132921112Y-96466500D01*
X132921114Y-96466500D01*
X132941643Y-96463073D01*
X132946673Y-96462341D01*
X132998626Y-96455866D01*
X132998628Y-96455864D01*
X133006141Y-96453628D01*
X133013606Y-96451066D01*
X133013606Y-96451065D01*
X133013610Y-96451065D01*
X133059636Y-96426157D01*
X133064193Y-96423812D01*
X133079102Y-96416522D01*
X133111211Y-96400826D01*
X133111213Y-96400823D01*
X133117594Y-96396268D01*
X133123820Y-96391421D01*
X133123826Y-96391419D01*
X133159293Y-96352890D01*
X133162795Y-96349240D01*
X134848889Y-94663146D01*
X134868746Y-94647022D01*
X134877836Y-94641084D01*
X134897271Y-94616112D01*
X134907456Y-94604581D01*
X134907456Y-94604580D01*
X134907519Y-94604518D01*
X134919630Y-94587553D01*
X134922627Y-94583534D01*
X134954809Y-94542189D01*
X134954811Y-94542181D01*
X134958547Y-94535278D01*
X134962006Y-94528203D01*
X134962010Y-94528199D01*
X134976942Y-94478041D01*
X134978486Y-94473218D01*
X134995500Y-94423660D01*
X134995500Y-94423658D01*
X134995501Y-94423656D01*
X134996791Y-94415924D01*
X134997768Y-94408086D01*
X134995606Y-94355807D01*
X134995500Y-94350683D01*
X134995500Y-87709899D01*
X135015185Y-87642860D01*
X135031819Y-87622218D01*
X136813037Y-85841000D01*
X143980000Y-85841000D01*
X145705000Y-85841000D01*
X145705000Y-84956000D01*
X146205000Y-84956000D01*
X146205000Y-85841000D01*
X147930000Y-85841000D01*
X147930000Y-85727585D01*
X147929999Y-85727581D01*
X147914548Y-85590446D01*
X147914547Y-85590440D01*
X147853703Y-85416556D01*
X147755691Y-85260571D01*
X147625428Y-85130308D01*
X147469443Y-85032296D01*
X147295559Y-84971452D01*
X147295553Y-84971451D01*
X147158418Y-84956000D01*
X146205000Y-84956000D01*
X145705000Y-84956000D01*
X144751581Y-84956000D01*
X144614446Y-84971451D01*
X144614440Y-84971452D01*
X144440556Y-85032296D01*
X144284571Y-85130308D01*
X144154308Y-85260571D01*
X144056296Y-85416556D01*
X143995452Y-85590440D01*
X143995451Y-85590446D01*
X143980000Y-85727581D01*
X143980000Y-85841000D01*
X136813037Y-85841000D01*
X138041218Y-84612819D01*
X138102541Y-84579334D01*
X138128899Y-84576500D01*
X144220196Y-84576500D01*
X144245641Y-84579139D01*
X144248724Y-84579785D01*
X144256268Y-84581367D01*
X144287676Y-84577451D01*
X144303014Y-84576500D01*
X144303112Y-84576500D01*
X144303114Y-84576500D01*
X144323643Y-84573073D01*
X144328673Y-84572341D01*
X144380626Y-84565866D01*
X144380628Y-84565864D01*
X144388141Y-84563628D01*
X144395606Y-84561066D01*
X144395606Y-84561065D01*
X144395610Y-84561065D01*
X144441636Y-84536157D01*
X144446193Y-84533812D01*
X144491480Y-84511672D01*
X144493211Y-84510826D01*
X144493213Y-84510823D01*
X144499594Y-84506268D01*
X144505820Y-84501421D01*
X144505826Y-84501419D01*
X144541293Y-84462890D01*
X144544795Y-84459240D01*
X144596679Y-84407356D01*
X144621186Y-84389861D01*
X144621145Y-84389803D01*
X144629510Y-84383828D01*
X144629516Y-84383826D01*
X144629520Y-84383821D01*
X144635923Y-84379249D01*
X144642125Y-84374421D01*
X144642131Y-84374419D01*
X144677598Y-84335890D01*
X144681100Y-84332240D01*
X148684819Y-80328522D01*
X148746142Y-80295037D01*
X148815834Y-80300021D01*
G37*
%TD.AperFunction*%
%TA.AperFunction,Conductor*%
G36*
X124095539Y-77997685D02*
G01*
X124141294Y-78050489D01*
X124152500Y-78102000D01*
X124152500Y-78822807D01*
X124144682Y-78866140D01*
X124133588Y-78895883D01*
X124133588Y-78895884D01*
X124127500Y-78952498D01*
X124127500Y-79208168D01*
X124126439Y-79224353D01*
X124108318Y-79361998D01*
X124108318Y-79362001D01*
X124126439Y-79499650D01*
X124127500Y-79515831D01*
X124127500Y-79543479D01*
X124127501Y-79543492D01*
X124133587Y-79600112D01*
X124157682Y-79664711D01*
X124165500Y-79708045D01*
X124165500Y-80413660D01*
X124157682Y-80456994D01*
X124121509Y-80553977D01*
X124115500Y-80609855D01*
X124115500Y-80810820D01*
X124114439Y-80827005D01*
X124108318Y-80873498D01*
X124108318Y-80873500D01*
X124114439Y-80919992D01*
X124115500Y-80936178D01*
X124115500Y-81137144D01*
X124121509Y-81193024D01*
X124168662Y-81319447D01*
X124168664Y-81319450D01*
X124249528Y-81427472D01*
X124357549Y-81508335D01*
X124357552Y-81508337D01*
X124455361Y-81544818D01*
X124511295Y-81586689D01*
X124535712Y-81652154D01*
X124520860Y-81720427D01*
X124471455Y-81769832D01*
X124455361Y-81777182D01*
X124357552Y-81813662D01*
X124357549Y-81813664D01*
X124249528Y-81894528D01*
X124168664Y-82002549D01*
X124168662Y-82002552D01*
X124121509Y-82128975D01*
X124115500Y-82184855D01*
X124115500Y-82712146D01*
X124121508Y-82768019D01*
X124121509Y-82768023D01*
X124157682Y-82865005D01*
X124165500Y-82908339D01*
X124165500Y-83613953D01*
X124157682Y-83657287D01*
X124133587Y-83721885D01*
X124127500Y-83778498D01*
X124127500Y-84369481D01*
X124127501Y-84369490D01*
X124133587Y-84426112D01*
X124157682Y-84490711D01*
X124165500Y-84534045D01*
X124165500Y-85319849D01*
X124165274Y-85327336D01*
X124161781Y-85385082D01*
X124161781Y-85385085D01*
X124172207Y-85441987D01*
X124173334Y-85449387D01*
X124180312Y-85506845D01*
X124183637Y-85515614D01*
X124189660Y-85537222D01*
X124191350Y-85546439D01*
X124211152Y-85590440D01*
X124215095Y-85599200D01*
X124217960Y-85606117D01*
X124238481Y-85660224D01*
X124238481Y-85660225D01*
X124243805Y-85667938D01*
X124254824Y-85687476D01*
X124258671Y-85696023D01*
X124258672Y-85696025D01*
X124258673Y-85696026D01*
X124258674Y-85696028D01*
X124294372Y-85741592D01*
X124298785Y-85747589D01*
X124331668Y-85795229D01*
X124374989Y-85833608D01*
X124380426Y-85838727D01*
X125154236Y-86612538D01*
X125154240Y-86612541D01*
X125250972Y-86688326D01*
X125400561Y-86755650D01*
X125561915Y-86785219D01*
X125561916Y-86785218D01*
X125561917Y-86785219D01*
X125580595Y-86784089D01*
X125725656Y-86775315D01*
X125730443Y-86773823D01*
X125735930Y-86772114D01*
X125772818Y-86766500D01*
X129245105Y-86766500D01*
X129312144Y-86786185D01*
X129336195Y-86808311D01*
X129336651Y-86807856D01*
X129342395Y-86813600D01*
X129358200Y-86825727D01*
X129379342Y-86841950D01*
X129420545Y-86898377D01*
X129424700Y-86968123D01*
X129390488Y-87029044D01*
X129369829Y-87045319D01*
X129234573Y-87130306D01*
X129104308Y-87260571D01*
X129006296Y-87416556D01*
X128945452Y-87590440D01*
X128945451Y-87590446D01*
X128930000Y-87727581D01*
X128930000Y-87841000D01*
X132880000Y-87841000D01*
X132880000Y-87727585D01*
X132879999Y-87727581D01*
X132864548Y-87590446D01*
X132864547Y-87590440D01*
X132803703Y-87416556D01*
X132705691Y-87260571D01*
X132575428Y-87130308D01*
X132440171Y-87045320D01*
X132393880Y-86992985D01*
X132383232Y-86923931D01*
X132411607Y-86860083D01*
X132430655Y-86841952D01*
X132467602Y-86813602D01*
X132558647Y-86694951D01*
X132615880Y-86556778D01*
X132630500Y-86445727D01*
X132630499Y-85736274D01*
X132630499Y-85736270D01*
X132615882Y-85625230D01*
X132615880Y-85625225D01*
X132615880Y-85625222D01*
X132558649Y-85487053D01*
X132558649Y-85487052D01*
X132558647Y-85487049D01*
X132467602Y-85368398D01*
X132348951Y-85277353D01*
X132348948Y-85277352D01*
X132348946Y-85277350D01*
X132210781Y-85220121D01*
X132210776Y-85220119D01*
X132099736Y-85205501D01*
X132099733Y-85205500D01*
X132099727Y-85205500D01*
X132099720Y-85205500D01*
X129710270Y-85205500D01*
X129599230Y-85220117D01*
X129599218Y-85220121D01*
X129461053Y-85277350D01*
X129461052Y-85277350D01*
X129342392Y-85368402D01*
X129336651Y-85374144D01*
X129335396Y-85372889D01*
X129287053Y-85408189D01*
X129245105Y-85415500D01*
X125919163Y-85415500D01*
X125852124Y-85395815D01*
X125831482Y-85379181D01*
X125552819Y-85100518D01*
X125519334Y-85039195D01*
X125516500Y-85012837D01*
X125516500Y-85005398D01*
X125536185Y-84938359D01*
X125588989Y-84892604D01*
X125658147Y-84882660D01*
X125705598Y-84899860D01*
X125844511Y-84985544D01*
X125844518Y-84985547D01*
X126005393Y-85038855D01*
X126104683Y-85048999D01*
X126128000Y-85048998D01*
X126128000Y-84324000D01*
X126628000Y-84324000D01*
X126628000Y-85048999D01*
X126651308Y-85048999D01*
X126651322Y-85048998D01*
X126750607Y-85038855D01*
X126911481Y-84985547D01*
X126911492Y-84985542D01*
X127055728Y-84896575D01*
X127055732Y-84896572D01*
X127175572Y-84776732D01*
X127175575Y-84776728D01*
X127264542Y-84632492D01*
X127264547Y-84632481D01*
X127317855Y-84471606D01*
X127327999Y-84372322D01*
X127328000Y-84372309D01*
X127328000Y-84324000D01*
X126628000Y-84324000D01*
X126128000Y-84324000D01*
X126128000Y-83099000D01*
X126628000Y-83099000D01*
X126628000Y-83824000D01*
X127327999Y-83824000D01*
X127327999Y-83775692D01*
X127327998Y-83775677D01*
X127317855Y-83676392D01*
X127264547Y-83515518D01*
X127264542Y-83515507D01*
X127175575Y-83371271D01*
X127175572Y-83371267D01*
X127055732Y-83251427D01*
X127055728Y-83251424D01*
X126911492Y-83162457D01*
X126911481Y-83162452D01*
X126750606Y-83109144D01*
X126651322Y-83099000D01*
X126628000Y-83099000D01*
X126128000Y-83099000D01*
X126128000Y-83098999D01*
X126104693Y-83099000D01*
X126104674Y-83099001D01*
X126005392Y-83109144D01*
X125844518Y-83162452D01*
X125844507Y-83162457D01*
X125705597Y-83248139D01*
X125638205Y-83266580D01*
X125571541Y-83245658D01*
X125526771Y-83192016D01*
X125516500Y-83142601D01*
X125516500Y-82908339D01*
X125524318Y-82865005D01*
X125560491Y-82768022D01*
X125562349Y-82750736D01*
X125566499Y-82712146D01*
X125566500Y-82712129D01*
X125566500Y-82184870D01*
X125566499Y-82184855D01*
X125563645Y-82158318D01*
X125560491Y-82128978D01*
X125513336Y-82002550D01*
X125432472Y-81894528D01*
X125324450Y-81813664D01*
X125324447Y-81813662D01*
X125226638Y-81777182D01*
X125170704Y-81735311D01*
X125146287Y-81669847D01*
X125161139Y-81601574D01*
X125210544Y-81552168D01*
X125226638Y-81544818D01*
X125324447Y-81508337D01*
X125324446Y-81508337D01*
X125324450Y-81508336D01*
X125432472Y-81427472D01*
X125513336Y-81319450D01*
X125560491Y-81193022D01*
X125564146Y-81159023D01*
X125566499Y-81137144D01*
X125566500Y-81137129D01*
X125566500Y-80609870D01*
X125566499Y-80609855D01*
X125564053Y-80587110D01*
X125560491Y-80553978D01*
X125524317Y-80456993D01*
X125516500Y-80413660D01*
X125516500Y-80179398D01*
X125536185Y-80112359D01*
X125588989Y-80066604D01*
X125658147Y-80056660D01*
X125705598Y-80073860D01*
X125844511Y-80159544D01*
X125844518Y-80159547D01*
X126005393Y-80212855D01*
X126104683Y-80222999D01*
X126128000Y-80222998D01*
X126128000Y-79498000D01*
X126628000Y-79498000D01*
X126628000Y-80222999D01*
X126651308Y-80222999D01*
X126651322Y-80222998D01*
X126750607Y-80212855D01*
X126911481Y-80159547D01*
X126911492Y-80159542D01*
X127055728Y-80070575D01*
X127055732Y-80070572D01*
X127175572Y-79950732D01*
X127175575Y-79950728D01*
X127264542Y-79806492D01*
X127264547Y-79806481D01*
X127317855Y-79645606D01*
X127327999Y-79546322D01*
X127328000Y-79546309D01*
X127328000Y-79498000D01*
X126628000Y-79498000D01*
X126128000Y-79498000D01*
X126128000Y-78273000D01*
X126628000Y-78273000D01*
X126628000Y-78998000D01*
X127327999Y-78998000D01*
X127327999Y-78949692D01*
X127327998Y-78949677D01*
X127317855Y-78850392D01*
X127264547Y-78689518D01*
X127264542Y-78689507D01*
X127175575Y-78545271D01*
X127175572Y-78545267D01*
X127055732Y-78425427D01*
X127055728Y-78425424D01*
X126911492Y-78336457D01*
X126911481Y-78336452D01*
X126750606Y-78283144D01*
X126651322Y-78273000D01*
X126628000Y-78273000D01*
X126128000Y-78273000D01*
X126128000Y-78272999D01*
X126104693Y-78273000D01*
X126104674Y-78273001D01*
X126005392Y-78283144D01*
X125844518Y-78336452D01*
X125844507Y-78336457D01*
X125694121Y-78429218D01*
X125692681Y-78426883D01*
X125639612Y-78448292D01*
X125570971Y-78435250D01*
X125520277Y-78387168D01*
X125503500Y-78324885D01*
X125503500Y-78102000D01*
X125523185Y-78034961D01*
X125575989Y-77989206D01*
X125627500Y-77978000D01*
X149673906Y-77978000D01*
X149740945Y-77997685D01*
X149786700Y-78050489D01*
X149796644Y-78119647D01*
X149767619Y-78183203D01*
X149761592Y-78189674D01*
X148351155Y-79600112D01*
X144210624Y-83740642D01*
X144186108Y-83758147D01*
X144186150Y-83758205D01*
X144171387Y-83768744D01*
X144165176Y-83773579D01*
X144165174Y-83773580D01*
X144165174Y-83773581D01*
X144154213Y-83785486D01*
X144094328Y-83821474D01*
X144062988Y-83825500D01*
X137973804Y-83825500D01*
X137948359Y-83822861D01*
X137937732Y-83820633D01*
X137906324Y-83824548D01*
X137890986Y-83825500D01*
X137890886Y-83825500D01*
X137870400Y-83828918D01*
X137865338Y-83829656D01*
X137855699Y-83830857D01*
X137813370Y-83836134D01*
X137805857Y-83838371D01*
X137798386Y-83840936D01*
X137752371Y-83865837D01*
X137747820Y-83868180D01*
X137700792Y-83891171D01*
X137694375Y-83895753D01*
X137688174Y-83900579D01*
X137652717Y-83939095D01*
X137649171Y-83942790D01*
X134391108Y-87200852D01*
X134371254Y-87216976D01*
X134362165Y-87222914D01*
X134362164Y-87222915D01*
X134342720Y-87247896D01*
X134332574Y-87259388D01*
X134332483Y-87259479D01*
X134332474Y-87259489D01*
X134320402Y-87276397D01*
X134317341Y-87280503D01*
X134285192Y-87321808D01*
X134281447Y-87328729D01*
X134277988Y-87335804D01*
X134263057Y-87385955D01*
X134261495Y-87390831D01*
X134244500Y-87440338D01*
X134243206Y-87448092D01*
X134242231Y-87455911D01*
X134244394Y-87508191D01*
X134244500Y-87513316D01*
X134244500Y-94154100D01*
X134224815Y-94221139D01*
X134208181Y-94241781D01*
X132808277Y-95641684D01*
X132746954Y-95675169D01*
X132677262Y-95670185D01*
X132621329Y-95628313D01*
X132606035Y-95601455D01*
X132596100Y-95577470D01*
X132568397Y-95510587D01*
X132558649Y-95487053D01*
X132558649Y-95487052D01*
X132558647Y-95487049D01*
X132467602Y-95368398D01*
X132348951Y-95277353D01*
X132348948Y-95277352D01*
X132348946Y-95277350D01*
X132210781Y-95220121D01*
X132210778Y-95220120D01*
X132163825Y-95213938D01*
X132099929Y-95185670D01*
X132061459Y-95127345D01*
X132060629Y-95057480D01*
X132097703Y-94998257D01*
X132160909Y-94968479D01*
X132163747Y-94968071D01*
X132210778Y-94961880D01*
X132348946Y-94904649D01*
X132348947Y-94904649D01*
X132348947Y-94904648D01*
X132348951Y-94904647D01*
X132467602Y-94813602D01*
X132558647Y-94694951D01*
X132615880Y-94556778D01*
X132630500Y-94445727D01*
X132630499Y-93736274D01*
X132630499Y-93736272D01*
X132630499Y-93736270D01*
X132615882Y-93625230D01*
X132615880Y-93625223D01*
X132615880Y-93625222D01*
X132586923Y-93555313D01*
X132558649Y-93487053D01*
X132558649Y-93487052D01*
X132529804Y-93449461D01*
X132467602Y-93368398D01*
X132348951Y-93277353D01*
X132348948Y-93277352D01*
X132348946Y-93277350D01*
X132210781Y-93220121D01*
X132210778Y-93220120D01*
X132163825Y-93213938D01*
X132099929Y-93185670D01*
X132061459Y-93127345D01*
X132060629Y-93057480D01*
X132097703Y-92998257D01*
X132160909Y-92968479D01*
X132163747Y-92968071D01*
X132210778Y-92961880D01*
X132348946Y-92904649D01*
X132348947Y-92904649D01*
X132348947Y-92904648D01*
X132348951Y-92904647D01*
X132467602Y-92813602D01*
X132558647Y-92694951D01*
X132615880Y-92556778D01*
X132630500Y-92445727D01*
X132630499Y-91736274D01*
X132630499Y-91736272D01*
X132630499Y-91736270D01*
X132615882Y-91625230D01*
X132615880Y-91625223D01*
X132615880Y-91625222D01*
X132587263Y-91556135D01*
X132558649Y-91487053D01*
X132558649Y-91487052D01*
X132558647Y-91487049D01*
X132467602Y-91368398D01*
X132348951Y-91277353D01*
X132348948Y-91277352D01*
X132348946Y-91277350D01*
X132210781Y-91220121D01*
X132210778Y-91220120D01*
X132163825Y-91213938D01*
X132099929Y-91185670D01*
X132061459Y-91127345D01*
X132060629Y-91057480D01*
X132097703Y-90998257D01*
X132160909Y-90968479D01*
X132163747Y-90968071D01*
X132210778Y-90961880D01*
X132348946Y-90904649D01*
X132348947Y-90904649D01*
X132348947Y-90904648D01*
X132348951Y-90904647D01*
X132467602Y-90813602D01*
X132558647Y-90694951D01*
X132615880Y-90556778D01*
X132630500Y-90445727D01*
X132630499Y-89736274D01*
X132630499Y-89736272D01*
X132630499Y-89736270D01*
X132615882Y-89625230D01*
X132615880Y-89625223D01*
X132615880Y-89625222D01*
X132558649Y-89487053D01*
X132558649Y-89487052D01*
X132467600Y-89368396D01*
X132430657Y-89340049D01*
X132389454Y-89283622D01*
X132385299Y-89213876D01*
X132419511Y-89152955D01*
X132440171Y-89136679D01*
X132575428Y-89051691D01*
X132705691Y-88921428D01*
X132803703Y-88765443D01*
X132864547Y-88591559D01*
X132864548Y-88591553D01*
X132879999Y-88454418D01*
X132880000Y-88454414D01*
X132880000Y-88341000D01*
X128930000Y-88341000D01*
X128930000Y-88454418D01*
X128945451Y-88591553D01*
X128945452Y-88591559D01*
X129006296Y-88765443D01*
X129104308Y-88921428D01*
X129234571Y-89051691D01*
X129369828Y-89136679D01*
X129416119Y-89189014D01*
X129426767Y-89258067D01*
X129398392Y-89321916D01*
X129379343Y-89340048D01*
X129342400Y-89368395D01*
X129251350Y-89487052D01*
X129251350Y-89487053D01*
X129194121Y-89625218D01*
X129194119Y-89625223D01*
X129179500Y-89736272D01*
X129179500Y-90445729D01*
X129194117Y-90556769D01*
X129194121Y-90556781D01*
X129251350Y-90694946D01*
X129251350Y-90694947D01*
X129251352Y-90694950D01*
X129251353Y-90694951D01*
X129342398Y-90813602D01*
X129461049Y-90904647D01*
X129461052Y-90904648D01*
X129461053Y-90904649D01*
X129530135Y-90933263D01*
X129599222Y-90961880D01*
X129646157Y-90968059D01*
X129646172Y-90968061D01*
X129710068Y-90996328D01*
X129748539Y-91054652D01*
X129749370Y-91124517D01*
X129712298Y-91183740D01*
X129649092Y-91213519D01*
X129646170Y-91213939D01*
X129599230Y-91220118D01*
X129599218Y-91220121D01*
X129461053Y-91277350D01*
X129461052Y-91277350D01*
X129342398Y-91368398D01*
X129251350Y-91487052D01*
X129251350Y-91487053D01*
X129194121Y-91625218D01*
X129194119Y-91625223D01*
X129179500Y-91736272D01*
X129179500Y-92445729D01*
X129194117Y-92556769D01*
X129194121Y-92556781D01*
X129251350Y-92694946D01*
X129251350Y-92694947D01*
X129251352Y-92694950D01*
X129251353Y-92694951D01*
X129342398Y-92813602D01*
X129461049Y-92904647D01*
X129461052Y-92904648D01*
X129461053Y-92904649D01*
X129530135Y-92933263D01*
X129599222Y-92961880D01*
X129646157Y-92968059D01*
X129646172Y-92968061D01*
X129710068Y-92996328D01*
X129748539Y-93054652D01*
X129749370Y-93124517D01*
X129712298Y-93183740D01*
X129649092Y-93213519D01*
X129646170Y-93213939D01*
X129599230Y-93220118D01*
X129599218Y-93220121D01*
X129461053Y-93277350D01*
X129461052Y-93277350D01*
X129342398Y-93368398D01*
X129251350Y-93487052D01*
X129251350Y-93487053D01*
X129194121Y-93625218D01*
X129194119Y-93625223D01*
X129192611Y-93636685D01*
X129164345Y-93700582D01*
X129106020Y-93739053D01*
X129069672Y-93744500D01*
X128295459Y-93744500D01*
X128228420Y-93724815D01*
X128182665Y-93672011D01*
X128179790Y-93665071D01*
X128179627Y-93664773D01*
X128179624Y-93664769D01*
X128118558Y-93583194D01*
X128094143Y-93517734D01*
X128108994Y-93449461D01*
X128152731Y-93403348D01*
X128210731Y-93367573D01*
X128330572Y-93247732D01*
X128330575Y-93247728D01*
X128419542Y-93103492D01*
X128419547Y-93103481D01*
X128472855Y-92942606D01*
X128482999Y-92843322D01*
X128483000Y-92843309D01*
X128483000Y-92820000D01*
X124501001Y-92820000D01*
X124501001Y-92843322D01*
X124511144Y-92942607D01*
X124564452Y-93103481D01*
X124564457Y-93103492D01*
X124653424Y-93247728D01*
X124653427Y-93247732D01*
X124773266Y-93367571D01*
X124831268Y-93403347D01*
X124877992Y-93455295D01*
X124889215Y-93524258D01*
X124865439Y-93583195D01*
X124804374Y-93664769D01*
X124804372Y-93664773D01*
X124804372Y-93664774D01*
X124776667Y-93739053D01*
X124756587Y-93792889D01*
X124750500Y-93849498D01*
X124750500Y-94390481D01*
X124750501Y-94390490D01*
X124756587Y-94447114D01*
X124794691Y-94549270D01*
X124804372Y-94575226D01*
X124886313Y-94684687D01*
X124995774Y-94766628D01*
X125123886Y-94814412D01*
X125180515Y-94820500D01*
X125771484Y-94820499D01*
X125828114Y-94814412D01*
X125956226Y-94766628D01*
X126065687Y-94684687D01*
X126147628Y-94575226D01*
X126147630Y-94575220D01*
X126151877Y-94567444D01*
X126153246Y-94568191D01*
X126189150Y-94520232D01*
X126254615Y-94495816D01*
X126263459Y-94495500D01*
X126720541Y-94495500D01*
X126787580Y-94515185D01*
X126833335Y-94567989D01*
X126836209Y-94574928D01*
X126836372Y-94575226D01*
X126918313Y-94684687D01*
X126918316Y-94684689D01*
X126918317Y-94684690D01*
X126957809Y-94714253D01*
X126999681Y-94770186D01*
X127007500Y-94813521D01*
X127007500Y-99373858D01*
X127004667Y-99400206D01*
X127003641Y-99404927D01*
X127003641Y-99404929D01*
X127003641Y-99404930D01*
X127007184Y-99454461D01*
X127007500Y-99463308D01*
X127007500Y-99467631D01*
X126987815Y-99534670D01*
X126935011Y-99580425D01*
X126865853Y-99590369D01*
X126802730Y-99561717D01*
X126706077Y-99478743D01*
X126468889Y-99313656D01*
X126410500Y-99273016D01*
X126153390Y-99130308D01*
X126095624Y-99098245D01*
X125764683Y-98956228D01*
X125421096Y-98848427D01*
X125421090Y-98848426D01*
X125421087Y-98848425D01*
X125421086Y-98848425D01*
X125068335Y-98775933D01*
X125068334Y-98775932D01*
X125068330Y-98775932D01*
X124710062Y-98739500D01*
X124710061Y-98739500D01*
X124586173Y-98739500D01*
X120424500Y-98739500D01*
X120357461Y-98719815D01*
X120311706Y-98667011D01*
X120300500Y-98615500D01*
X120300500Y-92320000D01*
X124501000Y-92320000D01*
X125226000Y-92320000D01*
X125726000Y-92320000D01*
X127258000Y-92320000D01*
X127258000Y-91620000D01*
X127758000Y-91620000D01*
X127758000Y-92320000D01*
X128482999Y-92320000D01*
X128482999Y-92296692D01*
X128482998Y-92296677D01*
X128472855Y-92197392D01*
X128419547Y-92036518D01*
X128419542Y-92036507D01*
X128330575Y-91892271D01*
X128330572Y-91892267D01*
X128210732Y-91772427D01*
X128210728Y-91772424D01*
X128066492Y-91683457D01*
X128066481Y-91683452D01*
X127905606Y-91630144D01*
X127806322Y-91620000D01*
X127758000Y-91620000D01*
X127258000Y-91620000D01*
X127257999Y-91619999D01*
X127209693Y-91620000D01*
X127209675Y-91620001D01*
X127110392Y-91630144D01*
X126949518Y-91683452D01*
X126949507Y-91683457D01*
X126805271Y-91772424D01*
X126805267Y-91772427D01*
X126685427Y-91892267D01*
X126685424Y-91892271D01*
X126597538Y-92034756D01*
X126545590Y-92081481D01*
X126476628Y-92092702D01*
X126412546Y-92064859D01*
X126386462Y-92034756D01*
X126298575Y-91892271D01*
X126298572Y-91892267D01*
X126178732Y-91772427D01*
X126178728Y-91772424D01*
X126034492Y-91683457D01*
X126034481Y-91683452D01*
X125873606Y-91630144D01*
X125774322Y-91620000D01*
X125726000Y-91620000D01*
X125726000Y-92320000D01*
X125226000Y-92320000D01*
X125226000Y-91620000D01*
X125225999Y-91619999D01*
X125177693Y-91620000D01*
X125177675Y-91620001D01*
X125078392Y-91630144D01*
X124917518Y-91683452D01*
X124917507Y-91683457D01*
X124773271Y-91772424D01*
X124773267Y-91772427D01*
X124653427Y-91892267D01*
X124653424Y-91892271D01*
X124564457Y-92036507D01*
X124564452Y-92036518D01*
X124511144Y-92197393D01*
X124501000Y-92296677D01*
X124501000Y-92320000D01*
X120300500Y-92320000D01*
X120300500Y-78102000D01*
X120320185Y-78034961D01*
X120372989Y-77989206D01*
X120424500Y-77978000D01*
X124028500Y-77978000D01*
X124095539Y-77997685D01*
G37*
%TD.AperFunction*%
%TD*%
D39*
X168808880Y-90283765D03*
X123317000Y-81788000D03*
X126365000Y-81788000D03*
X128143000Y-79248000D03*
X133477000Y-79121000D03*
X127889000Y-84074000D03*
X133604000Y-88138000D03*
X166624000Y-78740000D03*
X123317000Y-79248000D03*
X149987000Y-110871000D03*
X165608000Y-102743000D03*
X143764000Y-79121000D03*
X148463000Y-86106000D03*
X123063000Y-86106000D03*
X128143000Y-88011000D03*
X139192000Y-79121000D03*
X143383000Y-86106000D03*
X148590000Y-100071347D03*
X147447000Y-78994000D03*
X145923000Y-84328000D03*
X127508000Y-90932000D03*
X125476000Y-90932000D03*
X168148000Y-95631000D03*
X143129000Y-100076000D03*
X156464000Y-101854000D03*
X155448000Y-107315000D03*
X168897000Y-80277000D03*
X170815000Y-98298000D03*
X161036000Y-90170000D03*
X157099000Y-107823000D03*
X157099000Y-110871000D03*
X151130000Y-96012000D03*
X148209000Y-96012000D03*
X158877000Y-73660000D03*
X158877000Y-80010000D03*
X159893000Y-72771000D03*
X159270920Y-80929147D03*
X169455000Y-97192000D03*
X169545000Y-99568000D03*
X163540000Y-108530000D03*
X175514000Y-74422000D03*
X175514000Y-76962000D03*
X175514000Y-79502000D03*
X175514000Y-82042000D03*
X175514000Y-84582000D03*
X172700000Y-116500000D03*
X165700000Y-116500000D03*
X153665000Y-92202000D03*
X156205000Y-92202000D03*
X124858000Y-66040500D03*
X126858000Y-66040500D03*
X126858000Y-71040500D03*
X128858000Y-66040500D03*
X128858000Y-71040500D03*
X130858000Y-66040500D03*
X130858000Y-71040500D03*
X132858000Y-66040500D03*
X132858000Y-71040500D03*
X134858000Y-66040500D03*
X134858000Y-71040500D03*
X136858000Y-66040500D03*
X136858000Y-71040500D03*
X138858000Y-66040500D03*
X138858000Y-71040500D03*
X140858000Y-66040500D03*
X140858000Y-71040500D03*
X142858000Y-66040500D03*
X142858000Y-71040500D03*
X135540000Y-108530000D03*
X125800000Y-116500000D03*
X132800000Y-116500000D03*
X128524000Y-107569000D03*
M02*
