%TF.GenerationSoftware,KiCad,Pcbnew,7.0.10*%
%TF.CreationDate,2025-01-21T12:55:57-05:00*%
%TF.ProjectId,PostAlertMailBoxV6,506f7374-416c-4657-9274-4d61696c426f,V4.0*%
%TF.SameCoordinates,Original*%
%TF.FileFunction,Legend,Top*%
%TF.FilePolarity,Positive*%
%FSLAX46Y46*%
G04 Gerber Fmt 4.6, Leading zero omitted, Abs format (unit mm)*
G04 Created by KiCad (PCBNEW 7.0.10) date 2025-01-21 12:55:57*
%MOMM*%
%LPD*%
G01*
G04 APERTURE LIST*
%ADD10C,0.150000*%
%ADD11C,0.434210*%
%ADD12C,0.710000*%
%ADD13C,0.120000*%
%ADD14C,0.350000*%
G04 APERTURE END LIST*
D10*
X177927000Y-96774000D02*
X177419000Y-95758000D01*
X157734000Y-117856000D02*
X157734000Y-119126000D01*
D11*
X164174105Y-82804000D02*
G75*
G03*
X163739895Y-82804000I-217105J0D01*
G01*
X163739895Y-82804000D02*
G75*
G03*
X164174105Y-82804000I217105J0D01*
G01*
X128360105Y-86127790D02*
G75*
G03*
X127925895Y-86127790I-217105J0D01*
G01*
X127925895Y-86127790D02*
G75*
G03*
X128360105Y-86127790I217105J0D01*
G01*
X147791105Y-109982000D02*
G75*
G03*
X147356895Y-109982000I-217105J0D01*
G01*
X147356895Y-109982000D02*
G75*
G03*
X147791105Y-109982000I217105J0D01*
G01*
D10*
X161417000Y-88265000D02*
X162433000Y-88265000D01*
X161417000Y-87249000D02*
X162433000Y-87249000D01*
X161417000Y-88265000D02*
X161925000Y-87249000D01*
X159004000Y-117856000D02*
X157734000Y-117856000D01*
D11*
X177382105Y-72263000D02*
G75*
G03*
X176947895Y-72263000I-217105J0D01*
G01*
X176947895Y-72263000D02*
G75*
G03*
X177382105Y-72263000I217105J0D01*
G01*
D12*
X130022000Y-84074000D02*
G75*
G03*
X129312000Y-84074000I-355000J0D01*
G01*
X129312000Y-84074000D02*
G75*
G03*
X130022000Y-84074000I355000J0D01*
G01*
D10*
X157734000Y-119126000D02*
X139954000Y-119126000D01*
X178435000Y-96774000D02*
X177419000Y-96774000D01*
X139954000Y-119126000D02*
X139954000Y-114046000D01*
X178435000Y-95758000D02*
X177927000Y-96774000D01*
X165989000Y-100584000D02*
X167005000Y-100584000D01*
X165354000Y-86995000D02*
X166370000Y-86995000D01*
X159004000Y-115316000D02*
X159004000Y-117856000D01*
X157734000Y-115316000D02*
X159004000Y-115316000D01*
X166497000Y-100584000D02*
X167005000Y-101600000D01*
X165354000Y-88011000D02*
X165862000Y-86995000D01*
X139954000Y-114046000D02*
X157734000Y-114046000D01*
X165989000Y-101600000D02*
X167005000Y-101600000D01*
D11*
X153273895Y-105791000D02*
G75*
G03*
X152839685Y-105791000I-217105J0D01*
G01*
X152839685Y-105791000D02*
G75*
G03*
X153273895Y-105791000I217105J0D01*
G01*
D10*
X165989000Y-101600000D02*
X166497000Y-100584000D01*
X157734000Y-114046000D02*
X157734000Y-115316000D01*
X161925000Y-87249000D02*
X162433000Y-88265000D01*
X165862000Y-86995000D02*
X166370000Y-88011000D01*
X165354000Y-88011000D02*
X166370000Y-88011000D01*
X178435000Y-95758000D02*
X177419000Y-95758000D01*
X155530779Y-67814819D02*
X155530779Y-66814819D01*
X155530779Y-66814819D02*
X155911731Y-66814819D01*
X155911731Y-66814819D02*
X156006969Y-66862438D01*
X156006969Y-66862438D02*
X156054588Y-66910057D01*
X156054588Y-66910057D02*
X156102207Y-67005295D01*
X156102207Y-67005295D02*
X156102207Y-67148152D01*
X156102207Y-67148152D02*
X156054588Y-67243390D01*
X156054588Y-67243390D02*
X156006969Y-67291009D01*
X156006969Y-67291009D02*
X155911731Y-67338628D01*
X155911731Y-67338628D02*
X155530779Y-67338628D01*
X157102207Y-67719580D02*
X157054588Y-67767200D01*
X157054588Y-67767200D02*
X156911731Y-67814819D01*
X156911731Y-67814819D02*
X156816493Y-67814819D01*
X156816493Y-67814819D02*
X156673636Y-67767200D01*
X156673636Y-67767200D02*
X156578398Y-67671961D01*
X156578398Y-67671961D02*
X156530779Y-67576723D01*
X156530779Y-67576723D02*
X156483160Y-67386247D01*
X156483160Y-67386247D02*
X156483160Y-67243390D01*
X156483160Y-67243390D02*
X156530779Y-67052914D01*
X156530779Y-67052914D02*
X156578398Y-66957676D01*
X156578398Y-66957676D02*
X156673636Y-66862438D01*
X156673636Y-66862438D02*
X156816493Y-66814819D01*
X156816493Y-66814819D02*
X156911731Y-66814819D01*
X156911731Y-66814819D02*
X157054588Y-66862438D01*
X157054588Y-66862438D02*
X157102207Y-66910057D01*
X157864112Y-67291009D02*
X158006969Y-67338628D01*
X158006969Y-67338628D02*
X158054588Y-67386247D01*
X158054588Y-67386247D02*
X158102207Y-67481485D01*
X158102207Y-67481485D02*
X158102207Y-67624342D01*
X158102207Y-67624342D02*
X158054588Y-67719580D01*
X158054588Y-67719580D02*
X158006969Y-67767200D01*
X158006969Y-67767200D02*
X157911731Y-67814819D01*
X157911731Y-67814819D02*
X157530779Y-67814819D01*
X157530779Y-67814819D02*
X157530779Y-66814819D01*
X157530779Y-66814819D02*
X157864112Y-66814819D01*
X157864112Y-66814819D02*
X157959350Y-66862438D01*
X157959350Y-66862438D02*
X158006969Y-66910057D01*
X158006969Y-66910057D02*
X158054588Y-67005295D01*
X158054588Y-67005295D02*
X158054588Y-67100533D01*
X158054588Y-67100533D02*
X158006969Y-67195771D01*
X158006969Y-67195771D02*
X157959350Y-67243390D01*
X157959350Y-67243390D02*
X157864112Y-67291009D01*
X157864112Y-67291009D02*
X157530779Y-67291009D01*
X158721255Y-66814819D02*
X158816493Y-66814819D01*
X158816493Y-66814819D02*
X158911731Y-66862438D01*
X158911731Y-66862438D02*
X158959350Y-66910057D01*
X158959350Y-66910057D02*
X159006969Y-67005295D01*
X159006969Y-67005295D02*
X159054588Y-67195771D01*
X159054588Y-67195771D02*
X159054588Y-67433866D01*
X159054588Y-67433866D02*
X159006969Y-67624342D01*
X159006969Y-67624342D02*
X158959350Y-67719580D01*
X158959350Y-67719580D02*
X158911731Y-67767200D01*
X158911731Y-67767200D02*
X158816493Y-67814819D01*
X158816493Y-67814819D02*
X158721255Y-67814819D01*
X158721255Y-67814819D02*
X158626017Y-67767200D01*
X158626017Y-67767200D02*
X158578398Y-67719580D01*
X158578398Y-67719580D02*
X158530779Y-67624342D01*
X158530779Y-67624342D02*
X158483160Y-67433866D01*
X158483160Y-67433866D02*
X158483160Y-67195771D01*
X158483160Y-67195771D02*
X158530779Y-67005295D01*
X158530779Y-67005295D02*
X158578398Y-66910057D01*
X158578398Y-66910057D02*
X158626017Y-66862438D01*
X158626017Y-66862438D02*
X158721255Y-66814819D01*
X159911731Y-67148152D02*
X159911731Y-67814819D01*
X159673636Y-66767200D02*
X159435541Y-67481485D01*
X159435541Y-67481485D02*
X160054588Y-67481485D01*
X160387922Y-66910057D02*
X160435541Y-66862438D01*
X160435541Y-66862438D02*
X160530779Y-66814819D01*
X160530779Y-66814819D02*
X160768874Y-66814819D01*
X160768874Y-66814819D02*
X160864112Y-66862438D01*
X160864112Y-66862438D02*
X160911731Y-66910057D01*
X160911731Y-66910057D02*
X160959350Y-67005295D01*
X160959350Y-67005295D02*
X160959350Y-67100533D01*
X160959350Y-67100533D02*
X160911731Y-67243390D01*
X160911731Y-67243390D02*
X160340303Y-67814819D01*
X160340303Y-67814819D02*
X160959350Y-67814819D01*
X161578398Y-66814819D02*
X161673636Y-66814819D01*
X161673636Y-66814819D02*
X161768874Y-66862438D01*
X161768874Y-66862438D02*
X161816493Y-66910057D01*
X161816493Y-66910057D02*
X161864112Y-67005295D01*
X161864112Y-67005295D02*
X161911731Y-67195771D01*
X161911731Y-67195771D02*
X161911731Y-67433866D01*
X161911731Y-67433866D02*
X161864112Y-67624342D01*
X161864112Y-67624342D02*
X161816493Y-67719580D01*
X161816493Y-67719580D02*
X161768874Y-67767200D01*
X161768874Y-67767200D02*
X161673636Y-67814819D01*
X161673636Y-67814819D02*
X161578398Y-67814819D01*
X161578398Y-67814819D02*
X161483160Y-67767200D01*
X161483160Y-67767200D02*
X161435541Y-67719580D01*
X161435541Y-67719580D02*
X161387922Y-67624342D01*
X161387922Y-67624342D02*
X161340303Y-67433866D01*
X161340303Y-67433866D02*
X161340303Y-67195771D01*
X161340303Y-67195771D02*
X161387922Y-67005295D01*
X161387922Y-67005295D02*
X161435541Y-66910057D01*
X161435541Y-66910057D02*
X161483160Y-66862438D01*
X161483160Y-66862438D02*
X161578398Y-66814819D01*
X162292684Y-66910057D02*
X162340303Y-66862438D01*
X162340303Y-66862438D02*
X162435541Y-66814819D01*
X162435541Y-66814819D02*
X162673636Y-66814819D01*
X162673636Y-66814819D02*
X162768874Y-66862438D01*
X162768874Y-66862438D02*
X162816493Y-66910057D01*
X162816493Y-66910057D02*
X162864112Y-67005295D01*
X162864112Y-67005295D02*
X162864112Y-67100533D01*
X162864112Y-67100533D02*
X162816493Y-67243390D01*
X162816493Y-67243390D02*
X162245065Y-67814819D01*
X162245065Y-67814819D02*
X162864112Y-67814819D01*
X163721255Y-67148152D02*
X163721255Y-67814819D01*
X163483160Y-66767200D02*
X163245065Y-67481485D01*
X163245065Y-67481485D02*
X163864112Y-67481485D01*
X165578398Y-67814819D02*
X165245065Y-67338628D01*
X165006970Y-67814819D02*
X165006970Y-66814819D01*
X165006970Y-66814819D02*
X165387922Y-66814819D01*
X165387922Y-66814819D02*
X165483160Y-66862438D01*
X165483160Y-66862438D02*
X165530779Y-66910057D01*
X165530779Y-66910057D02*
X165578398Y-67005295D01*
X165578398Y-67005295D02*
X165578398Y-67148152D01*
X165578398Y-67148152D02*
X165530779Y-67243390D01*
X165530779Y-67243390D02*
X165483160Y-67291009D01*
X165483160Y-67291009D02*
X165387922Y-67338628D01*
X165387922Y-67338628D02*
X165006970Y-67338628D01*
X166387922Y-67767200D02*
X166292684Y-67814819D01*
X166292684Y-67814819D02*
X166102208Y-67814819D01*
X166102208Y-67814819D02*
X166006970Y-67767200D01*
X166006970Y-67767200D02*
X165959351Y-67671961D01*
X165959351Y-67671961D02*
X165959351Y-67291009D01*
X165959351Y-67291009D02*
X166006970Y-67195771D01*
X166006970Y-67195771D02*
X166102208Y-67148152D01*
X166102208Y-67148152D02*
X166292684Y-67148152D01*
X166292684Y-67148152D02*
X166387922Y-67195771D01*
X166387922Y-67195771D02*
X166435541Y-67291009D01*
X166435541Y-67291009D02*
X166435541Y-67386247D01*
X166435541Y-67386247D02*
X165959351Y-67481485D01*
X166768875Y-67148152D02*
X167006970Y-67814819D01*
X167006970Y-67814819D02*
X167245065Y-67148152D01*
X168340304Y-67529104D02*
X168816494Y-67529104D01*
X168245066Y-67814819D02*
X168578399Y-66814819D01*
X168578399Y-66814819D02*
X168911732Y-67814819D01*
X169245066Y-67719580D02*
X169292685Y-67767200D01*
X169292685Y-67767200D02*
X169245066Y-67814819D01*
X169245066Y-67814819D02*
X169197447Y-67767200D01*
X169197447Y-67767200D02*
X169245066Y-67719580D01*
X169245066Y-67719580D02*
X169245066Y-67814819D01*
X170245065Y-67814819D02*
X169673637Y-67814819D01*
X169959351Y-67814819D02*
X169959351Y-66814819D01*
X169959351Y-66814819D02*
X169864113Y-66957676D01*
X169864113Y-66957676D02*
X169768875Y-67052914D01*
X169768875Y-67052914D02*
X169673637Y-67100533D01*
X158578779Y-114169866D02*
X159340684Y-114169866D01*
X158959731Y-114550819D02*
X158959731Y-113788914D01*
X138258779Y-116582866D02*
X139020684Y-116582866D01*
X163023779Y-99945819D02*
X163023779Y-98945819D01*
X163023779Y-98945819D02*
X163404731Y-98945819D01*
X163404731Y-98945819D02*
X163499969Y-98993438D01*
X163499969Y-98993438D02*
X163547588Y-99041057D01*
X163547588Y-99041057D02*
X163595207Y-99136295D01*
X163595207Y-99136295D02*
X163595207Y-99279152D01*
X163595207Y-99279152D02*
X163547588Y-99374390D01*
X163547588Y-99374390D02*
X163499969Y-99422009D01*
X163499969Y-99422009D02*
X163404731Y-99469628D01*
X163404731Y-99469628D02*
X163023779Y-99469628D01*
X163976160Y-99660104D02*
X164452350Y-99660104D01*
X163880922Y-99945819D02*
X164214255Y-98945819D01*
X164214255Y-98945819D02*
X164547588Y-99945819D01*
X164880922Y-99945819D02*
X164880922Y-98945819D01*
X165928540Y-99945819D02*
X165595207Y-99469628D01*
X165357112Y-99945819D02*
X165357112Y-98945819D01*
X165357112Y-98945819D02*
X165738064Y-98945819D01*
X165738064Y-98945819D02*
X165833302Y-98993438D01*
X165833302Y-98993438D02*
X165880921Y-99041057D01*
X165880921Y-99041057D02*
X165928540Y-99136295D01*
X165928540Y-99136295D02*
X165928540Y-99279152D01*
X165928540Y-99279152D02*
X165880921Y-99374390D01*
X165880921Y-99374390D02*
X165833302Y-99422009D01*
X165833302Y-99422009D02*
X165738064Y-99469628D01*
X165738064Y-99469628D02*
X165357112Y-99469628D01*
X141560779Y-116694009D02*
X141894112Y-116694009D01*
X142036969Y-117217819D02*
X141560779Y-117217819D01*
X141560779Y-117217819D02*
X141560779Y-116217819D01*
X141560779Y-116217819D02*
X142036969Y-116217819D01*
X143036969Y-117217819D02*
X142703636Y-116741628D01*
X142465541Y-117217819D02*
X142465541Y-116217819D01*
X142465541Y-116217819D02*
X142846493Y-116217819D01*
X142846493Y-116217819D02*
X142941731Y-116265438D01*
X142941731Y-116265438D02*
X142989350Y-116313057D01*
X142989350Y-116313057D02*
X143036969Y-116408295D01*
X143036969Y-116408295D02*
X143036969Y-116551152D01*
X143036969Y-116551152D02*
X142989350Y-116646390D01*
X142989350Y-116646390D02*
X142941731Y-116694009D01*
X142941731Y-116694009D02*
X142846493Y-116741628D01*
X142846493Y-116741628D02*
X142465541Y-116741628D01*
X143989350Y-117217819D02*
X143417922Y-117217819D01*
X143703636Y-117217819D02*
X143703636Y-116217819D01*
X143703636Y-116217819D02*
X143608398Y-116360676D01*
X143608398Y-116360676D02*
X143513160Y-116455914D01*
X143513160Y-116455914D02*
X143417922Y-116503533D01*
X144846493Y-116551152D02*
X144846493Y-117217819D01*
X144608398Y-116170200D02*
X144370303Y-116884485D01*
X144370303Y-116884485D02*
X144989350Y-116884485D01*
X145846493Y-116217819D02*
X145370303Y-116217819D01*
X145370303Y-116217819D02*
X145322684Y-116694009D01*
X145322684Y-116694009D02*
X145370303Y-116646390D01*
X145370303Y-116646390D02*
X145465541Y-116598771D01*
X145465541Y-116598771D02*
X145703636Y-116598771D01*
X145703636Y-116598771D02*
X145798874Y-116646390D01*
X145798874Y-116646390D02*
X145846493Y-116694009D01*
X145846493Y-116694009D02*
X145894112Y-116789247D01*
X145894112Y-116789247D02*
X145894112Y-117027342D01*
X145894112Y-117027342D02*
X145846493Y-117122580D01*
X145846493Y-117122580D02*
X145798874Y-117170200D01*
X145798874Y-117170200D02*
X145703636Y-117217819D01*
X145703636Y-117217819D02*
X145465541Y-117217819D01*
X145465541Y-117217819D02*
X145370303Y-117170200D01*
X145370303Y-117170200D02*
X145322684Y-117122580D01*
X146513160Y-116217819D02*
X146608398Y-116217819D01*
X146608398Y-116217819D02*
X146703636Y-116265438D01*
X146703636Y-116265438D02*
X146751255Y-116313057D01*
X146751255Y-116313057D02*
X146798874Y-116408295D01*
X146798874Y-116408295D02*
X146846493Y-116598771D01*
X146846493Y-116598771D02*
X146846493Y-116836866D01*
X146846493Y-116836866D02*
X146798874Y-117027342D01*
X146798874Y-117027342D02*
X146751255Y-117122580D01*
X146751255Y-117122580D02*
X146703636Y-117170200D01*
X146703636Y-117170200D02*
X146608398Y-117217819D01*
X146608398Y-117217819D02*
X146513160Y-117217819D01*
X146513160Y-117217819D02*
X146417922Y-117170200D01*
X146417922Y-117170200D02*
X146370303Y-117122580D01*
X146370303Y-117122580D02*
X146322684Y-117027342D01*
X146322684Y-117027342D02*
X146275065Y-116836866D01*
X146275065Y-116836866D02*
X146275065Y-116598771D01*
X146275065Y-116598771D02*
X146322684Y-116408295D01*
X146322684Y-116408295D02*
X146370303Y-116313057D01*
X146370303Y-116313057D02*
X146417922Y-116265438D01*
X146417922Y-116265438D02*
X146513160Y-116217819D01*
X147751255Y-116217819D02*
X147275065Y-116217819D01*
X147275065Y-116217819D02*
X147227446Y-116694009D01*
X147227446Y-116694009D02*
X147275065Y-116646390D01*
X147275065Y-116646390D02*
X147370303Y-116598771D01*
X147370303Y-116598771D02*
X147608398Y-116598771D01*
X147608398Y-116598771D02*
X147703636Y-116646390D01*
X147703636Y-116646390D02*
X147751255Y-116694009D01*
X147751255Y-116694009D02*
X147798874Y-116789247D01*
X147798874Y-116789247D02*
X147798874Y-117027342D01*
X147798874Y-117027342D02*
X147751255Y-117122580D01*
X147751255Y-117122580D02*
X147703636Y-117170200D01*
X147703636Y-117170200D02*
X147608398Y-117217819D01*
X147608398Y-117217819D02*
X147370303Y-117217819D01*
X147370303Y-117217819D02*
X147275065Y-117170200D01*
X147275065Y-117170200D02*
X147227446Y-117122580D01*
X148941732Y-116932104D02*
X149417922Y-116932104D01*
X148846494Y-117217819D02*
X149179827Y-116217819D01*
X149179827Y-116217819D02*
X149513160Y-117217819D01*
X149798875Y-116932104D02*
X150275065Y-116932104D01*
X149703637Y-117217819D02*
X150036970Y-116217819D01*
X150036970Y-116217819D02*
X150370303Y-117217819D01*
X151941732Y-117217819D02*
X151465542Y-117217819D01*
X151465542Y-117217819D02*
X151465542Y-116217819D01*
X152275066Y-117217819D02*
X152275066Y-116551152D01*
X152275066Y-116217819D02*
X152227447Y-116265438D01*
X152227447Y-116265438D02*
X152275066Y-116313057D01*
X152275066Y-116313057D02*
X152322685Y-116265438D01*
X152322685Y-116265438D02*
X152275066Y-116217819D01*
X152275066Y-116217819D02*
X152275066Y-116313057D01*
X153417923Y-116217819D02*
X154036970Y-116217819D01*
X154036970Y-116217819D02*
X153703637Y-116598771D01*
X153703637Y-116598771D02*
X153846494Y-116598771D01*
X153846494Y-116598771D02*
X153941732Y-116646390D01*
X153941732Y-116646390D02*
X153989351Y-116694009D01*
X153989351Y-116694009D02*
X154036970Y-116789247D01*
X154036970Y-116789247D02*
X154036970Y-117027342D01*
X154036970Y-117027342D02*
X153989351Y-117122580D01*
X153989351Y-117122580D02*
X153941732Y-117170200D01*
X153941732Y-117170200D02*
X153846494Y-117217819D01*
X153846494Y-117217819D02*
X153560780Y-117217819D01*
X153560780Y-117217819D02*
X153465542Y-117170200D01*
X153465542Y-117170200D02*
X153417923Y-117122580D01*
X154465542Y-117122580D02*
X154513161Y-117170200D01*
X154513161Y-117170200D02*
X154465542Y-117217819D01*
X154465542Y-117217819D02*
X154417923Y-117170200D01*
X154417923Y-117170200D02*
X154465542Y-117122580D01*
X154465542Y-117122580D02*
X154465542Y-117217819D01*
X155370303Y-116217819D02*
X155179827Y-116217819D01*
X155179827Y-116217819D02*
X155084589Y-116265438D01*
X155084589Y-116265438D02*
X155036970Y-116313057D01*
X155036970Y-116313057D02*
X154941732Y-116455914D01*
X154941732Y-116455914D02*
X154894113Y-116646390D01*
X154894113Y-116646390D02*
X154894113Y-117027342D01*
X154894113Y-117027342D02*
X154941732Y-117122580D01*
X154941732Y-117122580D02*
X154989351Y-117170200D01*
X154989351Y-117170200D02*
X155084589Y-117217819D01*
X155084589Y-117217819D02*
X155275065Y-117217819D01*
X155275065Y-117217819D02*
X155370303Y-117170200D01*
X155370303Y-117170200D02*
X155417922Y-117122580D01*
X155417922Y-117122580D02*
X155465541Y-117027342D01*
X155465541Y-117027342D02*
X155465541Y-116789247D01*
X155465541Y-116789247D02*
X155417922Y-116694009D01*
X155417922Y-116694009D02*
X155370303Y-116646390D01*
X155370303Y-116646390D02*
X155275065Y-116598771D01*
X155275065Y-116598771D02*
X155084589Y-116598771D01*
X155084589Y-116598771D02*
X154989351Y-116646390D01*
X154989351Y-116646390D02*
X154941732Y-116694009D01*
X154941732Y-116694009D02*
X154894113Y-116789247D01*
X155798875Y-116551152D02*
X156036970Y-117217819D01*
X156036970Y-117217819D02*
X156275065Y-116551152D01*
X170088160Y-69201200D02*
X170231017Y-69248819D01*
X170231017Y-69248819D02*
X170469112Y-69248819D01*
X170469112Y-69248819D02*
X170564350Y-69201200D01*
X170564350Y-69201200D02*
X170611969Y-69153580D01*
X170611969Y-69153580D02*
X170659588Y-69058342D01*
X170659588Y-69058342D02*
X170659588Y-68963104D01*
X170659588Y-68963104D02*
X170611969Y-68867866D01*
X170611969Y-68867866D02*
X170564350Y-68820247D01*
X170564350Y-68820247D02*
X170469112Y-68772628D01*
X170469112Y-68772628D02*
X170278636Y-68725009D01*
X170278636Y-68725009D02*
X170183398Y-68677390D01*
X170183398Y-68677390D02*
X170135779Y-68629771D01*
X170135779Y-68629771D02*
X170088160Y-68534533D01*
X170088160Y-68534533D02*
X170088160Y-68439295D01*
X170088160Y-68439295D02*
X170135779Y-68344057D01*
X170135779Y-68344057D02*
X170183398Y-68296438D01*
X170183398Y-68296438D02*
X170278636Y-68248819D01*
X170278636Y-68248819D02*
X170516731Y-68248819D01*
X170516731Y-68248819D02*
X170659588Y-68296438D01*
X170992922Y-68248819D02*
X171231017Y-69248819D01*
X171231017Y-69248819D02*
X171421493Y-68534533D01*
X171421493Y-68534533D02*
X171611969Y-69248819D01*
X171611969Y-69248819D02*
X171850065Y-68248819D01*
X172802445Y-69153580D02*
X172754826Y-69201200D01*
X172754826Y-69201200D02*
X172611969Y-69248819D01*
X172611969Y-69248819D02*
X172516731Y-69248819D01*
X172516731Y-69248819D02*
X172373874Y-69201200D01*
X172373874Y-69201200D02*
X172278636Y-69105961D01*
X172278636Y-69105961D02*
X172231017Y-69010723D01*
X172231017Y-69010723D02*
X172183398Y-68820247D01*
X172183398Y-68820247D02*
X172183398Y-68677390D01*
X172183398Y-68677390D02*
X172231017Y-68486914D01*
X172231017Y-68486914D02*
X172278636Y-68391676D01*
X172278636Y-68391676D02*
X172373874Y-68296438D01*
X172373874Y-68296438D02*
X172516731Y-68248819D01*
X172516731Y-68248819D02*
X172611969Y-68248819D01*
X172611969Y-68248819D02*
X172754826Y-68296438D01*
X172754826Y-68296438D02*
X172802445Y-68344057D01*
X173707207Y-69248819D02*
X173231017Y-69248819D01*
X173231017Y-69248819D02*
X173231017Y-68248819D01*
X174040541Y-69248819D02*
X174040541Y-68248819D01*
X174611969Y-69248819D02*
X174183398Y-68677390D01*
X174611969Y-68248819D02*
X174040541Y-68820247D01*
X170088160Y-70811200D02*
X170231017Y-70858819D01*
X170231017Y-70858819D02*
X170469112Y-70858819D01*
X170469112Y-70858819D02*
X170564350Y-70811200D01*
X170564350Y-70811200D02*
X170611969Y-70763580D01*
X170611969Y-70763580D02*
X170659588Y-70668342D01*
X170659588Y-70668342D02*
X170659588Y-70573104D01*
X170659588Y-70573104D02*
X170611969Y-70477866D01*
X170611969Y-70477866D02*
X170564350Y-70430247D01*
X170564350Y-70430247D02*
X170469112Y-70382628D01*
X170469112Y-70382628D02*
X170278636Y-70335009D01*
X170278636Y-70335009D02*
X170183398Y-70287390D01*
X170183398Y-70287390D02*
X170135779Y-70239771D01*
X170135779Y-70239771D02*
X170088160Y-70144533D01*
X170088160Y-70144533D02*
X170088160Y-70049295D01*
X170088160Y-70049295D02*
X170135779Y-69954057D01*
X170135779Y-69954057D02*
X170183398Y-69906438D01*
X170183398Y-69906438D02*
X170278636Y-69858819D01*
X170278636Y-69858819D02*
X170516731Y-69858819D01*
X170516731Y-69858819D02*
X170659588Y-69906438D01*
X170992922Y-69858819D02*
X171231017Y-70858819D01*
X171231017Y-70858819D02*
X171421493Y-70144533D01*
X171421493Y-70144533D02*
X171611969Y-70858819D01*
X171611969Y-70858819D02*
X171850065Y-69858819D01*
X172231017Y-70858819D02*
X172231017Y-69858819D01*
X172231017Y-69858819D02*
X172469112Y-69858819D01*
X172469112Y-69858819D02*
X172611969Y-69906438D01*
X172611969Y-69906438D02*
X172707207Y-70001676D01*
X172707207Y-70001676D02*
X172754826Y-70096914D01*
X172754826Y-70096914D02*
X172802445Y-70287390D01*
X172802445Y-70287390D02*
X172802445Y-70430247D01*
X172802445Y-70430247D02*
X172754826Y-70620723D01*
X172754826Y-70620723D02*
X172707207Y-70715961D01*
X172707207Y-70715961D02*
X172611969Y-70811200D01*
X172611969Y-70811200D02*
X172469112Y-70858819D01*
X172469112Y-70858819D02*
X172231017Y-70858819D01*
X173231017Y-70858819D02*
X173231017Y-69858819D01*
X173897683Y-69858819D02*
X174088159Y-69858819D01*
X174088159Y-69858819D02*
X174183397Y-69906438D01*
X174183397Y-69906438D02*
X174278635Y-70001676D01*
X174278635Y-70001676D02*
X174326254Y-70192152D01*
X174326254Y-70192152D02*
X174326254Y-70525485D01*
X174326254Y-70525485D02*
X174278635Y-70715961D01*
X174278635Y-70715961D02*
X174183397Y-70811200D01*
X174183397Y-70811200D02*
X174088159Y-70858819D01*
X174088159Y-70858819D02*
X173897683Y-70858819D01*
X173897683Y-70858819D02*
X173802445Y-70811200D01*
X173802445Y-70811200D02*
X173707207Y-70715961D01*
X173707207Y-70715961D02*
X173659588Y-70525485D01*
X173659588Y-70525485D02*
X173659588Y-70192152D01*
X173659588Y-70192152D02*
X173707207Y-70001676D01*
X173707207Y-70001676D02*
X173802445Y-69906438D01*
X173802445Y-69906438D02*
X173897683Y-69858819D01*
X170135779Y-72468819D02*
X170135779Y-71468819D01*
X170135779Y-71468819D02*
X170707207Y-72468819D01*
X170707207Y-72468819D02*
X170707207Y-71468819D01*
X171754826Y-72468819D02*
X171421493Y-71992628D01*
X171183398Y-72468819D02*
X171183398Y-71468819D01*
X171183398Y-71468819D02*
X171564350Y-71468819D01*
X171564350Y-71468819D02*
X171659588Y-71516438D01*
X171659588Y-71516438D02*
X171707207Y-71564057D01*
X171707207Y-71564057D02*
X171754826Y-71659295D01*
X171754826Y-71659295D02*
X171754826Y-71802152D01*
X171754826Y-71802152D02*
X171707207Y-71897390D01*
X171707207Y-71897390D02*
X171659588Y-71945009D01*
X171659588Y-71945009D02*
X171564350Y-71992628D01*
X171564350Y-71992628D02*
X171183398Y-71992628D01*
X172135779Y-72421200D02*
X172278636Y-72468819D01*
X172278636Y-72468819D02*
X172516731Y-72468819D01*
X172516731Y-72468819D02*
X172611969Y-72421200D01*
X172611969Y-72421200D02*
X172659588Y-72373580D01*
X172659588Y-72373580D02*
X172707207Y-72278342D01*
X172707207Y-72278342D02*
X172707207Y-72183104D01*
X172707207Y-72183104D02*
X172659588Y-72087866D01*
X172659588Y-72087866D02*
X172611969Y-72040247D01*
X172611969Y-72040247D02*
X172516731Y-71992628D01*
X172516731Y-71992628D02*
X172326255Y-71945009D01*
X172326255Y-71945009D02*
X172231017Y-71897390D01*
X172231017Y-71897390D02*
X172183398Y-71849771D01*
X172183398Y-71849771D02*
X172135779Y-71754533D01*
X172135779Y-71754533D02*
X172135779Y-71659295D01*
X172135779Y-71659295D02*
X172183398Y-71564057D01*
X172183398Y-71564057D02*
X172231017Y-71516438D01*
X172231017Y-71516438D02*
X172326255Y-71468819D01*
X172326255Y-71468819D02*
X172564350Y-71468819D01*
X172564350Y-71468819D02*
X172707207Y-71516438D01*
X172992922Y-71468819D02*
X173564350Y-71468819D01*
X173278636Y-72468819D02*
X173278636Y-71468819D01*
X170040541Y-73078819D02*
X170659588Y-73078819D01*
X170659588Y-73078819D02*
X170326255Y-73459771D01*
X170326255Y-73459771D02*
X170469112Y-73459771D01*
X170469112Y-73459771D02*
X170564350Y-73507390D01*
X170564350Y-73507390D02*
X170611969Y-73555009D01*
X170611969Y-73555009D02*
X170659588Y-73650247D01*
X170659588Y-73650247D02*
X170659588Y-73888342D01*
X170659588Y-73888342D02*
X170611969Y-73983580D01*
X170611969Y-73983580D02*
X170564350Y-74031200D01*
X170564350Y-74031200D02*
X170469112Y-74078819D01*
X170469112Y-74078819D02*
X170183398Y-74078819D01*
X170183398Y-74078819D02*
X170088160Y-74031200D01*
X170088160Y-74031200D02*
X170040541Y-73983580D01*
X171088160Y-73983580D02*
X171135779Y-74031200D01*
X171135779Y-74031200D02*
X171088160Y-74078819D01*
X171088160Y-74078819D02*
X171040541Y-74031200D01*
X171040541Y-74031200D02*
X171088160Y-73983580D01*
X171088160Y-73983580D02*
X171088160Y-74078819D01*
X171469112Y-73078819D02*
X172088159Y-73078819D01*
X172088159Y-73078819D02*
X171754826Y-73459771D01*
X171754826Y-73459771D02*
X171897683Y-73459771D01*
X171897683Y-73459771D02*
X171992921Y-73507390D01*
X171992921Y-73507390D02*
X172040540Y-73555009D01*
X172040540Y-73555009D02*
X172088159Y-73650247D01*
X172088159Y-73650247D02*
X172088159Y-73888342D01*
X172088159Y-73888342D02*
X172040540Y-73983580D01*
X172040540Y-73983580D02*
X171992921Y-74031200D01*
X171992921Y-74031200D02*
X171897683Y-74078819D01*
X171897683Y-74078819D02*
X171611969Y-74078819D01*
X171611969Y-74078819D02*
X171516731Y-74031200D01*
X171516731Y-74031200D02*
X171469112Y-73983580D01*
X170659588Y-74736438D02*
X170564350Y-74688819D01*
X170564350Y-74688819D02*
X170421493Y-74688819D01*
X170421493Y-74688819D02*
X170278636Y-74736438D01*
X170278636Y-74736438D02*
X170183398Y-74831676D01*
X170183398Y-74831676D02*
X170135779Y-74926914D01*
X170135779Y-74926914D02*
X170088160Y-75117390D01*
X170088160Y-75117390D02*
X170088160Y-75260247D01*
X170088160Y-75260247D02*
X170135779Y-75450723D01*
X170135779Y-75450723D02*
X170183398Y-75545961D01*
X170183398Y-75545961D02*
X170278636Y-75641200D01*
X170278636Y-75641200D02*
X170421493Y-75688819D01*
X170421493Y-75688819D02*
X170516731Y-75688819D01*
X170516731Y-75688819D02*
X170659588Y-75641200D01*
X170659588Y-75641200D02*
X170707207Y-75593580D01*
X170707207Y-75593580D02*
X170707207Y-75260247D01*
X170707207Y-75260247D02*
X170516731Y-75260247D01*
X171135779Y-75688819D02*
X171135779Y-74688819D01*
X171135779Y-74688819D02*
X171707207Y-75688819D01*
X171707207Y-75688819D02*
X171707207Y-74688819D01*
X172183398Y-75688819D02*
X172183398Y-74688819D01*
X172183398Y-74688819D02*
X172421493Y-74688819D01*
X172421493Y-74688819D02*
X172564350Y-74736438D01*
X172564350Y-74736438D02*
X172659588Y-74831676D01*
X172659588Y-74831676D02*
X172707207Y-74926914D01*
X172707207Y-74926914D02*
X172754826Y-75117390D01*
X172754826Y-75117390D02*
X172754826Y-75260247D01*
X172754826Y-75260247D02*
X172707207Y-75450723D01*
X172707207Y-75450723D02*
X172659588Y-75545961D01*
X172659588Y-75545961D02*
X172564350Y-75641200D01*
X172564350Y-75641200D02*
X172421493Y-75688819D01*
X172421493Y-75688819D02*
X172183398Y-75688819D01*
X139211207Y-121916819D02*
X138877874Y-121440628D01*
X138639779Y-121916819D02*
X138639779Y-120916819D01*
X138639779Y-120916819D02*
X139020731Y-120916819D01*
X139020731Y-120916819D02*
X139115969Y-120964438D01*
X139115969Y-120964438D02*
X139163588Y-121012057D01*
X139163588Y-121012057D02*
X139211207Y-121107295D01*
X139211207Y-121107295D02*
X139211207Y-121250152D01*
X139211207Y-121250152D02*
X139163588Y-121345390D01*
X139163588Y-121345390D02*
X139115969Y-121393009D01*
X139115969Y-121393009D02*
X139020731Y-121440628D01*
X139020731Y-121440628D02*
X138639779Y-121440628D01*
X139925493Y-120916819D02*
X139925493Y-121631104D01*
X139925493Y-121631104D02*
X139877874Y-121773961D01*
X139877874Y-121773961D02*
X139782636Y-121869200D01*
X139782636Y-121869200D02*
X139639779Y-121916819D01*
X139639779Y-121916819D02*
X139544541Y-121916819D01*
X141163589Y-121916819D02*
X141163589Y-120916819D01*
X141163589Y-121393009D02*
X141735017Y-121393009D01*
X141735017Y-121916819D02*
X141735017Y-120916819D01*
X142592160Y-121869200D02*
X142496922Y-121916819D01*
X142496922Y-121916819D02*
X142306446Y-121916819D01*
X142306446Y-121916819D02*
X142211208Y-121869200D01*
X142211208Y-121869200D02*
X142163589Y-121773961D01*
X142163589Y-121773961D02*
X142163589Y-121393009D01*
X142163589Y-121393009D02*
X142211208Y-121297771D01*
X142211208Y-121297771D02*
X142306446Y-121250152D01*
X142306446Y-121250152D02*
X142496922Y-121250152D01*
X142496922Y-121250152D02*
X142592160Y-121297771D01*
X142592160Y-121297771D02*
X142639779Y-121393009D01*
X142639779Y-121393009D02*
X142639779Y-121488247D01*
X142639779Y-121488247D02*
X142163589Y-121583485D01*
X143496922Y-121250152D02*
X143496922Y-122059676D01*
X143496922Y-122059676D02*
X143449303Y-122154914D01*
X143449303Y-122154914D02*
X143401684Y-122202533D01*
X143401684Y-122202533D02*
X143306446Y-122250152D01*
X143306446Y-122250152D02*
X143163589Y-122250152D01*
X143163589Y-122250152D02*
X143068351Y-122202533D01*
X143496922Y-121869200D02*
X143401684Y-121916819D01*
X143401684Y-121916819D02*
X143211208Y-121916819D01*
X143211208Y-121916819D02*
X143115970Y-121869200D01*
X143115970Y-121869200D02*
X143068351Y-121821580D01*
X143068351Y-121821580D02*
X143020732Y-121726342D01*
X143020732Y-121726342D02*
X143020732Y-121440628D01*
X143020732Y-121440628D02*
X143068351Y-121345390D01*
X143068351Y-121345390D02*
X143115970Y-121297771D01*
X143115970Y-121297771D02*
X143211208Y-121250152D01*
X143211208Y-121250152D02*
X143401684Y-121250152D01*
X143401684Y-121250152D02*
X143496922Y-121297771D01*
X144115970Y-121916819D02*
X144020732Y-121869200D01*
X144020732Y-121869200D02*
X143973113Y-121773961D01*
X143973113Y-121773961D02*
X143973113Y-120916819D01*
X144877875Y-121869200D02*
X144782637Y-121916819D01*
X144782637Y-121916819D02*
X144592161Y-121916819D01*
X144592161Y-121916819D02*
X144496923Y-121869200D01*
X144496923Y-121869200D02*
X144449304Y-121773961D01*
X144449304Y-121773961D02*
X144449304Y-121393009D01*
X144449304Y-121393009D02*
X144496923Y-121297771D01*
X144496923Y-121297771D02*
X144592161Y-121250152D01*
X144592161Y-121250152D02*
X144782637Y-121250152D01*
X144782637Y-121250152D02*
X144877875Y-121297771D01*
X144877875Y-121297771D02*
X144925494Y-121393009D01*
X144925494Y-121393009D02*
X144925494Y-121488247D01*
X144925494Y-121488247D02*
X144449304Y-121583485D01*
X145354066Y-121916819D02*
X145354066Y-121250152D01*
X145354066Y-121440628D02*
X145401685Y-121345390D01*
X145401685Y-121345390D02*
X145449304Y-121297771D01*
X145449304Y-121297771D02*
X145544542Y-121250152D01*
X145544542Y-121250152D02*
X145639780Y-121250152D01*
X146592162Y-120916819D02*
X147163590Y-120916819D01*
X146877876Y-121916819D02*
X146877876Y-120916819D01*
X147877876Y-121869200D02*
X147782638Y-121916819D01*
X147782638Y-121916819D02*
X147592162Y-121916819D01*
X147592162Y-121916819D02*
X147496924Y-121869200D01*
X147496924Y-121869200D02*
X147449305Y-121773961D01*
X147449305Y-121773961D02*
X147449305Y-121393009D01*
X147449305Y-121393009D02*
X147496924Y-121297771D01*
X147496924Y-121297771D02*
X147592162Y-121250152D01*
X147592162Y-121250152D02*
X147782638Y-121250152D01*
X147782638Y-121250152D02*
X147877876Y-121297771D01*
X147877876Y-121297771D02*
X147925495Y-121393009D01*
X147925495Y-121393009D02*
X147925495Y-121488247D01*
X147925495Y-121488247D02*
X147449305Y-121583485D01*
X148782638Y-121869200D02*
X148687400Y-121916819D01*
X148687400Y-121916819D02*
X148496924Y-121916819D01*
X148496924Y-121916819D02*
X148401686Y-121869200D01*
X148401686Y-121869200D02*
X148354067Y-121821580D01*
X148354067Y-121821580D02*
X148306448Y-121726342D01*
X148306448Y-121726342D02*
X148306448Y-121440628D01*
X148306448Y-121440628D02*
X148354067Y-121345390D01*
X148354067Y-121345390D02*
X148401686Y-121297771D01*
X148401686Y-121297771D02*
X148496924Y-121250152D01*
X148496924Y-121250152D02*
X148687400Y-121250152D01*
X148687400Y-121250152D02*
X148782638Y-121297771D01*
X149211210Y-121916819D02*
X149211210Y-120916819D01*
X149639781Y-121916819D02*
X149639781Y-121393009D01*
X149639781Y-121393009D02*
X149592162Y-121297771D01*
X149592162Y-121297771D02*
X149496924Y-121250152D01*
X149496924Y-121250152D02*
X149354067Y-121250152D01*
X149354067Y-121250152D02*
X149258829Y-121297771D01*
X149258829Y-121297771D02*
X149211210Y-121345390D01*
X150115972Y-121250152D02*
X150115972Y-121916819D01*
X150115972Y-121345390D02*
X150163591Y-121297771D01*
X150163591Y-121297771D02*
X150258829Y-121250152D01*
X150258829Y-121250152D02*
X150401686Y-121250152D01*
X150401686Y-121250152D02*
X150496924Y-121297771D01*
X150496924Y-121297771D02*
X150544543Y-121393009D01*
X150544543Y-121393009D02*
X150544543Y-121916819D01*
X151163591Y-121916819D02*
X151068353Y-121869200D01*
X151068353Y-121869200D02*
X151020734Y-121821580D01*
X151020734Y-121821580D02*
X150973115Y-121726342D01*
X150973115Y-121726342D02*
X150973115Y-121440628D01*
X150973115Y-121440628D02*
X151020734Y-121345390D01*
X151020734Y-121345390D02*
X151068353Y-121297771D01*
X151068353Y-121297771D02*
X151163591Y-121250152D01*
X151163591Y-121250152D02*
X151306448Y-121250152D01*
X151306448Y-121250152D02*
X151401686Y-121297771D01*
X151401686Y-121297771D02*
X151449305Y-121345390D01*
X151449305Y-121345390D02*
X151496924Y-121440628D01*
X151496924Y-121440628D02*
X151496924Y-121726342D01*
X151496924Y-121726342D02*
X151449305Y-121821580D01*
X151449305Y-121821580D02*
X151401686Y-121869200D01*
X151401686Y-121869200D02*
X151306448Y-121916819D01*
X151306448Y-121916819D02*
X151163591Y-121916819D01*
X152068353Y-121916819D02*
X151973115Y-121869200D01*
X151973115Y-121869200D02*
X151925496Y-121773961D01*
X151925496Y-121773961D02*
X151925496Y-120916819D01*
X152592163Y-121916819D02*
X152496925Y-121869200D01*
X152496925Y-121869200D02*
X152449306Y-121821580D01*
X152449306Y-121821580D02*
X152401687Y-121726342D01*
X152401687Y-121726342D02*
X152401687Y-121440628D01*
X152401687Y-121440628D02*
X152449306Y-121345390D01*
X152449306Y-121345390D02*
X152496925Y-121297771D01*
X152496925Y-121297771D02*
X152592163Y-121250152D01*
X152592163Y-121250152D02*
X152735020Y-121250152D01*
X152735020Y-121250152D02*
X152830258Y-121297771D01*
X152830258Y-121297771D02*
X152877877Y-121345390D01*
X152877877Y-121345390D02*
X152925496Y-121440628D01*
X152925496Y-121440628D02*
X152925496Y-121726342D01*
X152925496Y-121726342D02*
X152877877Y-121821580D01*
X152877877Y-121821580D02*
X152830258Y-121869200D01*
X152830258Y-121869200D02*
X152735020Y-121916819D01*
X152735020Y-121916819D02*
X152592163Y-121916819D01*
X153782639Y-121250152D02*
X153782639Y-122059676D01*
X153782639Y-122059676D02*
X153735020Y-122154914D01*
X153735020Y-122154914D02*
X153687401Y-122202533D01*
X153687401Y-122202533D02*
X153592163Y-122250152D01*
X153592163Y-122250152D02*
X153449306Y-122250152D01*
X153449306Y-122250152D02*
X153354068Y-122202533D01*
X153782639Y-121869200D02*
X153687401Y-121916819D01*
X153687401Y-121916819D02*
X153496925Y-121916819D01*
X153496925Y-121916819D02*
X153401687Y-121869200D01*
X153401687Y-121869200D02*
X153354068Y-121821580D01*
X153354068Y-121821580D02*
X153306449Y-121726342D01*
X153306449Y-121726342D02*
X153306449Y-121440628D01*
X153306449Y-121440628D02*
X153354068Y-121345390D01*
X153354068Y-121345390D02*
X153401687Y-121297771D01*
X153401687Y-121297771D02*
X153496925Y-121250152D01*
X153496925Y-121250152D02*
X153687401Y-121250152D01*
X153687401Y-121250152D02*
X153782639Y-121297771D01*
X154258830Y-121916819D02*
X154258830Y-121250152D01*
X154258830Y-120916819D02*
X154211211Y-120964438D01*
X154211211Y-120964438D02*
X154258830Y-121012057D01*
X154258830Y-121012057D02*
X154306449Y-120964438D01*
X154306449Y-120964438D02*
X154258830Y-120916819D01*
X154258830Y-120916819D02*
X154258830Y-121012057D01*
X155115972Y-121869200D02*
X155020734Y-121916819D01*
X155020734Y-121916819D02*
X154830258Y-121916819D01*
X154830258Y-121916819D02*
X154735020Y-121869200D01*
X154735020Y-121869200D02*
X154687401Y-121773961D01*
X154687401Y-121773961D02*
X154687401Y-121393009D01*
X154687401Y-121393009D02*
X154735020Y-121297771D01*
X154735020Y-121297771D02*
X154830258Y-121250152D01*
X154830258Y-121250152D02*
X155020734Y-121250152D01*
X155020734Y-121250152D02*
X155115972Y-121297771D01*
X155115972Y-121297771D02*
X155163591Y-121393009D01*
X155163591Y-121393009D02*
X155163591Y-121488247D01*
X155163591Y-121488247D02*
X154687401Y-121583485D01*
X155544544Y-121869200D02*
X155639782Y-121916819D01*
X155639782Y-121916819D02*
X155830258Y-121916819D01*
X155830258Y-121916819D02*
X155925496Y-121869200D01*
X155925496Y-121869200D02*
X155973115Y-121773961D01*
X155973115Y-121773961D02*
X155973115Y-121726342D01*
X155973115Y-121726342D02*
X155925496Y-121631104D01*
X155925496Y-121631104D02*
X155830258Y-121583485D01*
X155830258Y-121583485D02*
X155687401Y-121583485D01*
X155687401Y-121583485D02*
X155592163Y-121535866D01*
X155592163Y-121535866D02*
X155544544Y-121440628D01*
X155544544Y-121440628D02*
X155544544Y-121393009D01*
X155544544Y-121393009D02*
X155592163Y-121297771D01*
X155592163Y-121297771D02*
X155687401Y-121250152D01*
X155687401Y-121250152D02*
X155830258Y-121250152D01*
X155830258Y-121250152D02*
X155925496Y-121297771D01*
X156449306Y-121869200D02*
X156449306Y-121916819D01*
X156449306Y-121916819D02*
X156401687Y-122012057D01*
X156401687Y-122012057D02*
X156354068Y-122059676D01*
X158115972Y-121916819D02*
X157639782Y-121916819D01*
X157639782Y-121916819D02*
X157639782Y-120916819D01*
X158925496Y-121916819D02*
X158449306Y-121916819D01*
X158449306Y-121916819D02*
X158449306Y-120916819D01*
X159830258Y-121821580D02*
X159782639Y-121869200D01*
X159782639Y-121869200D02*
X159639782Y-121916819D01*
X159639782Y-121916819D02*
X159544544Y-121916819D01*
X159544544Y-121916819D02*
X159401687Y-121869200D01*
X159401687Y-121869200D02*
X159306449Y-121773961D01*
X159306449Y-121773961D02*
X159258830Y-121678723D01*
X159258830Y-121678723D02*
X159211211Y-121488247D01*
X159211211Y-121488247D02*
X159211211Y-121345390D01*
X159211211Y-121345390D02*
X159258830Y-121154914D01*
X159258830Y-121154914D02*
X159306449Y-121059676D01*
X159306449Y-121059676D02*
X159401687Y-120964438D01*
X159401687Y-120964438D02*
X159544544Y-120916819D01*
X159544544Y-120916819D02*
X159639782Y-120916819D01*
X159639782Y-120916819D02*
X159782639Y-120964438D01*
X159782639Y-120964438D02*
X159830258Y-121012057D01*
X162502571Y-83536164D02*
X162931143Y-83536164D01*
X162716857Y-84286164D02*
X162716857Y-83536164D01*
X163181143Y-84286164D02*
X163181143Y-83536164D01*
X163181143Y-83536164D02*
X163466857Y-83536164D01*
X163466857Y-83536164D02*
X163538286Y-83571878D01*
X163538286Y-83571878D02*
X163574000Y-83607592D01*
X163574000Y-83607592D02*
X163609714Y-83679021D01*
X163609714Y-83679021D02*
X163609714Y-83786164D01*
X163609714Y-83786164D02*
X163574000Y-83857592D01*
X163574000Y-83857592D02*
X163538286Y-83893307D01*
X163538286Y-83893307D02*
X163466857Y-83929021D01*
X163466857Y-83929021D02*
X163181143Y-83929021D01*
X164252572Y-83786164D02*
X164252572Y-84286164D01*
X164074000Y-83500450D02*
X163895429Y-84036164D01*
X163895429Y-84036164D02*
X164359714Y-84036164D01*
X155408333Y-99386580D02*
X155360714Y-99434200D01*
X155360714Y-99434200D02*
X155217857Y-99481819D01*
X155217857Y-99481819D02*
X155122619Y-99481819D01*
X155122619Y-99481819D02*
X154979762Y-99434200D01*
X154979762Y-99434200D02*
X154884524Y-99338961D01*
X154884524Y-99338961D02*
X154836905Y-99243723D01*
X154836905Y-99243723D02*
X154789286Y-99053247D01*
X154789286Y-99053247D02*
X154789286Y-98910390D01*
X154789286Y-98910390D02*
X154836905Y-98719914D01*
X154836905Y-98719914D02*
X154884524Y-98624676D01*
X154884524Y-98624676D02*
X154979762Y-98529438D01*
X154979762Y-98529438D02*
X155122619Y-98481819D01*
X155122619Y-98481819D02*
X155217857Y-98481819D01*
X155217857Y-98481819D02*
X155360714Y-98529438D01*
X155360714Y-98529438D02*
X155408333Y-98577057D01*
X155741667Y-98481819D02*
X156360714Y-98481819D01*
X156360714Y-98481819D02*
X156027381Y-98862771D01*
X156027381Y-98862771D02*
X156170238Y-98862771D01*
X156170238Y-98862771D02*
X156265476Y-98910390D01*
X156265476Y-98910390D02*
X156313095Y-98958009D01*
X156313095Y-98958009D02*
X156360714Y-99053247D01*
X156360714Y-99053247D02*
X156360714Y-99291342D01*
X156360714Y-99291342D02*
X156313095Y-99386580D01*
X156313095Y-99386580D02*
X156265476Y-99434200D01*
X156265476Y-99434200D02*
X156170238Y-99481819D01*
X156170238Y-99481819D02*
X155884524Y-99481819D01*
X155884524Y-99481819D02*
X155789286Y-99434200D01*
X155789286Y-99434200D02*
X155741667Y-99386580D01*
X159575667Y-99848200D02*
X159718524Y-99895819D01*
X159718524Y-99895819D02*
X159956619Y-99895819D01*
X159956619Y-99895819D02*
X160051857Y-99848200D01*
X160051857Y-99848200D02*
X160099476Y-99800580D01*
X160099476Y-99800580D02*
X160147095Y-99705342D01*
X160147095Y-99705342D02*
X160147095Y-99610104D01*
X160147095Y-99610104D02*
X160099476Y-99514866D01*
X160099476Y-99514866D02*
X160051857Y-99467247D01*
X160051857Y-99467247D02*
X159956619Y-99419628D01*
X159956619Y-99419628D02*
X159766143Y-99372009D01*
X159766143Y-99372009D02*
X159670905Y-99324390D01*
X159670905Y-99324390D02*
X159623286Y-99276771D01*
X159623286Y-99276771D02*
X159575667Y-99181533D01*
X159575667Y-99181533D02*
X159575667Y-99086295D01*
X159575667Y-99086295D02*
X159623286Y-98991057D01*
X159623286Y-98991057D02*
X159670905Y-98943438D01*
X159670905Y-98943438D02*
X159766143Y-98895819D01*
X159766143Y-98895819D02*
X160004238Y-98895819D01*
X160004238Y-98895819D02*
X160147095Y-98943438D01*
X160480429Y-98895819D02*
X160718524Y-99895819D01*
X160718524Y-99895819D02*
X160909000Y-99181533D01*
X160909000Y-99181533D02*
X161099476Y-99895819D01*
X161099476Y-99895819D02*
X161337572Y-98895819D01*
X161670905Y-98991057D02*
X161718524Y-98943438D01*
X161718524Y-98943438D02*
X161813762Y-98895819D01*
X161813762Y-98895819D02*
X162051857Y-98895819D01*
X162051857Y-98895819D02*
X162147095Y-98943438D01*
X162147095Y-98943438D02*
X162194714Y-98991057D01*
X162194714Y-98991057D02*
X162242333Y-99086295D01*
X162242333Y-99086295D02*
X162242333Y-99181533D01*
X162242333Y-99181533D02*
X162194714Y-99324390D01*
X162194714Y-99324390D02*
X161623286Y-99895819D01*
X161623286Y-99895819D02*
X162242333Y-99895819D01*
X147041819Y-109092904D02*
X147851342Y-109092904D01*
X147851342Y-109092904D02*
X147946580Y-109045285D01*
X147946580Y-109045285D02*
X147994200Y-108997666D01*
X147994200Y-108997666D02*
X148041819Y-108902428D01*
X148041819Y-108902428D02*
X148041819Y-108711952D01*
X148041819Y-108711952D02*
X147994200Y-108616714D01*
X147994200Y-108616714D02*
X147946580Y-108569095D01*
X147946580Y-108569095D02*
X147851342Y-108521476D01*
X147851342Y-108521476D02*
X147041819Y-108521476D01*
X148041819Y-107521476D02*
X148041819Y-108092904D01*
X148041819Y-107807190D02*
X147041819Y-107807190D01*
X147041819Y-107807190D02*
X147184676Y-107902428D01*
X147184676Y-107902428D02*
X147279914Y-107997666D01*
X147279914Y-107997666D02*
X147327533Y-108092904D01*
X174858819Y-91225666D02*
X174382628Y-91558999D01*
X174858819Y-91797094D02*
X173858819Y-91797094D01*
X173858819Y-91797094D02*
X173858819Y-91416142D01*
X173858819Y-91416142D02*
X173906438Y-91320904D01*
X173906438Y-91320904D02*
X173954057Y-91273285D01*
X173954057Y-91273285D02*
X174049295Y-91225666D01*
X174049295Y-91225666D02*
X174192152Y-91225666D01*
X174192152Y-91225666D02*
X174287390Y-91273285D01*
X174287390Y-91273285D02*
X174335009Y-91320904D01*
X174335009Y-91320904D02*
X174382628Y-91416142D01*
X174382628Y-91416142D02*
X174382628Y-91797094D01*
X173858819Y-90892332D02*
X173858819Y-90225666D01*
X173858819Y-90225666D02*
X174858819Y-90654237D01*
X152850571Y-81504164D02*
X153279143Y-81504164D01*
X153064857Y-82254164D02*
X153064857Y-81504164D01*
X153529143Y-82254164D02*
X153529143Y-81504164D01*
X153529143Y-81504164D02*
X153814857Y-81504164D01*
X153814857Y-81504164D02*
X153886286Y-81539878D01*
X153886286Y-81539878D02*
X153922000Y-81575592D01*
X153922000Y-81575592D02*
X153957714Y-81647021D01*
X153957714Y-81647021D02*
X153957714Y-81754164D01*
X153957714Y-81754164D02*
X153922000Y-81825592D01*
X153922000Y-81825592D02*
X153886286Y-81861307D01*
X153886286Y-81861307D02*
X153814857Y-81897021D01*
X153814857Y-81897021D02*
X153529143Y-81897021D01*
X154207714Y-81504164D02*
X154672000Y-81504164D01*
X154672000Y-81504164D02*
X154422000Y-81789878D01*
X154422000Y-81789878D02*
X154529143Y-81789878D01*
X154529143Y-81789878D02*
X154600572Y-81825592D01*
X154600572Y-81825592D02*
X154636286Y-81861307D01*
X154636286Y-81861307D02*
X154672000Y-81932735D01*
X154672000Y-81932735D02*
X154672000Y-82111307D01*
X154672000Y-82111307D02*
X154636286Y-82182735D01*
X154636286Y-82182735D02*
X154600572Y-82218450D01*
X154600572Y-82218450D02*
X154529143Y-82254164D01*
X154529143Y-82254164D02*
X154314857Y-82254164D01*
X154314857Y-82254164D02*
X154243429Y-82218450D01*
X154243429Y-82218450D02*
X154207714Y-82182735D01*
X127867580Y-96559666D02*
X127915200Y-96607285D01*
X127915200Y-96607285D02*
X127962819Y-96750142D01*
X127962819Y-96750142D02*
X127962819Y-96845380D01*
X127962819Y-96845380D02*
X127915200Y-96988237D01*
X127915200Y-96988237D02*
X127819961Y-97083475D01*
X127819961Y-97083475D02*
X127724723Y-97131094D01*
X127724723Y-97131094D02*
X127534247Y-97178713D01*
X127534247Y-97178713D02*
X127391390Y-97178713D01*
X127391390Y-97178713D02*
X127200914Y-97131094D01*
X127200914Y-97131094D02*
X127105676Y-97083475D01*
X127105676Y-97083475D02*
X127010438Y-96988237D01*
X127010438Y-96988237D02*
X126962819Y-96845380D01*
X126962819Y-96845380D02*
X126962819Y-96750142D01*
X126962819Y-96750142D02*
X127010438Y-96607285D01*
X127010438Y-96607285D02*
X127058057Y-96559666D01*
X126962819Y-96226332D02*
X126962819Y-95559666D01*
X126962819Y-95559666D02*
X127962819Y-95988237D01*
X137668095Y-101745819D02*
X137668095Y-102555342D01*
X137668095Y-102555342D02*
X137715714Y-102650580D01*
X137715714Y-102650580D02*
X137763333Y-102698200D01*
X137763333Y-102698200D02*
X137858571Y-102745819D01*
X137858571Y-102745819D02*
X138049047Y-102745819D01*
X138049047Y-102745819D02*
X138144285Y-102698200D01*
X138144285Y-102698200D02*
X138191904Y-102650580D01*
X138191904Y-102650580D02*
X138239523Y-102555342D01*
X138239523Y-102555342D02*
X138239523Y-101745819D01*
X138668095Y-101841057D02*
X138715714Y-101793438D01*
X138715714Y-101793438D02*
X138810952Y-101745819D01*
X138810952Y-101745819D02*
X139049047Y-101745819D01*
X139049047Y-101745819D02*
X139144285Y-101793438D01*
X139144285Y-101793438D02*
X139191904Y-101841057D01*
X139191904Y-101841057D02*
X139239523Y-101936295D01*
X139239523Y-101936295D02*
X139239523Y-102031533D01*
X139239523Y-102031533D02*
X139191904Y-102174390D01*
X139191904Y-102174390D02*
X138620476Y-102745819D01*
X138620476Y-102745819D02*
X139239523Y-102745819D01*
X124405580Y-93511666D02*
X124453200Y-93559285D01*
X124453200Y-93559285D02*
X124500819Y-93702142D01*
X124500819Y-93702142D02*
X124500819Y-93797380D01*
X124500819Y-93797380D02*
X124453200Y-93940237D01*
X124453200Y-93940237D02*
X124357961Y-94035475D01*
X124357961Y-94035475D02*
X124262723Y-94083094D01*
X124262723Y-94083094D02*
X124072247Y-94130713D01*
X124072247Y-94130713D02*
X123929390Y-94130713D01*
X123929390Y-94130713D02*
X123738914Y-94083094D01*
X123738914Y-94083094D02*
X123643676Y-94035475D01*
X123643676Y-94035475D02*
X123548438Y-93940237D01*
X123548438Y-93940237D02*
X123500819Y-93797380D01*
X123500819Y-93797380D02*
X123500819Y-93702142D01*
X123500819Y-93702142D02*
X123548438Y-93559285D01*
X123548438Y-93559285D02*
X123596057Y-93511666D01*
X123500819Y-92654523D02*
X123500819Y-92844999D01*
X123500819Y-92844999D02*
X123548438Y-92940237D01*
X123548438Y-92940237D02*
X123596057Y-92987856D01*
X123596057Y-92987856D02*
X123738914Y-93083094D01*
X123738914Y-93083094D02*
X123929390Y-93130713D01*
X123929390Y-93130713D02*
X124310342Y-93130713D01*
X124310342Y-93130713D02*
X124405580Y-93083094D01*
X124405580Y-93083094D02*
X124453200Y-93035475D01*
X124453200Y-93035475D02*
X124500819Y-92940237D01*
X124500819Y-92940237D02*
X124500819Y-92749761D01*
X124500819Y-92749761D02*
X124453200Y-92654523D01*
X124453200Y-92654523D02*
X124405580Y-92606904D01*
X124405580Y-92606904D02*
X124310342Y-92559285D01*
X124310342Y-92559285D02*
X124072247Y-92559285D01*
X124072247Y-92559285D02*
X123977009Y-92606904D01*
X123977009Y-92606904D02*
X123929390Y-92654523D01*
X123929390Y-92654523D02*
X123881771Y-92749761D01*
X123881771Y-92749761D02*
X123881771Y-92940237D01*
X123881771Y-92940237D02*
X123929390Y-93035475D01*
X123929390Y-93035475D02*
X123977009Y-93083094D01*
X123977009Y-93083094D02*
X124072247Y-93130713D01*
X171989761Y-97959057D02*
X171894523Y-97911438D01*
X171894523Y-97911438D02*
X171799285Y-97816200D01*
X171799285Y-97816200D02*
X171656428Y-97673342D01*
X171656428Y-97673342D02*
X171561190Y-97625723D01*
X171561190Y-97625723D02*
X171465952Y-97625723D01*
X171513571Y-97863819D02*
X171418333Y-97816200D01*
X171418333Y-97816200D02*
X171323095Y-97720961D01*
X171323095Y-97720961D02*
X171275476Y-97530485D01*
X171275476Y-97530485D02*
X171275476Y-97197152D01*
X171275476Y-97197152D02*
X171323095Y-97006676D01*
X171323095Y-97006676D02*
X171418333Y-96911438D01*
X171418333Y-96911438D02*
X171513571Y-96863819D01*
X171513571Y-96863819D02*
X171704047Y-96863819D01*
X171704047Y-96863819D02*
X171799285Y-96911438D01*
X171799285Y-96911438D02*
X171894523Y-97006676D01*
X171894523Y-97006676D02*
X171942142Y-97197152D01*
X171942142Y-97197152D02*
X171942142Y-97530485D01*
X171942142Y-97530485D02*
X171894523Y-97720961D01*
X171894523Y-97720961D02*
X171799285Y-97816200D01*
X171799285Y-97816200D02*
X171704047Y-97863819D01*
X171704047Y-97863819D02*
X171513571Y-97863819D01*
X172894523Y-97863819D02*
X172323095Y-97863819D01*
X172608809Y-97863819D02*
X172608809Y-96863819D01*
X172608809Y-96863819D02*
X172513571Y-97006676D01*
X172513571Y-97006676D02*
X172418333Y-97101914D01*
X172418333Y-97101914D02*
X172323095Y-97149533D01*
X171047580Y-81319666D02*
X171095200Y-81367285D01*
X171095200Y-81367285D02*
X171142819Y-81510142D01*
X171142819Y-81510142D02*
X171142819Y-81605380D01*
X171142819Y-81605380D02*
X171095200Y-81748237D01*
X171095200Y-81748237D02*
X170999961Y-81843475D01*
X170999961Y-81843475D02*
X170904723Y-81891094D01*
X170904723Y-81891094D02*
X170714247Y-81938713D01*
X170714247Y-81938713D02*
X170571390Y-81938713D01*
X170571390Y-81938713D02*
X170380914Y-81891094D01*
X170380914Y-81891094D02*
X170285676Y-81843475D01*
X170285676Y-81843475D02*
X170190438Y-81748237D01*
X170190438Y-81748237D02*
X170142819Y-81605380D01*
X170142819Y-81605380D02*
X170142819Y-81510142D01*
X170142819Y-81510142D02*
X170190438Y-81367285D01*
X170190438Y-81367285D02*
X170238057Y-81319666D01*
X170571390Y-80748237D02*
X170523771Y-80843475D01*
X170523771Y-80843475D02*
X170476152Y-80891094D01*
X170476152Y-80891094D02*
X170380914Y-80938713D01*
X170380914Y-80938713D02*
X170333295Y-80938713D01*
X170333295Y-80938713D02*
X170238057Y-80891094D01*
X170238057Y-80891094D02*
X170190438Y-80843475D01*
X170190438Y-80843475D02*
X170142819Y-80748237D01*
X170142819Y-80748237D02*
X170142819Y-80557761D01*
X170142819Y-80557761D02*
X170190438Y-80462523D01*
X170190438Y-80462523D02*
X170238057Y-80414904D01*
X170238057Y-80414904D02*
X170333295Y-80367285D01*
X170333295Y-80367285D02*
X170380914Y-80367285D01*
X170380914Y-80367285D02*
X170476152Y-80414904D01*
X170476152Y-80414904D02*
X170523771Y-80462523D01*
X170523771Y-80462523D02*
X170571390Y-80557761D01*
X170571390Y-80557761D02*
X170571390Y-80748237D01*
X170571390Y-80748237D02*
X170619009Y-80843475D01*
X170619009Y-80843475D02*
X170666628Y-80891094D01*
X170666628Y-80891094D02*
X170761866Y-80938713D01*
X170761866Y-80938713D02*
X170952342Y-80938713D01*
X170952342Y-80938713D02*
X171047580Y-80891094D01*
X171047580Y-80891094D02*
X171095200Y-80843475D01*
X171095200Y-80843475D02*
X171142819Y-80748237D01*
X171142819Y-80748237D02*
X171142819Y-80557761D01*
X171142819Y-80557761D02*
X171095200Y-80462523D01*
X171095200Y-80462523D02*
X171047580Y-80414904D01*
X171047580Y-80414904D02*
X170952342Y-80367285D01*
X170952342Y-80367285D02*
X170761866Y-80367285D01*
X170761866Y-80367285D02*
X170666628Y-80414904D01*
X170666628Y-80414904D02*
X170619009Y-80462523D01*
X170619009Y-80462523D02*
X170571390Y-80557761D01*
X163790333Y-91005819D02*
X163457000Y-90529628D01*
X163218905Y-91005819D02*
X163218905Y-90005819D01*
X163218905Y-90005819D02*
X163599857Y-90005819D01*
X163599857Y-90005819D02*
X163695095Y-90053438D01*
X163695095Y-90053438D02*
X163742714Y-90101057D01*
X163742714Y-90101057D02*
X163790333Y-90196295D01*
X163790333Y-90196295D02*
X163790333Y-90339152D01*
X163790333Y-90339152D02*
X163742714Y-90434390D01*
X163742714Y-90434390D02*
X163695095Y-90482009D01*
X163695095Y-90482009D02*
X163599857Y-90529628D01*
X163599857Y-90529628D02*
X163218905Y-90529628D01*
X164647476Y-90339152D02*
X164647476Y-91005819D01*
X164409381Y-89958200D02*
X164171286Y-90672485D01*
X164171286Y-90672485D02*
X164790333Y-90672485D01*
X177652819Y-91225666D02*
X177176628Y-91558999D01*
X177652819Y-91797094D02*
X176652819Y-91797094D01*
X176652819Y-91797094D02*
X176652819Y-91416142D01*
X176652819Y-91416142D02*
X176700438Y-91320904D01*
X176700438Y-91320904D02*
X176748057Y-91273285D01*
X176748057Y-91273285D02*
X176843295Y-91225666D01*
X176843295Y-91225666D02*
X176986152Y-91225666D01*
X176986152Y-91225666D02*
X177081390Y-91273285D01*
X177081390Y-91273285D02*
X177129009Y-91320904D01*
X177129009Y-91320904D02*
X177176628Y-91416142D01*
X177176628Y-91416142D02*
X177176628Y-91797094D01*
X177081390Y-90654237D02*
X177033771Y-90749475D01*
X177033771Y-90749475D02*
X176986152Y-90797094D01*
X176986152Y-90797094D02*
X176890914Y-90844713D01*
X176890914Y-90844713D02*
X176843295Y-90844713D01*
X176843295Y-90844713D02*
X176748057Y-90797094D01*
X176748057Y-90797094D02*
X176700438Y-90749475D01*
X176700438Y-90749475D02*
X176652819Y-90654237D01*
X176652819Y-90654237D02*
X176652819Y-90463761D01*
X176652819Y-90463761D02*
X176700438Y-90368523D01*
X176700438Y-90368523D02*
X176748057Y-90320904D01*
X176748057Y-90320904D02*
X176843295Y-90273285D01*
X176843295Y-90273285D02*
X176890914Y-90273285D01*
X176890914Y-90273285D02*
X176986152Y-90320904D01*
X176986152Y-90320904D02*
X177033771Y-90368523D01*
X177033771Y-90368523D02*
X177081390Y-90463761D01*
X177081390Y-90463761D02*
X177081390Y-90654237D01*
X177081390Y-90654237D02*
X177129009Y-90749475D01*
X177129009Y-90749475D02*
X177176628Y-90797094D01*
X177176628Y-90797094D02*
X177271866Y-90844713D01*
X177271866Y-90844713D02*
X177462342Y-90844713D01*
X177462342Y-90844713D02*
X177557580Y-90797094D01*
X177557580Y-90797094D02*
X177605200Y-90749475D01*
X177605200Y-90749475D02*
X177652819Y-90654237D01*
X177652819Y-90654237D02*
X177652819Y-90463761D01*
X177652819Y-90463761D02*
X177605200Y-90368523D01*
X177605200Y-90368523D02*
X177557580Y-90320904D01*
X177557580Y-90320904D02*
X177462342Y-90273285D01*
X177462342Y-90273285D02*
X177271866Y-90273285D01*
X177271866Y-90273285D02*
X177176628Y-90320904D01*
X177176628Y-90320904D02*
X177129009Y-90368523D01*
X177129009Y-90368523D02*
X177081390Y-90463761D01*
X175180666Y-71546819D02*
X175180666Y-72261104D01*
X175180666Y-72261104D02*
X175133047Y-72403961D01*
X175133047Y-72403961D02*
X175037809Y-72499200D01*
X175037809Y-72499200D02*
X174894952Y-72546819D01*
X174894952Y-72546819D02*
X174799714Y-72546819D01*
X176180666Y-72546819D02*
X175609238Y-72546819D01*
X175894952Y-72546819D02*
X175894952Y-71546819D01*
X175894952Y-71546819D02*
X175799714Y-71689676D01*
X175799714Y-71689676D02*
X175704476Y-71784914D01*
X175704476Y-71784914D02*
X175609238Y-71832533D01*
X166443819Y-86336094D02*
X165443819Y-86336094D01*
X165443819Y-86336094D02*
X165443819Y-86097999D01*
X165443819Y-86097999D02*
X165491438Y-85955142D01*
X165491438Y-85955142D02*
X165586676Y-85859904D01*
X165586676Y-85859904D02*
X165681914Y-85812285D01*
X165681914Y-85812285D02*
X165872390Y-85764666D01*
X165872390Y-85764666D02*
X166015247Y-85764666D01*
X166015247Y-85764666D02*
X166205723Y-85812285D01*
X166205723Y-85812285D02*
X166300961Y-85859904D01*
X166300961Y-85859904D02*
X166396200Y-85955142D01*
X166396200Y-85955142D02*
X166443819Y-86097999D01*
X166443819Y-86097999D02*
X166443819Y-86336094D01*
X165443819Y-85431332D02*
X165443819Y-84812285D01*
X165443819Y-84812285D02*
X165824771Y-85145618D01*
X165824771Y-85145618D02*
X165824771Y-85002761D01*
X165824771Y-85002761D02*
X165872390Y-84907523D01*
X165872390Y-84907523D02*
X165920009Y-84859904D01*
X165920009Y-84859904D02*
X166015247Y-84812285D01*
X166015247Y-84812285D02*
X166253342Y-84812285D01*
X166253342Y-84812285D02*
X166348580Y-84859904D01*
X166348580Y-84859904D02*
X166396200Y-84907523D01*
X166396200Y-84907523D02*
X166443819Y-85002761D01*
X166443819Y-85002761D02*
X166443819Y-85288475D01*
X166443819Y-85288475D02*
X166396200Y-85383713D01*
X166396200Y-85383713D02*
X166348580Y-85431332D01*
X175434666Y-116167819D02*
X175434666Y-116882104D01*
X175434666Y-116882104D02*
X175387047Y-117024961D01*
X175387047Y-117024961D02*
X175291809Y-117120200D01*
X175291809Y-117120200D02*
X175148952Y-117167819D01*
X175148952Y-117167819D02*
X175053714Y-117167819D01*
X175863238Y-116263057D02*
X175910857Y-116215438D01*
X175910857Y-116215438D02*
X176006095Y-116167819D01*
X176006095Y-116167819D02*
X176244190Y-116167819D01*
X176244190Y-116167819D02*
X176339428Y-116215438D01*
X176339428Y-116215438D02*
X176387047Y-116263057D01*
X176387047Y-116263057D02*
X176434666Y-116358295D01*
X176434666Y-116358295D02*
X176434666Y-116453533D01*
X176434666Y-116453533D02*
X176387047Y-116596390D01*
X176387047Y-116596390D02*
X175815619Y-117167819D01*
X175815619Y-117167819D02*
X176434666Y-117167819D01*
X153606667Y-89815200D02*
X153749524Y-89862819D01*
X153749524Y-89862819D02*
X153987619Y-89862819D01*
X153987619Y-89862819D02*
X154082857Y-89815200D01*
X154082857Y-89815200D02*
X154130476Y-89767580D01*
X154130476Y-89767580D02*
X154178095Y-89672342D01*
X154178095Y-89672342D02*
X154178095Y-89577104D01*
X154178095Y-89577104D02*
X154130476Y-89481866D01*
X154130476Y-89481866D02*
X154082857Y-89434247D01*
X154082857Y-89434247D02*
X153987619Y-89386628D01*
X153987619Y-89386628D02*
X153797143Y-89339009D01*
X153797143Y-89339009D02*
X153701905Y-89291390D01*
X153701905Y-89291390D02*
X153654286Y-89243771D01*
X153654286Y-89243771D02*
X153606667Y-89148533D01*
X153606667Y-89148533D02*
X153606667Y-89053295D01*
X153606667Y-89053295D02*
X153654286Y-88958057D01*
X153654286Y-88958057D02*
X153701905Y-88910438D01*
X153701905Y-88910438D02*
X153797143Y-88862819D01*
X153797143Y-88862819D02*
X154035238Y-88862819D01*
X154035238Y-88862819D02*
X154178095Y-88910438D01*
X154511429Y-88862819D02*
X154749524Y-89862819D01*
X154749524Y-89862819D02*
X154940000Y-89148533D01*
X154940000Y-89148533D02*
X155130476Y-89862819D01*
X155130476Y-89862819D02*
X155368572Y-88862819D01*
X156273333Y-89862819D02*
X155701905Y-89862819D01*
X155987619Y-89862819D02*
X155987619Y-88862819D01*
X155987619Y-88862819D02*
X155892381Y-89005676D01*
X155892381Y-89005676D02*
X155797143Y-89100914D01*
X155797143Y-89100914D02*
X155701905Y-89148533D01*
X123674333Y-75480104D02*
X124150523Y-75480104D01*
X123579095Y-75765819D02*
X123912428Y-74765819D01*
X123912428Y-74765819D02*
X124245761Y-75765819D01*
X124579095Y-75242009D02*
X124912428Y-75242009D01*
X125055285Y-75765819D02*
X124579095Y-75765819D01*
X124579095Y-75765819D02*
X124579095Y-74765819D01*
X124579095Y-74765819D02*
X125055285Y-74765819D01*
X126007666Y-75765819D02*
X125436238Y-75765819D01*
X125721952Y-75765819D02*
X125721952Y-74765819D01*
X125721952Y-74765819D02*
X125626714Y-74908676D01*
X125626714Y-74908676D02*
X125531476Y-75003914D01*
X125531476Y-75003914D02*
X125436238Y-75051533D01*
X161867571Y-72182164D02*
X162296143Y-72182164D01*
X162081857Y-72932164D02*
X162081857Y-72182164D01*
X162546143Y-72932164D02*
X162546143Y-72182164D01*
X162546143Y-72182164D02*
X162831857Y-72182164D01*
X162831857Y-72182164D02*
X162903286Y-72217878D01*
X162903286Y-72217878D02*
X162939000Y-72253592D01*
X162939000Y-72253592D02*
X162974714Y-72325021D01*
X162974714Y-72325021D02*
X162974714Y-72432164D01*
X162974714Y-72432164D02*
X162939000Y-72503592D01*
X162939000Y-72503592D02*
X162903286Y-72539307D01*
X162903286Y-72539307D02*
X162831857Y-72575021D01*
X162831857Y-72575021D02*
X162546143Y-72575021D01*
X163260429Y-72253592D02*
X163296143Y-72217878D01*
X163296143Y-72217878D02*
X163367572Y-72182164D01*
X163367572Y-72182164D02*
X163546143Y-72182164D01*
X163546143Y-72182164D02*
X163617572Y-72217878D01*
X163617572Y-72217878D02*
X163653286Y-72253592D01*
X163653286Y-72253592D02*
X163689000Y-72325021D01*
X163689000Y-72325021D02*
X163689000Y-72396450D01*
X163689000Y-72396450D02*
X163653286Y-72503592D01*
X163653286Y-72503592D02*
X163224714Y-72932164D01*
X163224714Y-72932164D02*
X163689000Y-72932164D01*
X121753333Y-79480580D02*
X121705714Y-79528200D01*
X121705714Y-79528200D02*
X121562857Y-79575819D01*
X121562857Y-79575819D02*
X121467619Y-79575819D01*
X121467619Y-79575819D02*
X121324762Y-79528200D01*
X121324762Y-79528200D02*
X121229524Y-79432961D01*
X121229524Y-79432961D02*
X121181905Y-79337723D01*
X121181905Y-79337723D02*
X121134286Y-79147247D01*
X121134286Y-79147247D02*
X121134286Y-79004390D01*
X121134286Y-79004390D02*
X121181905Y-78813914D01*
X121181905Y-78813914D02*
X121229524Y-78718676D01*
X121229524Y-78718676D02*
X121324762Y-78623438D01*
X121324762Y-78623438D02*
X121467619Y-78575819D01*
X121467619Y-78575819D02*
X121562857Y-78575819D01*
X121562857Y-78575819D02*
X121705714Y-78623438D01*
X121705714Y-78623438D02*
X121753333Y-78671057D01*
X122134286Y-78671057D02*
X122181905Y-78623438D01*
X122181905Y-78623438D02*
X122277143Y-78575819D01*
X122277143Y-78575819D02*
X122515238Y-78575819D01*
X122515238Y-78575819D02*
X122610476Y-78623438D01*
X122610476Y-78623438D02*
X122658095Y-78671057D01*
X122658095Y-78671057D02*
X122705714Y-78766295D01*
X122705714Y-78766295D02*
X122705714Y-78861533D01*
X122705714Y-78861533D02*
X122658095Y-79004390D01*
X122658095Y-79004390D02*
X122086667Y-79575819D01*
X122086667Y-79575819D02*
X122705714Y-79575819D01*
X159258095Y-82521819D02*
X159258095Y-83331342D01*
X159258095Y-83331342D02*
X159305714Y-83426580D01*
X159305714Y-83426580D02*
X159353333Y-83474200D01*
X159353333Y-83474200D02*
X159448571Y-83521819D01*
X159448571Y-83521819D02*
X159639047Y-83521819D01*
X159639047Y-83521819D02*
X159734285Y-83474200D01*
X159734285Y-83474200D02*
X159781904Y-83426580D01*
X159781904Y-83426580D02*
X159829523Y-83331342D01*
X159829523Y-83331342D02*
X159829523Y-82521819D01*
X160210476Y-82521819D02*
X160829523Y-82521819D01*
X160829523Y-82521819D02*
X160496190Y-82902771D01*
X160496190Y-82902771D02*
X160639047Y-82902771D01*
X160639047Y-82902771D02*
X160734285Y-82950390D01*
X160734285Y-82950390D02*
X160781904Y-82998009D01*
X160781904Y-82998009D02*
X160829523Y-83093247D01*
X160829523Y-83093247D02*
X160829523Y-83331342D01*
X160829523Y-83331342D02*
X160781904Y-83426580D01*
X160781904Y-83426580D02*
X160734285Y-83474200D01*
X160734285Y-83474200D02*
X160639047Y-83521819D01*
X160639047Y-83521819D02*
X160353333Y-83521819D01*
X160353333Y-83521819D02*
X160258095Y-83474200D01*
X160258095Y-83474200D02*
X160210476Y-83426580D01*
X178381819Y-95099094D02*
X177381819Y-95099094D01*
X177381819Y-95099094D02*
X177381819Y-94860999D01*
X177381819Y-94860999D02*
X177429438Y-94718142D01*
X177429438Y-94718142D02*
X177524676Y-94622904D01*
X177524676Y-94622904D02*
X177619914Y-94575285D01*
X177619914Y-94575285D02*
X177810390Y-94527666D01*
X177810390Y-94527666D02*
X177953247Y-94527666D01*
X177953247Y-94527666D02*
X178143723Y-94575285D01*
X178143723Y-94575285D02*
X178238961Y-94622904D01*
X178238961Y-94622904D02*
X178334200Y-94718142D01*
X178334200Y-94718142D02*
X178381819Y-94860999D01*
X178381819Y-94860999D02*
X178381819Y-95099094D01*
X177477057Y-94146713D02*
X177429438Y-94099094D01*
X177429438Y-94099094D02*
X177381819Y-94003856D01*
X177381819Y-94003856D02*
X177381819Y-93765761D01*
X177381819Y-93765761D02*
X177429438Y-93670523D01*
X177429438Y-93670523D02*
X177477057Y-93622904D01*
X177477057Y-93622904D02*
X177572295Y-93575285D01*
X177572295Y-93575285D02*
X177667533Y-93575285D01*
X177667533Y-93575285D02*
X177810390Y-93622904D01*
X177810390Y-93622904D02*
X178381819Y-94194332D01*
X178381819Y-94194332D02*
X178381819Y-93575285D01*
X163536333Y-101767819D02*
X163203000Y-101291628D01*
X162964905Y-101767819D02*
X162964905Y-100767819D01*
X162964905Y-100767819D02*
X163345857Y-100767819D01*
X163345857Y-100767819D02*
X163441095Y-100815438D01*
X163441095Y-100815438D02*
X163488714Y-100863057D01*
X163488714Y-100863057D02*
X163536333Y-100958295D01*
X163536333Y-100958295D02*
X163536333Y-101101152D01*
X163536333Y-101101152D02*
X163488714Y-101196390D01*
X163488714Y-101196390D02*
X163441095Y-101244009D01*
X163441095Y-101244009D02*
X163345857Y-101291628D01*
X163345857Y-101291628D02*
X162964905Y-101291628D01*
X163869667Y-100767819D02*
X164488714Y-100767819D01*
X164488714Y-100767819D02*
X164155381Y-101148771D01*
X164155381Y-101148771D02*
X164298238Y-101148771D01*
X164298238Y-101148771D02*
X164393476Y-101196390D01*
X164393476Y-101196390D02*
X164441095Y-101244009D01*
X164441095Y-101244009D02*
X164488714Y-101339247D01*
X164488714Y-101339247D02*
X164488714Y-101577342D01*
X164488714Y-101577342D02*
X164441095Y-101672580D01*
X164441095Y-101672580D02*
X164393476Y-101720200D01*
X164393476Y-101720200D02*
X164298238Y-101767819D01*
X164298238Y-101767819D02*
X164012524Y-101767819D01*
X164012524Y-101767819D02*
X163917286Y-101720200D01*
X163917286Y-101720200D02*
X163869667Y-101672580D01*
X172538580Y-88050666D02*
X172586200Y-88098285D01*
X172586200Y-88098285D02*
X172633819Y-88241142D01*
X172633819Y-88241142D02*
X172633819Y-88336380D01*
X172633819Y-88336380D02*
X172586200Y-88479237D01*
X172586200Y-88479237D02*
X172490961Y-88574475D01*
X172490961Y-88574475D02*
X172395723Y-88622094D01*
X172395723Y-88622094D02*
X172205247Y-88669713D01*
X172205247Y-88669713D02*
X172062390Y-88669713D01*
X172062390Y-88669713D02*
X171871914Y-88622094D01*
X171871914Y-88622094D02*
X171776676Y-88574475D01*
X171776676Y-88574475D02*
X171681438Y-88479237D01*
X171681438Y-88479237D02*
X171633819Y-88336380D01*
X171633819Y-88336380D02*
X171633819Y-88241142D01*
X171633819Y-88241142D02*
X171681438Y-88098285D01*
X171681438Y-88098285D02*
X171729057Y-88050666D01*
X172633819Y-87574475D02*
X172633819Y-87383999D01*
X172633819Y-87383999D02*
X172586200Y-87288761D01*
X172586200Y-87288761D02*
X172538580Y-87241142D01*
X172538580Y-87241142D02*
X172395723Y-87145904D01*
X172395723Y-87145904D02*
X172205247Y-87098285D01*
X172205247Y-87098285D02*
X171824295Y-87098285D01*
X171824295Y-87098285D02*
X171729057Y-87145904D01*
X171729057Y-87145904D02*
X171681438Y-87193523D01*
X171681438Y-87193523D02*
X171633819Y-87288761D01*
X171633819Y-87288761D02*
X171633819Y-87479237D01*
X171633819Y-87479237D02*
X171681438Y-87574475D01*
X171681438Y-87574475D02*
X171729057Y-87622094D01*
X171729057Y-87622094D02*
X171824295Y-87669713D01*
X171824295Y-87669713D02*
X172062390Y-87669713D01*
X172062390Y-87669713D02*
X172157628Y-87622094D01*
X172157628Y-87622094D02*
X172205247Y-87574475D01*
X172205247Y-87574475D02*
X172252866Y-87479237D01*
X172252866Y-87479237D02*
X172252866Y-87288761D01*
X172252866Y-87288761D02*
X172205247Y-87193523D01*
X172205247Y-87193523D02*
X172157628Y-87145904D01*
X172157628Y-87145904D02*
X172062390Y-87098285D01*
X165840580Y-77001666D02*
X165888200Y-77049285D01*
X165888200Y-77049285D02*
X165935819Y-77192142D01*
X165935819Y-77192142D02*
X165935819Y-77287380D01*
X165935819Y-77287380D02*
X165888200Y-77430237D01*
X165888200Y-77430237D02*
X165792961Y-77525475D01*
X165792961Y-77525475D02*
X165697723Y-77573094D01*
X165697723Y-77573094D02*
X165507247Y-77620713D01*
X165507247Y-77620713D02*
X165364390Y-77620713D01*
X165364390Y-77620713D02*
X165173914Y-77573094D01*
X165173914Y-77573094D02*
X165078676Y-77525475D01*
X165078676Y-77525475D02*
X164983438Y-77430237D01*
X164983438Y-77430237D02*
X164935819Y-77287380D01*
X164935819Y-77287380D02*
X164935819Y-77192142D01*
X164935819Y-77192142D02*
X164983438Y-77049285D01*
X164983438Y-77049285D02*
X165031057Y-77001666D01*
X164935819Y-76096904D02*
X164935819Y-76573094D01*
X164935819Y-76573094D02*
X165412009Y-76620713D01*
X165412009Y-76620713D02*
X165364390Y-76573094D01*
X165364390Y-76573094D02*
X165316771Y-76477856D01*
X165316771Y-76477856D02*
X165316771Y-76239761D01*
X165316771Y-76239761D02*
X165364390Y-76144523D01*
X165364390Y-76144523D02*
X165412009Y-76096904D01*
X165412009Y-76096904D02*
X165507247Y-76049285D01*
X165507247Y-76049285D02*
X165745342Y-76049285D01*
X165745342Y-76049285D02*
X165840580Y-76096904D01*
X165840580Y-76096904D02*
X165888200Y-76144523D01*
X165888200Y-76144523D02*
X165935819Y-76239761D01*
X165935819Y-76239761D02*
X165935819Y-76477856D01*
X165935819Y-76477856D02*
X165888200Y-76573094D01*
X165888200Y-76573094D02*
X165840580Y-76620713D01*
X122374819Y-81573666D02*
X122374819Y-82049856D01*
X122374819Y-82049856D02*
X121374819Y-82049856D01*
X122374819Y-80716523D02*
X122374819Y-81287951D01*
X122374819Y-81002237D02*
X121374819Y-81002237D01*
X121374819Y-81002237D02*
X121517676Y-81097475D01*
X121517676Y-81097475D02*
X121612914Y-81192713D01*
X121612914Y-81192713D02*
X121660533Y-81287951D01*
X154043142Y-110722580D02*
X153995523Y-110770200D01*
X153995523Y-110770200D02*
X153852666Y-110817819D01*
X153852666Y-110817819D02*
X153757428Y-110817819D01*
X153757428Y-110817819D02*
X153614571Y-110770200D01*
X153614571Y-110770200D02*
X153519333Y-110674961D01*
X153519333Y-110674961D02*
X153471714Y-110579723D01*
X153471714Y-110579723D02*
X153424095Y-110389247D01*
X153424095Y-110389247D02*
X153424095Y-110246390D01*
X153424095Y-110246390D02*
X153471714Y-110055914D01*
X153471714Y-110055914D02*
X153519333Y-109960676D01*
X153519333Y-109960676D02*
X153614571Y-109865438D01*
X153614571Y-109865438D02*
X153757428Y-109817819D01*
X153757428Y-109817819D02*
X153852666Y-109817819D01*
X153852666Y-109817819D02*
X153995523Y-109865438D01*
X153995523Y-109865438D02*
X154043142Y-109913057D01*
X154995523Y-110817819D02*
X154424095Y-110817819D01*
X154709809Y-110817819D02*
X154709809Y-109817819D01*
X154709809Y-109817819D02*
X154614571Y-109960676D01*
X154614571Y-109960676D02*
X154519333Y-110055914D01*
X154519333Y-110055914D02*
X154424095Y-110103533D01*
X155328857Y-109817819D02*
X155947904Y-109817819D01*
X155947904Y-109817819D02*
X155614571Y-110198771D01*
X155614571Y-110198771D02*
X155757428Y-110198771D01*
X155757428Y-110198771D02*
X155852666Y-110246390D01*
X155852666Y-110246390D02*
X155900285Y-110294009D01*
X155900285Y-110294009D02*
X155947904Y-110389247D01*
X155947904Y-110389247D02*
X155947904Y-110627342D01*
X155947904Y-110627342D02*
X155900285Y-110722580D01*
X155900285Y-110722580D02*
X155852666Y-110770200D01*
X155852666Y-110770200D02*
X155757428Y-110817819D01*
X155757428Y-110817819D02*
X155471714Y-110817819D01*
X155471714Y-110817819D02*
X155376476Y-110770200D01*
X155376476Y-110770200D02*
X155328857Y-110722580D01*
X170856819Y-102465094D02*
X169856819Y-102465094D01*
X169856819Y-102465094D02*
X169856819Y-102226999D01*
X169856819Y-102226999D02*
X169904438Y-102084142D01*
X169904438Y-102084142D02*
X169999676Y-101988904D01*
X169999676Y-101988904D02*
X170094914Y-101941285D01*
X170094914Y-101941285D02*
X170285390Y-101893666D01*
X170285390Y-101893666D02*
X170428247Y-101893666D01*
X170428247Y-101893666D02*
X170618723Y-101941285D01*
X170618723Y-101941285D02*
X170713961Y-101988904D01*
X170713961Y-101988904D02*
X170809200Y-102084142D01*
X170809200Y-102084142D02*
X170856819Y-102226999D01*
X170856819Y-102226999D02*
X170856819Y-102465094D01*
X170856819Y-100941285D02*
X170856819Y-101512713D01*
X170856819Y-101226999D02*
X169856819Y-101226999D01*
X169856819Y-101226999D02*
X169999676Y-101322237D01*
X169999676Y-101322237D02*
X170094914Y-101417475D01*
X170094914Y-101417475D02*
X170142533Y-101512713D01*
X160107333Y-101767819D02*
X159774000Y-101291628D01*
X159535905Y-101767819D02*
X159535905Y-100767819D01*
X159535905Y-100767819D02*
X159916857Y-100767819D01*
X159916857Y-100767819D02*
X160012095Y-100815438D01*
X160012095Y-100815438D02*
X160059714Y-100863057D01*
X160059714Y-100863057D02*
X160107333Y-100958295D01*
X160107333Y-100958295D02*
X160107333Y-101101152D01*
X160107333Y-101101152D02*
X160059714Y-101196390D01*
X160059714Y-101196390D02*
X160012095Y-101244009D01*
X160012095Y-101244009D02*
X159916857Y-101291628D01*
X159916857Y-101291628D02*
X159535905Y-101291628D01*
X161059714Y-101767819D02*
X160488286Y-101767819D01*
X160774000Y-101767819D02*
X160774000Y-100767819D01*
X160774000Y-100767819D02*
X160678762Y-100910676D01*
X160678762Y-100910676D02*
X160583524Y-101005914D01*
X160583524Y-101005914D02*
X160488286Y-101053533D01*
X162379819Y-86590094D02*
X161379819Y-86590094D01*
X161379819Y-86590094D02*
X161379819Y-86351999D01*
X161379819Y-86351999D02*
X161427438Y-86209142D01*
X161427438Y-86209142D02*
X161522676Y-86113904D01*
X161522676Y-86113904D02*
X161617914Y-86066285D01*
X161617914Y-86066285D02*
X161808390Y-86018666D01*
X161808390Y-86018666D02*
X161951247Y-86018666D01*
X161951247Y-86018666D02*
X162141723Y-86066285D01*
X162141723Y-86066285D02*
X162236961Y-86113904D01*
X162236961Y-86113904D02*
X162332200Y-86209142D01*
X162332200Y-86209142D02*
X162379819Y-86351999D01*
X162379819Y-86351999D02*
X162379819Y-86590094D01*
X161713152Y-85161523D02*
X162379819Y-85161523D01*
X161332200Y-85399618D02*
X162046485Y-85637713D01*
X162046485Y-85637713D02*
X162046485Y-85018666D01*
X156152571Y-85568164D02*
X156581143Y-85568164D01*
X156366857Y-86318164D02*
X156366857Y-85568164D01*
X156831143Y-86318164D02*
X156831143Y-85568164D01*
X156831143Y-85568164D02*
X157116857Y-85568164D01*
X157116857Y-85568164D02*
X157188286Y-85603878D01*
X157188286Y-85603878D02*
X157224000Y-85639592D01*
X157224000Y-85639592D02*
X157259714Y-85711021D01*
X157259714Y-85711021D02*
X157259714Y-85818164D01*
X157259714Y-85818164D02*
X157224000Y-85889592D01*
X157224000Y-85889592D02*
X157188286Y-85925307D01*
X157188286Y-85925307D02*
X157116857Y-85961021D01*
X157116857Y-85961021D02*
X156831143Y-85961021D01*
X157902572Y-85568164D02*
X157759714Y-85568164D01*
X157759714Y-85568164D02*
X157688286Y-85603878D01*
X157688286Y-85603878D02*
X157652572Y-85639592D01*
X157652572Y-85639592D02*
X157581143Y-85746735D01*
X157581143Y-85746735D02*
X157545429Y-85889592D01*
X157545429Y-85889592D02*
X157545429Y-86175307D01*
X157545429Y-86175307D02*
X157581143Y-86246735D01*
X157581143Y-86246735D02*
X157616857Y-86282450D01*
X157616857Y-86282450D02*
X157688286Y-86318164D01*
X157688286Y-86318164D02*
X157831143Y-86318164D01*
X157831143Y-86318164D02*
X157902572Y-86282450D01*
X157902572Y-86282450D02*
X157938286Y-86246735D01*
X157938286Y-86246735D02*
X157974000Y-86175307D01*
X157974000Y-86175307D02*
X157974000Y-85996735D01*
X157974000Y-85996735D02*
X157938286Y-85925307D01*
X157938286Y-85925307D02*
X157902572Y-85889592D01*
X157902572Y-85889592D02*
X157831143Y-85853878D01*
X157831143Y-85853878D02*
X157688286Y-85853878D01*
X157688286Y-85853878D02*
X157616857Y-85889592D01*
X157616857Y-85889592D02*
X157581143Y-85925307D01*
X157581143Y-85925307D02*
X157545429Y-85996735D01*
X122221666Y-116040819D02*
X122221666Y-116755104D01*
X122221666Y-116755104D02*
X122174047Y-116897961D01*
X122174047Y-116897961D02*
X122078809Y-116993200D01*
X122078809Y-116993200D02*
X121935952Y-117040819D01*
X121935952Y-117040819D02*
X121840714Y-117040819D01*
X122602619Y-116040819D02*
X123221666Y-116040819D01*
X123221666Y-116040819D02*
X122888333Y-116421771D01*
X122888333Y-116421771D02*
X123031190Y-116421771D01*
X123031190Y-116421771D02*
X123126428Y-116469390D01*
X123126428Y-116469390D02*
X123174047Y-116517009D01*
X123174047Y-116517009D02*
X123221666Y-116612247D01*
X123221666Y-116612247D02*
X123221666Y-116850342D01*
X123221666Y-116850342D02*
X123174047Y-116945580D01*
X123174047Y-116945580D02*
X123126428Y-116993200D01*
X123126428Y-116993200D02*
X123031190Y-117040819D01*
X123031190Y-117040819D02*
X122745476Y-117040819D01*
X122745476Y-117040819D02*
X122650238Y-116993200D01*
X122650238Y-116993200D02*
X122602619Y-116945580D01*
X177746819Y-88177666D02*
X177270628Y-88510999D01*
X177746819Y-88749094D02*
X176746819Y-88749094D01*
X176746819Y-88749094D02*
X176746819Y-88368142D01*
X176746819Y-88368142D02*
X176794438Y-88272904D01*
X176794438Y-88272904D02*
X176842057Y-88225285D01*
X176842057Y-88225285D02*
X176937295Y-88177666D01*
X176937295Y-88177666D02*
X177080152Y-88177666D01*
X177080152Y-88177666D02*
X177175390Y-88225285D01*
X177175390Y-88225285D02*
X177223009Y-88272904D01*
X177223009Y-88272904D02*
X177270628Y-88368142D01*
X177270628Y-88368142D02*
X177270628Y-88749094D01*
X176746819Y-87320523D02*
X176746819Y-87510999D01*
X176746819Y-87510999D02*
X176794438Y-87606237D01*
X176794438Y-87606237D02*
X176842057Y-87653856D01*
X176842057Y-87653856D02*
X176984914Y-87749094D01*
X176984914Y-87749094D02*
X177175390Y-87796713D01*
X177175390Y-87796713D02*
X177556342Y-87796713D01*
X177556342Y-87796713D02*
X177651580Y-87749094D01*
X177651580Y-87749094D02*
X177699200Y-87701475D01*
X177699200Y-87701475D02*
X177746819Y-87606237D01*
X177746819Y-87606237D02*
X177746819Y-87415761D01*
X177746819Y-87415761D02*
X177699200Y-87320523D01*
X177699200Y-87320523D02*
X177651580Y-87272904D01*
X177651580Y-87272904D02*
X177556342Y-87225285D01*
X177556342Y-87225285D02*
X177318247Y-87225285D01*
X177318247Y-87225285D02*
X177223009Y-87272904D01*
X177223009Y-87272904D02*
X177175390Y-87320523D01*
X177175390Y-87320523D02*
X177127771Y-87415761D01*
X177127771Y-87415761D02*
X177127771Y-87606237D01*
X177127771Y-87606237D02*
X177175390Y-87701475D01*
X177175390Y-87701475D02*
X177223009Y-87749094D01*
X177223009Y-87749094D02*
X177318247Y-87796713D01*
X170934142Y-86465580D02*
X170886523Y-86513200D01*
X170886523Y-86513200D02*
X170743666Y-86560819D01*
X170743666Y-86560819D02*
X170648428Y-86560819D01*
X170648428Y-86560819D02*
X170505571Y-86513200D01*
X170505571Y-86513200D02*
X170410333Y-86417961D01*
X170410333Y-86417961D02*
X170362714Y-86322723D01*
X170362714Y-86322723D02*
X170315095Y-86132247D01*
X170315095Y-86132247D02*
X170315095Y-85989390D01*
X170315095Y-85989390D02*
X170362714Y-85798914D01*
X170362714Y-85798914D02*
X170410333Y-85703676D01*
X170410333Y-85703676D02*
X170505571Y-85608438D01*
X170505571Y-85608438D02*
X170648428Y-85560819D01*
X170648428Y-85560819D02*
X170743666Y-85560819D01*
X170743666Y-85560819D02*
X170886523Y-85608438D01*
X170886523Y-85608438D02*
X170934142Y-85656057D01*
X171886523Y-86560819D02*
X171315095Y-86560819D01*
X171600809Y-86560819D02*
X171600809Y-85560819D01*
X171600809Y-85560819D02*
X171505571Y-85703676D01*
X171505571Y-85703676D02*
X171410333Y-85798914D01*
X171410333Y-85798914D02*
X171315095Y-85846533D01*
X172505571Y-85560819D02*
X172600809Y-85560819D01*
X172600809Y-85560819D02*
X172696047Y-85608438D01*
X172696047Y-85608438D02*
X172743666Y-85656057D01*
X172743666Y-85656057D02*
X172791285Y-85751295D01*
X172791285Y-85751295D02*
X172838904Y-85941771D01*
X172838904Y-85941771D02*
X172838904Y-86179866D01*
X172838904Y-86179866D02*
X172791285Y-86370342D01*
X172791285Y-86370342D02*
X172743666Y-86465580D01*
X172743666Y-86465580D02*
X172696047Y-86513200D01*
X172696047Y-86513200D02*
X172600809Y-86560819D01*
X172600809Y-86560819D02*
X172505571Y-86560819D01*
X172505571Y-86560819D02*
X172410333Y-86513200D01*
X172410333Y-86513200D02*
X172362714Y-86465580D01*
X172362714Y-86465580D02*
X172315095Y-86370342D01*
X172315095Y-86370342D02*
X172267476Y-86179866D01*
X172267476Y-86179866D02*
X172267476Y-85941771D01*
X172267476Y-85941771D02*
X172315095Y-85751295D01*
X172315095Y-85751295D02*
X172362714Y-85656057D01*
X172362714Y-85656057D02*
X172410333Y-85608438D01*
X172410333Y-85608438D02*
X172505571Y-85560819D01*
X167201571Y-81377164D02*
X167630143Y-81377164D01*
X167415857Y-82127164D02*
X167415857Y-81377164D01*
X167880143Y-82127164D02*
X167880143Y-81377164D01*
X167880143Y-81377164D02*
X168165857Y-81377164D01*
X168165857Y-81377164D02*
X168237286Y-81412878D01*
X168237286Y-81412878D02*
X168273000Y-81448592D01*
X168273000Y-81448592D02*
X168308714Y-81520021D01*
X168308714Y-81520021D02*
X168308714Y-81627164D01*
X168308714Y-81627164D02*
X168273000Y-81698592D01*
X168273000Y-81698592D02*
X168237286Y-81734307D01*
X168237286Y-81734307D02*
X168165857Y-81770021D01*
X168165857Y-81770021D02*
X167880143Y-81770021D01*
X168987286Y-81377164D02*
X168630143Y-81377164D01*
X168630143Y-81377164D02*
X168594429Y-81734307D01*
X168594429Y-81734307D02*
X168630143Y-81698592D01*
X168630143Y-81698592D02*
X168701572Y-81662878D01*
X168701572Y-81662878D02*
X168880143Y-81662878D01*
X168880143Y-81662878D02*
X168951572Y-81698592D01*
X168951572Y-81698592D02*
X168987286Y-81734307D01*
X168987286Y-81734307D02*
X169023000Y-81805735D01*
X169023000Y-81805735D02*
X169023000Y-81984307D01*
X169023000Y-81984307D02*
X168987286Y-82055735D01*
X168987286Y-82055735D02*
X168951572Y-82091450D01*
X168951572Y-82091450D02*
X168880143Y-82127164D01*
X168880143Y-82127164D02*
X168701572Y-82127164D01*
X168701572Y-82127164D02*
X168630143Y-82091450D01*
X168630143Y-82091450D02*
X168594429Y-82055735D01*
X168126580Y-76874666D02*
X168174200Y-76922285D01*
X168174200Y-76922285D02*
X168221819Y-77065142D01*
X168221819Y-77065142D02*
X168221819Y-77160380D01*
X168221819Y-77160380D02*
X168174200Y-77303237D01*
X168174200Y-77303237D02*
X168078961Y-77398475D01*
X168078961Y-77398475D02*
X167983723Y-77446094D01*
X167983723Y-77446094D02*
X167793247Y-77493713D01*
X167793247Y-77493713D02*
X167650390Y-77493713D01*
X167650390Y-77493713D02*
X167459914Y-77446094D01*
X167459914Y-77446094D02*
X167364676Y-77398475D01*
X167364676Y-77398475D02*
X167269438Y-77303237D01*
X167269438Y-77303237D02*
X167221819Y-77160380D01*
X167221819Y-77160380D02*
X167221819Y-77065142D01*
X167221819Y-77065142D02*
X167269438Y-76922285D01*
X167269438Y-76922285D02*
X167317057Y-76874666D01*
X167555152Y-76017523D02*
X168221819Y-76017523D01*
X167174200Y-76255618D02*
X167888485Y-76493713D01*
X167888485Y-76493713D02*
X167888485Y-75874666D01*
X172793819Y-78017666D02*
X172317628Y-78350999D01*
X172793819Y-78589094D02*
X171793819Y-78589094D01*
X171793819Y-78589094D02*
X171793819Y-78208142D01*
X171793819Y-78208142D02*
X171841438Y-78112904D01*
X171841438Y-78112904D02*
X171889057Y-78065285D01*
X171889057Y-78065285D02*
X171984295Y-78017666D01*
X171984295Y-78017666D02*
X172127152Y-78017666D01*
X172127152Y-78017666D02*
X172222390Y-78065285D01*
X172222390Y-78065285D02*
X172270009Y-78112904D01*
X172270009Y-78112904D02*
X172317628Y-78208142D01*
X172317628Y-78208142D02*
X172317628Y-78589094D01*
X171889057Y-77636713D02*
X171841438Y-77589094D01*
X171841438Y-77589094D02*
X171793819Y-77493856D01*
X171793819Y-77493856D02*
X171793819Y-77255761D01*
X171793819Y-77255761D02*
X171841438Y-77160523D01*
X171841438Y-77160523D02*
X171889057Y-77112904D01*
X171889057Y-77112904D02*
X171984295Y-77065285D01*
X171984295Y-77065285D02*
X172079533Y-77065285D01*
X172079533Y-77065285D02*
X172222390Y-77112904D01*
X172222390Y-77112904D02*
X172793819Y-77684332D01*
X172793819Y-77684332D02*
X172793819Y-77065285D01*
X169998580Y-91447857D02*
X170046200Y-91495476D01*
X170046200Y-91495476D02*
X170093819Y-91638333D01*
X170093819Y-91638333D02*
X170093819Y-91733571D01*
X170093819Y-91733571D02*
X170046200Y-91876428D01*
X170046200Y-91876428D02*
X169950961Y-91971666D01*
X169950961Y-91971666D02*
X169855723Y-92019285D01*
X169855723Y-92019285D02*
X169665247Y-92066904D01*
X169665247Y-92066904D02*
X169522390Y-92066904D01*
X169522390Y-92066904D02*
X169331914Y-92019285D01*
X169331914Y-92019285D02*
X169236676Y-91971666D01*
X169236676Y-91971666D02*
X169141438Y-91876428D01*
X169141438Y-91876428D02*
X169093819Y-91733571D01*
X169093819Y-91733571D02*
X169093819Y-91638333D01*
X169093819Y-91638333D02*
X169141438Y-91495476D01*
X169141438Y-91495476D02*
X169189057Y-91447857D01*
X170093819Y-90495476D02*
X170093819Y-91066904D01*
X170093819Y-90781190D02*
X169093819Y-90781190D01*
X169093819Y-90781190D02*
X169236676Y-90876428D01*
X169236676Y-90876428D02*
X169331914Y-90971666D01*
X169331914Y-90971666D02*
X169379533Y-91066904D01*
X170093819Y-89543095D02*
X170093819Y-90114523D01*
X170093819Y-89828809D02*
X169093819Y-89828809D01*
X169093819Y-89828809D02*
X169236676Y-89924047D01*
X169236676Y-89924047D02*
X169331914Y-90019285D01*
X169331914Y-90019285D02*
X169379533Y-90114523D01*
X122896333Y-84433580D02*
X122848714Y-84481200D01*
X122848714Y-84481200D02*
X122705857Y-84528819D01*
X122705857Y-84528819D02*
X122610619Y-84528819D01*
X122610619Y-84528819D02*
X122467762Y-84481200D01*
X122467762Y-84481200D02*
X122372524Y-84385961D01*
X122372524Y-84385961D02*
X122324905Y-84290723D01*
X122324905Y-84290723D02*
X122277286Y-84100247D01*
X122277286Y-84100247D02*
X122277286Y-83957390D01*
X122277286Y-83957390D02*
X122324905Y-83766914D01*
X122324905Y-83766914D02*
X122372524Y-83671676D01*
X122372524Y-83671676D02*
X122467762Y-83576438D01*
X122467762Y-83576438D02*
X122610619Y-83528819D01*
X122610619Y-83528819D02*
X122705857Y-83528819D01*
X122705857Y-83528819D02*
X122848714Y-83576438D01*
X122848714Y-83576438D02*
X122896333Y-83624057D01*
X123848714Y-84528819D02*
X123277286Y-84528819D01*
X123563000Y-84528819D02*
X123563000Y-83528819D01*
X123563000Y-83528819D02*
X123467762Y-83671676D01*
X123467762Y-83671676D02*
X123372524Y-83766914D01*
X123372524Y-83766914D02*
X123277286Y-83814533D01*
X127516095Y-110325819D02*
X128087523Y-110325819D01*
X127801809Y-111325819D02*
X127801809Y-110325819D01*
X128420857Y-111325819D02*
X128420857Y-110325819D01*
X128420857Y-110325819D02*
X128801809Y-110325819D01*
X128801809Y-110325819D02*
X128897047Y-110373438D01*
X128897047Y-110373438D02*
X128944666Y-110421057D01*
X128944666Y-110421057D02*
X128992285Y-110516295D01*
X128992285Y-110516295D02*
X128992285Y-110659152D01*
X128992285Y-110659152D02*
X128944666Y-110754390D01*
X128944666Y-110754390D02*
X128897047Y-110802009D01*
X128897047Y-110802009D02*
X128801809Y-110849628D01*
X128801809Y-110849628D02*
X128420857Y-110849628D01*
X129944666Y-111325819D02*
X129373238Y-111325819D01*
X129658952Y-111325819D02*
X129658952Y-110325819D01*
X129658952Y-110325819D02*
X129563714Y-110468676D01*
X129563714Y-110468676D02*
X129468476Y-110563914D01*
X129468476Y-110563914D02*
X129373238Y-110611533D01*
X157569819Y-105409904D02*
X158379342Y-105409904D01*
X158379342Y-105409904D02*
X158474580Y-105362285D01*
X158474580Y-105362285D02*
X158522200Y-105314666D01*
X158522200Y-105314666D02*
X158569819Y-105219428D01*
X158569819Y-105219428D02*
X158569819Y-105028952D01*
X158569819Y-105028952D02*
X158522200Y-104933714D01*
X158522200Y-104933714D02*
X158474580Y-104886095D01*
X158474580Y-104886095D02*
X158379342Y-104838476D01*
X158379342Y-104838476D02*
X157569819Y-104838476D01*
X157903152Y-103933714D02*
X158569819Y-103933714D01*
X157522200Y-104171809D02*
X158236485Y-104409904D01*
X158236485Y-104409904D02*
X158236485Y-103790857D01*
D13*
%TO.C,TP4*%
X166435000Y-83312000D02*
G75*
G03*
X165035000Y-83312000I-700000J0D01*
G01*
X165035000Y-83312000D02*
G75*
G03*
X166435000Y-83312000I700000J0D01*
G01*
%TO.C,C3*%
X155434420Y-99947000D02*
X155715580Y-99947000D01*
X155434420Y-100967000D02*
X155715580Y-100967000D01*
%TO.C,SW2*%
X160854000Y-91639000D02*
X167314000Y-91639000D01*
X160854000Y-91669000D02*
X160854000Y-91639000D01*
X160854000Y-93569000D02*
X160854000Y-96169000D01*
X160854000Y-98099000D02*
X160854000Y-98069000D01*
X160854000Y-98099000D02*
X167314000Y-98099000D01*
X167314000Y-91639000D02*
X167314000Y-91669000D01*
X167314000Y-93569000D02*
X167314000Y-96169000D01*
X167314000Y-98099000D02*
X167314000Y-98069000D01*
%TO.C,U1*%
X148427000Y-108331000D02*
X148427000Y-110131000D01*
X148427000Y-108331000D02*
X148427000Y-107531000D01*
X151547000Y-108331000D02*
X151547000Y-109131000D01*
X151547000Y-108331000D02*
X151547000Y-107531000D01*
%TO.C,R7*%
X173496500Y-90821742D02*
X173496500Y-91296258D01*
X172451500Y-90821742D02*
X172451500Y-91296258D01*
%TO.C,TP3*%
X155386000Y-79883000D02*
G75*
G03*
X153986000Y-79883000I-700000J0D01*
G01*
X153986000Y-79883000D02*
G75*
G03*
X155386000Y-79883000I700000J0D01*
G01*
%TO.C,C7*%
X126998000Y-93485580D02*
X126998000Y-93204420D01*
X128018000Y-93485580D02*
X128018000Y-93204420D01*
%TO.C,U2*%
X146530000Y-101191000D02*
X146530000Y-100841000D01*
X146530000Y-101191000D02*
X130330000Y-101191000D01*
X146530000Y-100841000D02*
X147430000Y-100841000D01*
X146530000Y-85391000D02*
X146530000Y-84991000D01*
X146530000Y-84991000D02*
X130330000Y-84991000D01*
X130330000Y-101191000D02*
X130330000Y-100791000D01*
X130330000Y-84991000D02*
X130330000Y-85391000D01*
%TO.C,C6*%
X124966000Y-93485580D02*
X124966000Y-93204420D01*
X125986000Y-93485580D02*
X125986000Y-93204420D01*
%TO.C,Q1*%
X171958000Y-93182000D02*
X170283000Y-93182000D01*
X171958000Y-93182000D02*
X172608000Y-93182000D01*
X171958000Y-96302000D02*
X171308000Y-96302000D01*
X171958000Y-96302000D02*
X172608000Y-96302000D01*
%TO.C,C8*%
X171071000Y-83806420D02*
X171071000Y-84087580D01*
X170051000Y-83806420D02*
X170051000Y-84087580D01*
%TO.C,R4*%
X166386742Y-89901500D02*
X166861258Y-89901500D01*
X166386742Y-90946500D02*
X166861258Y-90946500D01*
%TO.C,R8*%
X176290500Y-90821742D02*
X176290500Y-91296258D01*
X175245500Y-90821742D02*
X175245500Y-91296258D01*
%TO.C,J1*%
X174184000Y-73092000D02*
X175514000Y-73092000D01*
X174184000Y-74422000D02*
X174184000Y-73092000D01*
X174184000Y-75692000D02*
X174184000Y-85912000D01*
X174184000Y-75692000D02*
X176844000Y-75692000D01*
X174184000Y-85912000D02*
X176844000Y-85912000D01*
X176844000Y-75692000D02*
X176844000Y-85912000D01*
%TO.C,D3*%
X168640000Y-84635000D02*
X166640000Y-84635000D01*
X168640000Y-84635000D02*
X168640000Y-88645000D01*
X166640000Y-84635000D02*
X166640000Y-88645000D01*
%TO.C,J2*%
X174300000Y-121100000D02*
X174300000Y-111900000D01*
X174300000Y-111900000D02*
X171780000Y-111900000D01*
X171780000Y-121100000D02*
X174300000Y-121100000D01*
X171780000Y-111900000D02*
X171640000Y-111800000D01*
X171640000Y-121200000D02*
X171780000Y-121100000D01*
X171640000Y-111800000D02*
X164800000Y-111800000D01*
X164800000Y-121200000D02*
X171640000Y-121200000D01*
X164800000Y-118000000D02*
X164800000Y-121200000D01*
X164800000Y-111800000D02*
X164800000Y-115000000D01*
%TO.C,SW1*%
X152335000Y-93532000D02*
X152335000Y-92202000D01*
X153665000Y-93532000D02*
X152335000Y-93532000D01*
X154935000Y-93532000D02*
X157535000Y-93532000D01*
X154935000Y-93532000D02*
X154935000Y-90872000D01*
X157535000Y-93532000D02*
X157535000Y-90872000D01*
X154935000Y-90872000D02*
X157535000Y-90872000D01*
%TO.C,TP2*%
X163514000Y-74041000D02*
G75*
G03*
X162114000Y-74041000I-700000J0D01*
G01*
X162114000Y-74041000D02*
G75*
G03*
X163514000Y-74041000I700000J0D01*
G01*
%TO.C,C2*%
X125462420Y-78738000D02*
X125743580Y-78738000D01*
X125462420Y-79758000D02*
X125743580Y-79758000D01*
%TO.C,U3*%
X160020000Y-82252000D02*
X163620000Y-82252000D01*
X160020000Y-82252000D02*
X157820000Y-82252000D01*
X160020000Y-75482000D02*
X162220000Y-75482000D01*
X160020000Y-75482000D02*
X157820000Y-75482000D01*
%TO.C,D2*%
X174768000Y-97864000D02*
X176768000Y-97864000D01*
X174768000Y-97864000D02*
X174768000Y-93854000D01*
X176768000Y-97864000D02*
X176768000Y-93854000D01*
%TO.C,R3*%
X163465742Y-102220500D02*
X163940258Y-102220500D01*
X163465742Y-103265500D02*
X163940258Y-103265500D01*
%TO.C,C9*%
X173099000Y-88024580D02*
X173099000Y-87743420D01*
X174119000Y-88024580D02*
X174119000Y-87743420D01*
%TO.C,C5*%
X164971000Y-79642580D02*
X164971000Y-79361420D01*
X165991000Y-79642580D02*
X165991000Y-79361420D01*
%TO.C,L1*%
X124331000Y-81823779D02*
X124331000Y-81498221D01*
X125351000Y-81823779D02*
X125351000Y-81498221D01*
%TO.C,C13*%
X154672420Y-108202000D02*
X154953580Y-108202000D01*
X154672420Y-109222000D02*
X154953580Y-109222000D01*
%TO.C,D1*%
X169402000Y-99367000D02*
X167402000Y-99367000D01*
X169402000Y-99367000D02*
X169402000Y-103377000D01*
X167402000Y-99367000D02*
X167402000Y-103377000D01*
%TO.C,R1*%
X160036742Y-102220500D02*
X160511258Y-102220500D01*
X160036742Y-103265500D02*
X160511258Y-103265500D01*
%TO.C,D4*%
X165084000Y-84635000D02*
X163084000Y-84635000D01*
X165084000Y-84635000D02*
X165084000Y-88645000D01*
X163084000Y-84635000D02*
X163084000Y-88645000D01*
%TO.C,TP6*%
X157799000Y-83820000D02*
G75*
G03*
X156399000Y-83820000I-700000J0D01*
G01*
X156399000Y-83820000D02*
G75*
G03*
X157799000Y-83820000I700000J0D01*
G01*
%TO.C,J3*%
X124200000Y-111900000D02*
X124200000Y-121100000D01*
X124200000Y-121100000D02*
X126720000Y-121100000D01*
X126720000Y-111900000D02*
X124200000Y-111900000D01*
X126720000Y-121100000D02*
X126860000Y-121200000D01*
X126860000Y-111800000D02*
X126720000Y-111900000D01*
X126860000Y-121200000D02*
X133700000Y-121200000D01*
X133700000Y-111800000D02*
X126860000Y-111800000D01*
X133700000Y-115000000D02*
X133700000Y-111800000D01*
X133700000Y-121200000D02*
X133700000Y-118000000D01*
%TO.C,R6*%
X175118500Y-88121258D02*
X175118500Y-87646742D01*
X176163500Y-88121258D02*
X176163500Y-87646742D01*
%TO.C,C10*%
X172976000Y-83806420D02*
X172976000Y-84087580D01*
X171956000Y-83806420D02*
X171956000Y-84087580D01*
%TO.C,TP5*%
X168721000Y-83312000D02*
G75*
G03*
X167321000Y-83312000I-700000J0D01*
G01*
X167321000Y-83312000D02*
G75*
G03*
X168721000Y-83312000I700000J0D01*
G01*
%TO.C,C4*%
X167130000Y-79642580D02*
X167130000Y-79361420D01*
X168150000Y-79642580D02*
X168150000Y-79361420D01*
%TO.C,R2*%
X171943500Y-80882258D02*
X171943500Y-80407742D01*
X172988500Y-80882258D02*
X172988500Y-80407742D01*
%TO.C,C11*%
X170559000Y-91199580D02*
X170559000Y-90918420D01*
X171579000Y-91199580D02*
X171579000Y-90918420D01*
%TO.C,C1*%
X125462420Y-83564000D02*
X125743580Y-83564000D01*
X125462420Y-84584000D02*
X125743580Y-84584000D01*
%TO.C,TP1*%
X130424000Y-107569000D02*
G75*
G03*
X126624000Y-107569000I-1900000J0D01*
G01*
X126624000Y-107569000D02*
G75*
G03*
X130424000Y-107569000I1900000J0D01*
G01*
%TO.C,U4*%
X153888000Y-104648000D02*
X153888000Y-106448000D01*
X153888000Y-104648000D02*
X153888000Y-103848000D01*
X157008000Y-104648000D02*
X157008000Y-105448000D01*
X157008000Y-104648000D02*
X157008000Y-103848000D01*
%TD*%
D14*
X168808880Y-90283765D03*
X123317000Y-81788000D03*
X126365000Y-81788000D03*
X128143000Y-79248000D03*
X133477000Y-79121000D03*
X127889000Y-84074000D03*
X133604000Y-88138000D03*
X166624000Y-78740000D03*
X123317000Y-79248000D03*
X149987000Y-110871000D03*
X165608000Y-102743000D03*
X143764000Y-79121000D03*
X148463000Y-86106000D03*
X123063000Y-86106000D03*
X128143000Y-88011000D03*
X139192000Y-79121000D03*
X143383000Y-86106000D03*
X148590000Y-100071347D03*
X147447000Y-78994000D03*
X145923000Y-84328000D03*
X127508000Y-90932000D03*
X125476000Y-90932000D03*
X168148000Y-95631000D03*
X143129000Y-100076000D03*
X156464000Y-101854000D03*
X155448000Y-107315000D03*
X168897000Y-80277000D03*
X170815000Y-98298000D03*
X161036000Y-90170000D03*
X157099000Y-107823000D03*
X157099000Y-110871000D03*
X151130000Y-96012000D03*
X148209000Y-96012000D03*
X158877000Y-73660000D03*
X158877000Y-80010000D03*
X159893000Y-72771000D03*
X159270920Y-80929147D03*
X169455000Y-97192000D03*
X169545000Y-99568000D03*
X163540000Y-108530000D03*
X175514000Y-74422000D03*
X175514000Y-76962000D03*
X175514000Y-79502000D03*
X175514000Y-82042000D03*
X175514000Y-84582000D03*
X172700000Y-116500000D03*
X165700000Y-116500000D03*
X153665000Y-92202000D03*
X156205000Y-92202000D03*
X124858000Y-66040500D03*
X126858000Y-66040500D03*
X126858000Y-71040500D03*
X128858000Y-66040500D03*
X128858000Y-71040500D03*
X130858000Y-66040500D03*
X130858000Y-71040500D03*
X132858000Y-66040500D03*
X132858000Y-71040500D03*
X134858000Y-66040500D03*
X134858000Y-71040500D03*
X136858000Y-66040500D03*
X136858000Y-71040500D03*
X138858000Y-66040500D03*
X138858000Y-71040500D03*
X140858000Y-66040500D03*
X140858000Y-71040500D03*
X142858000Y-66040500D03*
X142858000Y-71040500D03*
X135540000Y-108530000D03*
X125800000Y-116500000D03*
X132800000Y-116500000D03*
X128524000Y-107569000D03*
M02*
