%TF.GenerationSoftware,KiCad,Pcbnew,7.0.10*%
%TF.CreationDate,2025-01-21T12:55:57-05:00*%
%TF.ProjectId,PostAlertMailBoxV6,506f7374-416c-4657-9274-4d61696c426f,V4.0*%
%TF.SameCoordinates,Original*%
%TF.FileFunction,Legend,Bot*%
%TF.FilePolarity,Positive*%
%FSLAX46Y46*%
G04 Gerber Fmt 4.6, Leading zero omitted, Abs format (unit mm)*
G04 Created by KiCad (PCBNEW 7.0.10) date 2025-01-21 12:55:57*
%MOMM*%
%LPD*%
G01*
G04 APERTURE LIST*
%ADD10C,0.350000*%
G04 APERTURE END LIST*
D10*
X168808880Y-90283765D03*
X123317000Y-81788000D03*
X126365000Y-81788000D03*
X128143000Y-79248000D03*
X133477000Y-79121000D03*
X127889000Y-84074000D03*
X133604000Y-88138000D03*
X166624000Y-78740000D03*
X123317000Y-79248000D03*
X149987000Y-110871000D03*
X165608000Y-102743000D03*
X143764000Y-79121000D03*
X148463000Y-86106000D03*
X123063000Y-86106000D03*
X128143000Y-88011000D03*
X139192000Y-79121000D03*
X143383000Y-86106000D03*
X148590000Y-100071347D03*
X147447000Y-78994000D03*
X145923000Y-84328000D03*
X127508000Y-90932000D03*
X125476000Y-90932000D03*
X168148000Y-95631000D03*
X143129000Y-100076000D03*
X156464000Y-101854000D03*
X155448000Y-107315000D03*
X168897000Y-80277000D03*
X170815000Y-98298000D03*
X161036000Y-90170000D03*
X157099000Y-107823000D03*
X157099000Y-110871000D03*
X151130000Y-96012000D03*
X148209000Y-96012000D03*
X158877000Y-73660000D03*
X158877000Y-80010000D03*
X159893000Y-72771000D03*
X159270920Y-80929147D03*
X169455000Y-97192000D03*
X169545000Y-99568000D03*
X163540000Y-108530000D03*
X175514000Y-74422000D03*
X175514000Y-76962000D03*
X175514000Y-79502000D03*
X175514000Y-82042000D03*
X175514000Y-84582000D03*
X172700000Y-116500000D03*
X165700000Y-116500000D03*
X153665000Y-92202000D03*
X156205000Y-92202000D03*
X124858000Y-66040500D03*
X126858000Y-66040500D03*
X126858000Y-71040500D03*
X128858000Y-66040500D03*
X128858000Y-71040500D03*
X130858000Y-66040500D03*
X130858000Y-71040500D03*
X132858000Y-66040500D03*
X132858000Y-71040500D03*
X134858000Y-66040500D03*
X134858000Y-71040500D03*
X136858000Y-66040500D03*
X136858000Y-71040500D03*
X138858000Y-66040500D03*
X138858000Y-71040500D03*
X140858000Y-66040500D03*
X140858000Y-71040500D03*
X142858000Y-66040500D03*
X142858000Y-71040500D03*
X135540000Y-108530000D03*
X125800000Y-116500000D03*
X132800000Y-116500000D03*
X128524000Y-107569000D03*
M02*
