M48
; DRILL file {KiCad 7.0.10} date Tue Jan 21 12:55:57 2025
; FORMAT={-:-/ absolute / metric / decimal}
; #@! TF.CreationDate,2025-01-21T12:55:57-05:00
; #@! TF.GenerationSoftware,Kicad,Pcbnew,7.0.10
; #@! TF.FileFunction,Plated,1,2,PTH
FMAT,2
METRIC
; #@! TA.AperFunction,Plated,PTH,ViaDrill
T1C0.400
; #@! TA.AperFunction,Plated,PTH,ComponentDrill
T2C0.400
; #@! TA.AperFunction,Plated,PTH,ComponentDrill
T3C1.000
; #@! TA.AperFunction,Plated,PTH,ComponentDrill
T4C1.830
; #@! TA.AperFunction,Plated,PTH,ComponentDrill
T5C1.850
%
G90
G05
T1
X123.063Y-86.106
X123.317Y-79.248
X123.317Y-81.788
X125.476Y-90.932
X126.365Y-81.788
X127.508Y-90.932
X127.889Y-84.074
X128.143Y-79.248
X128.143Y-88.011
X133.477Y-79.121
X133.604Y-88.138
X139.192Y-79.121
X143.129Y-100.076
X143.383Y-86.106
X143.764Y-79.121
X145.923Y-84.328
X147.447Y-78.994
X148.209Y-96.012
X148.463Y-86.106
X148.59Y-100.071
X149.987Y-110.871
X151.13Y-96.012
X155.448Y-107.315
X156.464Y-101.854
X157.099Y-107.823
X157.099Y-110.871
X158.877Y-73.66
X158.877Y-80.01
X159.271Y-80.929
X159.893Y-72.771
X161.036Y-90.17
X165.608Y-102.743
X166.624Y-78.74
X168.148Y-95.631
X168.809Y-90.284
X168.897Y-80.277
X169.455Y-97.192
X169.545Y-99.568
X170.815Y-98.298
T2
X124.858Y-66.04
X126.858Y-66.04
X126.858Y-71.04
X128.858Y-66.04
X128.858Y-71.04
X130.858Y-66.04
X130.858Y-71.04
X132.858Y-66.04
X132.858Y-71.04
X134.858Y-66.04
X134.858Y-71.04
X136.858Y-66.04
X136.858Y-71.04
X138.858Y-66.04
X138.858Y-71.04
X140.858Y-66.04
X140.858Y-71.04
X142.858Y-66.04
X142.858Y-71.04
T3
X153.665Y-92.202
X156.205Y-92.202
X175.514Y-74.422
X175.514Y-76.962
X175.514Y-79.502
X175.514Y-82.042
X175.514Y-84.582
T4
X125.8Y-116.5
X132.8Y-116.5
X165.7Y-116.5
X172.7Y-116.5
T5
X128.524Y-107.569
M30
