M48
METRIC,TZ
T1C0.400
T2C0.400
T3C1.000
T4C1.830
T5C1.850
%
G90
G05
T1
X123063Y-86106
X123317Y-79248
X123317Y-81788
X125476Y-90932
X126365Y-81788
X127508Y-90932
X127889Y-84074
X128143Y-79248
X128143Y-88011
X133477Y-79121
X133604Y-88138
X139192Y-79121
X143129Y-100076
X143383Y-86106
X143764Y-79121
X145923Y-84328
X147447Y-78994
X148209Y-96012
X148463Y-86106
X148590Y-100071
X149987Y-110871
X151130Y-96012
X155448Y-107315
X156464Y-101854
X157099Y-107823
X157099Y-110871
X158877Y-73660
X158877Y-80010
X159271Y-80929
X159893Y-72771
X161036Y-90170
X165608Y-102743
X166624Y-78740
X168148Y-95631
X168809Y-90284
X168897Y-80277
X169455Y-97192
X169545Y-99568
X170815Y-98298
T2
X124858Y-66041
X126858Y-66041
X126858Y-71041
X128858Y-66041
X128858Y-71041
X130858Y-66041
X130858Y-71041
X132858Y-66041
X132858Y-71041
X134858Y-66041
X134858Y-71041
X136858Y-66041
X136858Y-71041
X138858Y-66041
X138858Y-71041
X140858Y-66041
X140858Y-71041
X142858Y-66041
X142858Y-71041
T3
X153665Y-92202
X156205Y-92202
X175514Y-74422
X175514Y-76962
X175514Y-79502
X175514Y-82042
X175514Y-84582
T4
X125800Y-116500
X132800Y-116500
X165700Y-116500
X172700Y-116500
T5
X128524Y-107569
M30
